<svg width="559" height="499" viewBox="0 0 559 499" fill="none" xmlns="http://www.w3.org/2000/svg">
<path d="M146.984 129.519C171.704 87.0584 228.505 76.7136 266.608 107.733V107.733C284.005 121.895 306.548 128.101 328.742 124.838V124.838C377.352 117.692 420.855 155.65 420.36 204.781V204.781C420.134 227.212 429.337 248.707 445.726 264.024V264.024C481.621 297.573 479.068 355.251 440.347 385.497V385.497C422.669 399.306 411.602 419.903 409.845 442.266V442.266C405.995 491.248 359.308 525.213 311.52 513.798V513.798C289.701 508.587 266.697 512.776 248.118 525.346V525.346C207.422 552.876 151.758 537.551 130.887 493.072V493.072C121.358 472.764 103.74 457.391 82.3282 450.701V450.701C35.4309 436.049 12.7061 382.974 34.4688 338.924V338.924C44.4048 318.813 45.4391 295.453 37.3195 274.542V274.542C19.5351 228.741 46.8618 177.882 94.8706 167.432V167.432C116.789 162.661 135.697 148.905 146.984 129.519V129.519Z" fill="#86BE7F"/>
<path d="M103.362 280.157L112.047 327.847L104.829 329.162L97.4575 288.69L97.1781 288.741L87.1249 298.271L85.8695 291.378L96.3524 281.433L103.362 280.157ZM139.072 323.743C135.39 324.398 132.07 324 129.111 322.55C126.153 321.1 123.647 318.661 121.596 315.234C119.544 311.806 118.046 307.5 117.102 302.315C116.16 297.145 116.046 292.602 116.761 288.687C117.491 284.769 118.984 281.61 121.242 279.21C123.515 276.807 126.476 275.273 130.124 274.609C133.772 273.944 137.077 274.345 140.038 275.811C142.997 277.261 145.501 279.692 147.55 283.104C149.611 286.497 151.113 290.779 152.054 295.949C153.002 301.149 153.119 305.715 152.408 309.646C151.693 313.561 150.209 316.727 147.954 319.142C145.697 321.542 142.736 323.076 139.072 323.743ZM137.94 317.526C141.169 316.938 143.405 314.902 144.647 311.42C145.905 307.935 145.991 303.212 144.906 297.251C144.185 293.292 143.156 290.023 141.82 287.443C140.497 284.845 138.93 282.981 137.121 281.851C135.324 280.703 133.362 280.323 131.235 280.71C128.021 281.295 125.787 283.338 124.532 286.839C123.277 290.339 123.183 295.064 124.25 301.012C124.974 304.987 125.998 308.273 127.321 310.871C128.657 313.45 130.222 315.307 132.016 316.439C133.808 317.557 135.782 317.919 137.94 317.526ZM178.778 316.512C175.096 317.166 171.776 316.769 168.817 315.319C165.859 313.869 163.353 311.43 161.302 308.002C159.25 304.575 157.752 300.268 156.807 295.083C155.866 289.913 155.752 285.371 156.467 281.456C157.197 277.537 158.69 274.378 160.948 271.978C163.221 269.575 166.182 268.042 169.83 267.377C173.478 266.713 176.783 267.113 179.744 268.579C182.703 270.029 185.207 272.46 187.256 275.872C189.317 279.266 190.819 283.548 191.76 288.717C192.708 293.918 192.825 298.484 192.114 302.414C191.399 306.33 189.915 309.495 187.66 311.911C185.403 314.311 182.442 315.844 178.778 316.512ZM177.646 310.294C180.875 309.706 183.111 307.671 184.353 304.189C185.611 300.704 185.697 295.981 184.611 290.019C183.89 286.061 182.862 282.791 181.526 280.212C180.203 277.614 178.636 275.75 176.827 274.62C175.03 273.472 173.068 273.091 170.941 273.478C167.727 274.064 165.493 276.107 164.238 279.607C162.983 283.108 162.889 287.832 163.956 293.781C164.68 297.755 165.704 301.041 167.027 303.639C168.363 306.219 169.928 308.075 171.722 309.208C173.514 310.325 175.488 310.687 177.646 310.294ZM225.002 298.037L224.543 295.522C224.215 293.721 224.288 292.008 224.762 290.382C225.249 288.737 226.132 287.333 227.411 286.17C228.704 284.988 230.382 284.209 232.447 283.833C234.559 283.449 236.41 283.577 238.003 284.217C239.595 284.857 240.893 285.864 241.897 287.237C242.916 288.607 243.59 290.192 243.918 291.993L244.376 294.508C244.704 296.309 244.632 298.03 244.161 299.672C243.688 301.298 242.812 302.7 241.535 303.879C240.271 305.04 238.599 305.809 236.519 306.188C234.423 306.57 232.571 306.442 230.963 305.805C229.353 305.152 228.039 304.148 227.023 302.793C226.003 301.423 225.329 299.838 225.002 298.037ZM229.969 294.534L230.427 297.049C230.67 298.384 231.209 299.537 232.044 300.507C232.878 301.478 234.087 301.819 235.67 301.531C237.238 301.245 238.234 300.503 238.657 299.303C239.08 298.103 239.17 296.836 238.927 295.501L238.469 292.986C238.226 291.651 237.702 290.495 236.899 289.518C236.111 288.539 234.91 288.196 233.295 288.491C231.743 288.773 230.74 289.517 230.286 290.723C229.832 291.928 229.726 293.199 229.969 294.534ZM196.046 275.113L195.588 272.598C195.26 270.798 195.331 269.076 195.802 267.435C196.289 265.79 197.172 264.387 198.452 263.223C199.747 262.057 201.427 261.286 203.492 260.91C205.603 260.525 207.455 260.653 209.047 261.293C210.639 261.934 211.937 262.94 212.941 264.313C213.945 265.686 214.611 267.273 214.939 269.074L215.397 271.589C215.725 273.39 215.653 275.111 215.183 276.753C214.724 278.376 213.857 279.777 212.58 280.956C211.316 282.116 209.643 282.886 207.563 283.265C205.452 283.649 203.592 283.523 201.985 282.885C200.389 282.23 199.084 281.224 198.067 279.87C197.048 278.5 196.374 276.914 196.046 275.113ZM201.037 271.606L201.495 274.121C201.738 275.456 202.269 276.61 203.088 277.584C203.922 278.555 205.131 278.896 206.715 278.608C208.267 278.325 209.255 277.584 209.678 276.384C210.117 275.181 210.214 273.912 209.971 272.577L209.513 270.062C209.27 268.727 208.747 267.571 207.943 266.595C207.14 265.619 205.939 265.276 204.34 265.567C202.787 265.85 201.784 266.594 201.33 267.799C200.892 269.002 200.794 270.271 201.037 271.606ZM204.857 310.944L228.959 257.282L234.524 256.268L210.423 309.931L204.857 310.944ZM268.801 299.298L260.115 251.608L289.689 246.222L290.817 252.416L268.439 256.491L271.085 271.022L291.345 267.332L292.469 273.503L272.209 277.193L275.997 297.988L268.801 299.298ZM303.594 292.962L297.079 257.194L303.809 255.968L304.844 261.65L305.217 261.582C305.518 259.538 306.391 257.815 307.836 256.414C309.293 254.993 311.07 254.092 313.166 253.711C313.601 253.631 314.116 253.554 314.711 253.477C315.322 253.398 315.803 253.351 316.153 253.335L317.366 259.995C317.072 259.968 316.56 259.973 315.829 260.01C315.095 260.032 314.371 260.107 313.657 260.237C312.011 260.537 310.608 261.154 309.447 262.087C308.298 263.002 307.463 264.14 306.941 265.502C306.416 266.849 306.295 268.299 306.578 269.851L310.556 291.694L303.594 292.962ZM340.404 287.003C336.88 287.645 333.708 287.445 330.887 286.403C328.08 285.342 325.735 283.564 323.853 281.068C321.984 278.553 320.711 275.441 320.035 271.731C319.368 268.067 319.463 264.713 320.32 261.67C321.193 258.624 322.721 256.093 324.903 254.075C327.102 252.055 329.862 250.742 333.184 250.137C335.202 249.769 337.219 249.747 339.235 250.069C341.25 250.392 343.141 251.13 344.907 252.284C346.673 253.438 348.198 255.077 349.483 257.201C350.766 259.309 351.702 261.986 352.293 265.23L352.743 267.698L324.31 272.877L323.36 267.661L344.97 263.725C344.636 261.893 343.968 260.339 342.966 259.062C341.96 257.769 340.707 256.834 339.207 256.258C337.722 255.678 336.079 255.552 334.278 255.88C332.322 256.236 330.702 257.029 329.418 258.257C328.147 259.467 327.255 260.912 326.744 262.594C326.244 264.256 326.157 265.98 326.483 267.766L327.225 271.841C327.66 274.231 328.45 276.189 329.593 277.713C330.753 279.234 332.173 280.298 333.856 280.906C335.536 281.498 337.392 281.609 339.426 281.239C340.746 280.999 341.915 280.593 342.934 280.023C343.95 279.437 344.784 278.691 345.438 277.786C346.091 276.881 346.525 275.832 346.741 274.638L353.547 274.625C353.373 276.662 352.735 278.534 351.635 280.242C350.547 281.932 349.052 283.367 347.15 284.548C345.261 285.71 343.012 286.528 340.404 287.003ZM376.267 280.472C372.743 281.114 369.571 280.913 366.751 279.871C363.943 278.811 361.599 277.032 359.717 274.536C357.847 272.022 356.575 268.909 355.899 265.199C355.232 261.535 355.327 258.182 356.184 255.139C357.057 252.093 358.584 249.561 360.767 247.543C362.965 245.523 365.726 244.21 369.048 243.605C371.066 243.238 373.083 243.215 375.098 243.538C377.114 243.86 379.005 244.599 380.771 245.753C382.537 246.907 384.062 248.546 385.347 250.669C386.629 252.777 387.566 255.454 388.157 258.698L388.606 261.167L360.174 266.345L359.224 261.129L380.833 257.193C380.5 255.361 379.832 253.807 378.829 252.53C377.824 251.237 376.571 250.303 375.071 249.726C373.586 249.146 371.943 249.021 370.142 249.348C368.186 249.705 366.566 250.497 365.282 251.725C364.011 252.935 363.119 254.381 362.607 256.062C362.108 257.725 362.021 259.449 362.346 261.234L363.088 265.309C363.524 267.7 364.313 269.657 365.457 271.181C366.616 272.702 368.037 273.767 369.72 274.374C371.399 274.967 373.256 275.078 375.29 274.707C376.609 274.467 377.779 274.062 378.797 273.491C379.813 272.905 380.648 272.16 381.301 271.255C381.954 270.35 382.389 269.3 382.604 268.106L389.411 268.094C389.236 270.13 388.599 272.003 387.499 273.711C386.411 275.4 384.916 276.836 383.014 278.016C381.124 279.178 378.876 279.997 376.267 280.472ZM165.054 392.196C162.788 392.608 160.662 392.563 158.677 392.058C156.69 391.538 155.014 390.568 153.649 389.148C152.299 387.726 151.411 385.843 150.984 383.499C150.616 381.481 150.702 379.749 151.24 378.303C151.779 376.858 152.639 375.635 153.82 374.634C155.001 373.633 156.371 372.79 157.931 372.105C159.49 371.42 161.097 370.822 162.753 370.312C164.85 369.674 166.552 369.155 167.859 368.757C169.163 368.343 170.083 367.895 170.621 367.412C171.159 366.929 171.351 366.268 171.198 365.43L171.169 365.267C170.798 363.233 169.937 361.762 168.584 360.854C167.248 359.942 165.454 359.692 163.203 360.102C160.859 360.528 159.106 361.385 157.945 362.671C156.796 363.939 156.08 365.248 155.797 366.599L148.982 366.3C149.362 363.986 150.176 362.025 151.423 360.418C152.683 358.794 154.236 357.5 156.082 356.539C157.925 355.561 159.925 354.876 162.083 354.483C163.511 354.223 165.056 354.118 166.717 354.168C168.391 354.2 170.007 354.532 171.566 355.162C173.14 355.79 174.527 356.844 175.727 358.326C176.924 359.792 177.76 361.829 178.235 364.437L182.561 388.189L175.761 389.428L174.871 384.537L174.591 384.588C174.305 385.571 173.791 386.579 173.049 387.612C172.307 388.645 171.282 389.578 169.974 390.41C168.666 391.241 167.026 391.837 165.054 392.196ZM165.55 386.331C167.475 385.981 169.051 385.301 170.279 384.291C171.522 383.279 172.389 382.094 172.88 380.738C173.383 379.363 173.506 377.969 173.249 376.557L172.409 371.946C172.206 372.24 171.767 372.56 171.093 372.907C170.431 373.236 169.664 373.561 168.792 373.88C167.917 374.184 167.064 374.475 166.232 374.755C165.398 375.019 164.701 375.242 164.141 375.425C162.821 375.841 161.639 376.353 160.595 376.96C159.567 377.565 158.788 378.308 158.259 379.19C157.742 380.054 157.597 381.107 157.823 382.349C158.137 384.072 159.011 385.261 160.445 385.914C161.877 386.551 163.578 386.69 165.55 386.331ZM204.41 384.956C200.948 385.586 197.824 385.345 195.039 384.232C192.267 383.101 189.96 381.268 188.119 378.732C186.278 376.197 185.031 373.136 184.378 369.55C183.716 365.917 183.815 362.587 184.675 359.559C185.532 356.516 187.06 353.984 189.259 351.964C191.457 349.943 194.24 348.627 197.609 348.013C200.326 347.518 202.84 347.582 205.15 348.203C207.458 348.81 209.428 349.894 211.06 351.458C212.707 353.018 213.875 354.979 214.561 357.34L207.785 358.574C207.107 356.965 205.99 355.677 204.435 354.709C202.894 353.739 201.014 353.456 198.794 353.86C196.854 354.213 195.247 355.035 193.975 356.326C192.715 357.598 191.852 359.246 191.387 361.272C190.919 363.282 190.917 365.56 191.38 368.106C191.855 370.714 192.661 372.893 193.798 374.643C194.935 376.392 196.32 377.656 197.953 378.433C199.601 379.207 201.412 379.415 203.383 379.056C204.703 378.816 205.854 378.357 206.838 377.681C207.834 376.986 208.614 376.114 209.176 375.066C209.755 374.014 210.074 372.817 210.134 371.475L216.911 370.241C217.084 372.599 216.707 374.801 215.78 376.846C214.853 378.892 213.429 380.627 211.507 382.051C209.601 383.473 207.235 384.441 204.41 384.956ZM238.993 378.657C235.531 379.288 232.407 379.047 229.622 377.934C226.85 376.803 224.543 374.97 222.702 372.434C220.861 369.898 219.614 366.837 218.961 363.251C218.299 359.618 218.398 356.288 219.258 353.261C220.115 350.217 221.643 347.686 223.841 345.665C226.04 343.645 228.823 342.328 232.192 341.715C234.909 341.22 237.423 341.283 239.733 341.905C242.041 342.511 244.011 343.596 245.643 345.159C247.29 346.72 248.457 348.68 249.144 351.042L242.368 352.276C241.69 350.667 240.573 349.379 239.017 348.411C237.477 347.44 235.597 347.157 233.377 347.562C231.437 347.915 229.83 348.737 228.557 350.027C227.298 351.299 226.435 352.948 225.97 354.973C225.502 356.983 225.5 359.261 225.963 361.807C226.438 364.415 227.244 366.594 228.381 368.344C229.518 370.094 230.902 371.357 232.536 372.135C234.184 372.909 235.995 373.117 237.966 372.757C239.286 372.517 240.437 372.059 241.421 371.382C242.417 370.688 243.197 369.816 243.759 368.767C244.338 367.716 244.657 366.519 244.717 365.176L251.494 363.942C251.667 366.301 251.29 368.502 250.363 370.548C249.436 372.593 248.012 374.328 246.09 375.753C244.184 377.175 241.818 378.143 238.993 378.657ZM273.925 372.295C270.401 372.937 267.229 372.737 264.408 371.695C261.601 370.634 259.256 368.856 257.374 366.36C255.505 363.845 254.232 360.733 253.556 357.023C252.889 353.359 252.984 350.005 253.841 346.962C254.714 343.916 256.242 341.384 258.424 339.367C260.623 337.347 263.383 336.034 266.705 335.429C268.723 335.061 270.74 335.039 272.756 335.361C274.771 335.684 276.662 336.422 278.428 337.576C280.194 338.73 281.719 340.369 283.004 342.493C284.287 344.601 285.223 347.277 285.814 350.522L286.264 352.99L257.831 358.169L256.881 352.953L278.491 349.017C278.157 347.185 277.489 345.631 276.487 344.354C275.481 343.061 274.228 342.126 272.728 341.55C271.243 340.97 269.6 340.844 267.799 341.172C265.843 341.528 264.223 342.321 262.939 343.549C261.668 344.759 260.776 346.204 260.265 347.885C259.765 349.548 259.678 351.272 260.004 353.057L260.746 357.133C261.181 359.523 261.971 361.481 263.114 363.005C264.274 364.526 265.694 365.59 267.377 366.198C269.057 366.79 270.913 366.901 272.947 366.531C274.267 366.291 275.436 365.885 276.455 365.315C277.471 364.729 278.305 363.983 278.959 363.078C279.612 362.173 280.046 361.124 280.262 359.93L287.068 359.917C286.894 361.954 286.256 363.826 285.156 365.534C284.068 367.224 282.573 368.659 280.671 369.84C278.782 371.002 276.533 371.82 273.925 372.295ZM316.12 335.932L310.013 338.199C309.602 337.44 309.043 336.748 308.336 336.123C307.644 335.495 306.774 335.036 305.727 334.746C304.68 334.455 303.434 334.441 301.991 334.704C300.019 335.063 298.454 335.806 297.296 336.931C296.134 338.041 295.679 339.286 295.931 340.668C296.149 341.863 296.767 342.745 297.784 343.314C298.802 343.882 300.339 344.22 302.396 344.326L308.315 344.596C311.745 344.757 314.411 345.482 316.314 346.772C318.217 348.061 319.399 349.971 319.86 352.501C320.25 354.644 319.977 356.666 319.04 358.569C318.116 360.454 316.638 362.07 314.606 363.419C312.59 364.764 310.138 365.7 307.25 366.226C303.245 366.955 299.822 366.697 296.98 365.45C294.136 364.188 292.138 362.025 290.987 358.963L297.53 356.713C298.269 358.391 299.372 359.561 300.84 360.224C302.305 360.871 304.086 361.004 306.182 360.622C308.464 360.207 310.201 359.401 311.395 358.205C312.586 356.994 313.056 355.697 312.804 354.316C312.6 353.198 312.01 352.335 311.033 351.727C310.072 351.116 308.702 350.772 306.924 350.695L300.628 350.471C297.151 350.318 294.462 349.556 292.561 348.187C290.675 346.814 289.5 344.855 289.036 342.309C288.652 340.197 288.905 338.242 289.797 336.444C290.688 334.646 292.093 333.115 294.013 331.851C295.929 330.572 298.23 329.687 300.916 329.198C304.781 328.494 307.977 328.778 310.502 330.051C313.024 331.307 314.897 333.268 316.12 335.932ZM348.654 330.007L342.547 332.274C342.136 331.515 341.577 330.823 340.869 330.198C340.178 329.57 339.308 329.111 338.261 328.82C337.214 328.53 335.968 328.516 334.524 328.779C332.553 329.138 330.988 329.88 329.829 331.006C328.668 332.115 328.213 333.361 328.465 334.743C328.683 335.938 329.3 336.82 330.318 337.388C331.336 337.957 332.873 338.294 334.929 338.401L340.849 338.67C344.278 338.832 346.945 339.557 348.848 340.846C350.751 342.136 351.932 344.046 352.393 346.576C352.783 348.719 352.51 350.741 351.574 352.644C350.65 354.528 349.172 356.145 347.14 357.493C345.123 358.839 342.671 359.775 339.784 360.301C335.779 361.03 332.355 360.771 329.514 359.525C326.67 358.262 324.672 356.1 323.521 353.038L330.064 350.787C330.802 352.465 331.906 353.636 333.374 354.299C334.839 354.946 336.619 355.079 338.715 354.697C340.997 354.282 342.735 353.476 343.929 352.28C345.12 351.069 345.589 349.772 345.338 348.391C345.134 347.273 344.544 346.41 343.567 345.802C342.606 345.191 341.236 344.847 339.458 344.77L333.161 344.545C329.685 344.393 326.996 343.631 325.095 342.261C323.209 340.889 322.034 338.929 321.57 336.383C321.186 334.272 321.439 332.317 322.33 330.519C323.222 328.72 324.627 327.189 326.546 325.926C328.463 324.646 330.764 323.762 333.449 323.273C337.315 322.569 340.51 322.853 343.036 324.125C345.558 325.382 347.431 327.343 348.654 330.007Z" fill="black"/>
</svg>
