<svg width="640" height="576" viewBox="0 0 640 576" fill="none" xmlns="http://www.w3.org/2000/svg">
<rect x="260.363" y="31.4102" width="241.545" height="314.793" rx="120.773" transform="rotate(-4.32575 260.363 31.4102)" fill="#ADCDC0"/>
<path d="M139.901 -65.4023C161.089 -90.184 199.402 -90.184 220.589 -65.4023C230.263 -54.0881 244.242 -47.3557 259.12 -46.8471C291.705 -45.733 315.593 -15.7788 309.428 16.2375C306.613 30.8548 310.066 45.9823 318.944 57.9308C338.39 84.1017 329.864 121.454 300.989 136.596C287.806 143.509 278.132 155.64 274.325 170.031C265.988 201.552 231.47 218.175 201.628 205.041C188.003 199.044 172.487 199.044 158.862 205.041C129.021 218.175 94.5019 201.552 86.1648 170.031C82.3585 155.64 72.6841 143.509 59.501 136.596C30.6259 121.454 22.1005 84.1017 41.5461 57.9308C50.4242 45.9823 53.877 30.8548 51.0624 16.2375C44.8976 -15.7788 68.7852 -45.733 101.371 -46.8471C116.248 -47.3557 130.228 -54.0881 139.901 -65.4023Z" fill="#86BE7F"/>
<path d="M418.337 61.0254C426.832 65.1266 436.028 67.5679 445.432 68.2217L446.343 68.2792C456.063 68.8349 465.799 67.4708 474.992 64.2643C484.186 61.0577 492.658 56.0716 499.925 49.5909C506.964 43.3127 512.739 35.7508 516.942 27.3127L517.344 26.4935C521.577 17.7253 524.042 8.20886 524.598 -1.51197L524.597 -1.51217C525.153 -11.2331 523.789 -20.9681 520.582 -30.1617C517.376 -39.3553 512.39 -47.827 505.909 -55.0937L505.909 -55.0941C499.631 -62.1337 492.069 -67.9087 483.631 -72.1116L482.812 -72.5135L558.032 -228.308C587.259 -214.197 613.421 -194.467 635.024 -170.244C656.626 -146.022 673.246 -117.782 683.935 -87.137L684.431 -85.6992C694.764 -55.4776 699.142 -23.5347 697.319 8.36199C695.467 40.7649 687.25 72.486 673.139 101.713L672.473 103.081C658.41 131.757 638.919 157.44 615.075 178.705C591.231 199.97 563.494 216.407 533.402 227.111L531.968 227.617C501.322 238.305 468.871 242.853 436.468 241.001C404.066 239.148 372.345 230.932 343.117 216.82L418.337 61.0254Z" fill="#FBFFED"/>
</svg>
