<svg width="438" height="344" viewBox="0 0 438 344" fill="none" xmlns="http://www.w3.org/2000/svg">
<path d="M0 19.3097C0 8.64522 8.64524 0 19.3097 0H244.861C252.048 0 258.64 3.99081 261.971 10.3584L422.811 317.79C429.537 330.646 420.211 346.051 405.701 346.051H19.3097C8.64523 346.051 0 337.405 0 326.741V19.3097Z" fill="#FBB1FF"/>
<path d="M62.4612 60.0265V107.848H55.246V60.0265H62.4612ZM101.292 71.9818V77.5858H81.701V71.9818H101.292ZM86.9548 63.3889H93.9365V97.3167C93.9365 98.671 94.1389 99.6907 94.5436 100.376C94.9484 101.045 95.4699 101.504 96.1081 101.753C96.7619 101.987 97.4702 102.104 98.233 102.104C98.7934 102.104 99.2837 102.065 99.704 101.987C100.124 101.909 100.451 101.847 100.685 101.8L101.946 107.567C101.541 107.723 100.965 107.879 100.218 108.034C99.4705 108.206 98.5365 108.299 97.4157 108.315C95.5788 108.346 93.8665 108.019 92.2787 107.334C90.6909 106.649 89.4066 105.59 88.4259 104.158C87.4452 102.726 86.9548 100.928 86.9548 98.7644V63.3889ZM121.457 108.572C117.924 108.572 114.88 107.817 112.327 106.307C109.79 104.781 107.829 102.641 106.443 99.8852C105.073 97.1144 104.388 93.8687 104.388 90.1482C104.388 86.4745 105.073 83.2366 106.443 80.4345C107.829 77.6325 109.759 75.4454 112.234 73.8731C114.725 72.3009 117.636 71.5148 120.967 71.5148C122.991 71.5148 124.952 71.8495 126.851 72.5188C128.75 73.1882 130.455 74.239 131.965 75.6711C133.475 77.1032 134.666 78.9635 135.537 81.2518C136.409 83.5245 136.845 86.2877 136.845 89.5411V92.0162H108.334V86.7858H130.003C130.003 84.9489 129.63 83.3222 128.883 81.9056C128.135 80.4735 127.085 79.3449 125.73 78.5198C124.392 77.6948 122.819 77.2823 121.014 77.2823C119.052 77.2823 117.34 77.7648 115.877 78.73C114.429 79.6795 113.308 80.9249 112.514 82.466C111.736 83.9915 111.347 85.6494 111.347 87.4396V91.5259C111.347 93.9232 111.767 95.9624 112.608 97.6436C113.464 99.3248 114.655 100.609 116.18 101.496C117.706 102.368 119.488 102.804 121.527 102.804C122.851 102.804 124.057 102.617 125.147 102.244C126.236 101.854 127.178 101.278 127.972 100.516C128.766 99.7529 129.373 98.8111 129.793 97.6903L136.401 98.8812C135.872 100.827 134.923 102.532 133.553 103.995C132.198 105.443 130.494 106.571 128.439 107.381C126.4 108.175 124.073 108.572 121.457 108.572ZM148.943 60.0265V107.848H141.961V60.0265H148.943ZM162.687 60.0265V107.848H155.705V60.0265H162.687ZM81.5616 151.738L75.2337 152.859C74.9691 152.049 74.5488 151.279 73.9728 150.547C73.4124 149.816 72.6497 149.216 71.6845 148.749C70.7194 148.282 69.5129 148.049 68.0652 148.049C66.0882 148.049 64.4382 148.492 63.115 149.38C61.7918 150.251 61.1302 151.38 61.1302 152.765C61.1302 153.964 61.5739 154.929 62.4612 155.661C63.3485 156.393 64.7806 156.992 66.7576 157.459L72.4551 158.766C75.7552 159.529 78.2148 160.705 79.8337 162.292C81.4527 163.88 82.2621 165.943 82.2621 168.48C82.2621 170.628 81.6395 172.543 80.3941 174.224C79.1644 175.89 77.4442 177.198 75.2337 178.147C73.0388 179.097 70.4937 179.572 67.5982 179.572C63.582 179.572 60.3052 178.715 57.7678 177.003C55.2304 175.275 53.6737 172.823 53.0978 169.648L59.846 168.62C60.2663 170.379 61.1302 171.71 62.4378 172.613C63.7454 173.5 65.45 173.944 67.5515 173.944C69.8398 173.944 71.6689 173.469 73.0388 172.52C74.4087 171.555 75.0936 170.379 75.0936 168.994C75.0936 167.873 74.6733 166.931 73.8327 166.169C73.0077 165.406 71.739 164.83 70.0266 164.441L63.9556 163.11C60.6087 162.347 58.1336 161.133 56.5302 159.467C54.9424 157.801 54.1485 155.692 54.1485 153.139C54.1485 151.022 54.7401 149.17 55.9231 147.582C57.1062 145.994 58.7407 144.756 60.8267 143.869C62.9126 142.966 65.3021 142.515 67.9952 142.515C71.8713 142.515 74.9224 143.355 77.1485 145.037C79.3745 146.702 80.8456 148.936 81.5616 151.738ZM104.05 142.982V148.586H84.4596V142.982H104.05ZM89.7134 134.389H96.6951V168.317C96.6951 169.671 96.8975 170.691 97.3022 171.376C97.707 172.045 98.2285 172.504 98.8667 172.753C99.5205 172.987 100.229 173.104 100.992 173.104C101.552 173.104 102.042 173.065 102.463 172.987C102.883 172.909 103.21 172.847 103.443 172.8L104.704 178.567C104.3 178.723 103.724 178.879 102.976 179.034C102.229 179.206 101.295 179.299 100.174 179.315C98.3374 179.346 96.6251 179.019 95.0373 178.334C93.4494 177.649 92.1652 176.59 91.1845 175.158C90.2038 173.726 89.7134 171.928 89.7134 169.764V134.389ZM123.866 179.572C120.503 179.572 117.569 178.801 115.063 177.26C112.556 175.719 110.611 173.563 109.225 170.792C107.84 168.021 107.147 164.783 107.147 161.078C107.147 157.358 107.84 154.104 109.225 151.318C110.611 148.531 112.556 146.368 115.063 144.826C117.569 143.285 120.503 142.515 123.866 142.515C127.228 142.515 130.162 143.285 132.669 144.826C135.175 146.368 137.121 148.531 138.506 151.318C139.892 154.104 140.584 157.358 140.584 161.078C140.584 164.783 139.892 168.021 138.506 170.792C137.121 173.563 135.175 175.719 132.669 177.26C130.162 178.801 127.228 179.572 123.866 179.572ZM123.889 173.711C126.068 173.711 127.874 173.135 129.306 171.983C130.738 170.831 131.797 169.297 132.482 167.383C133.182 165.468 133.533 163.359 133.533 161.055C133.533 158.766 133.182 156.665 132.482 154.75C131.797 152.82 130.738 151.271 129.306 150.104C127.874 148.936 126.068 148.352 123.889 148.352C121.694 148.352 119.873 148.936 118.425 150.104C116.993 151.271 115.927 152.82 115.226 154.75C114.541 156.665 114.199 158.766 114.199 161.055C114.199 163.359 114.541 165.468 115.226 167.383C115.927 169.297 116.993 170.831 118.425 171.983C119.873 173.135 121.694 173.711 123.889 173.711ZM145.747 178.848V142.982H152.496V148.679H152.869C153.523 146.749 154.675 145.231 156.325 144.126C157.991 143.005 159.874 142.445 161.976 142.445C162.412 142.445 162.925 142.46 163.517 142.491C164.124 142.523 164.599 142.561 164.941 142.608V149.286C164.661 149.208 164.163 149.123 163.447 149.029C162.731 148.921 162.015 148.866 161.299 148.866C159.648 148.866 158.177 149.216 156.885 149.917C155.609 150.602 154.597 151.559 153.85 152.789C153.103 154.003 152.729 155.389 152.729 156.945V178.848H145.747ZM168.353 178.848V142.982H175.335V178.848H168.353ZM171.879 137.448C170.665 137.448 169.622 137.043 168.75 136.234C167.894 135.409 167.466 134.428 167.466 133.291C167.466 132.14 167.894 131.159 168.75 130.349C169.622 129.524 170.665 129.112 171.879 129.112C173.093 129.112 174.128 129.524 174.984 130.349C175.856 131.159 176.292 132.14 176.292 133.291C176.292 134.428 175.856 135.409 174.984 136.234C174.128 137.043 173.093 137.448 171.879 137.448ZM197.555 179.572C194.021 179.572 190.978 178.817 188.425 177.307C185.888 175.781 183.926 173.641 182.541 170.885C181.171 168.114 180.486 164.869 180.486 161.148C180.486 157.474 181.171 154.237 182.541 151.435C183.926 148.633 185.856 146.445 188.332 144.873C190.822 143.301 193.733 142.515 197.064 142.515C199.088 142.515 201.05 142.849 202.949 143.519C204.848 144.188 206.552 145.239 208.062 146.671C209.572 148.103 210.763 149.963 211.635 152.252C212.507 154.525 212.943 157.288 212.943 160.541V163.016H184.432V157.786H206.101C206.101 155.949 205.727 154.322 204.98 152.906C204.233 151.473 203.182 150.345 201.828 149.52C200.489 148.695 198.917 148.282 197.111 148.282C195.15 148.282 193.437 148.765 191.974 149.73C190.526 150.68 189.406 151.925 188.612 153.466C187.833 154.992 187.444 156.649 187.444 158.44V162.526C187.444 164.923 187.865 166.962 188.705 168.644C189.561 170.325 190.752 171.609 192.278 172.496C193.803 173.368 195.586 173.804 197.625 173.804C198.948 173.804 200.155 173.617 201.244 173.244C202.334 172.854 203.276 172.278 204.07 171.516C204.863 170.753 205.471 169.811 205.891 168.69L212.499 169.881C211.97 171.827 211.02 173.532 209.65 174.995C208.296 176.443 206.591 177.571 204.537 178.381C202.497 179.175 200.17 179.572 197.555 179.572ZM244.935 151.738L238.607 152.859C238.342 152.049 237.922 151.279 237.346 150.547C236.786 149.816 236.023 149.216 235.058 148.749C234.093 148.282 232.886 148.049 231.439 148.049C229.462 148.049 227.811 148.492 226.488 149.38C225.165 150.251 224.504 151.38 224.504 152.765C224.504 153.964 224.947 154.929 225.834 155.661C226.722 156.393 228.154 156.992 230.131 157.459L235.828 158.766C239.129 159.529 241.588 160.705 243.207 162.292C244.826 163.88 245.635 165.943 245.635 168.48C245.635 170.628 245.013 172.543 243.767 174.224C242.538 175.89 240.818 177.198 238.607 178.147C236.412 179.097 233.867 179.572 230.972 179.572C226.955 179.572 223.678 178.715 221.141 177.003C218.604 175.275 217.047 172.823 216.471 169.648L223.219 168.62C223.64 170.379 224.504 171.71 225.811 172.613C227.119 173.5 228.823 173.944 230.925 173.944C233.213 173.944 235.042 173.469 236.412 172.52C237.782 171.555 238.467 170.379 238.467 168.994C238.467 167.873 238.047 166.931 237.206 166.169C236.381 165.406 235.112 164.83 233.4 164.441L227.329 163.11C223.982 162.347 221.507 161.133 219.904 159.467C218.316 157.801 217.522 155.692 217.522 153.139C217.522 151.022 218.113 149.17 219.296 147.582C220.48 145.994 222.114 144.756 224.2 143.869C226.286 142.966 228.675 142.515 231.368 142.515C235.245 142.515 238.296 143.355 240.522 145.037C242.748 146.702 244.219 148.936 244.935 151.738ZM71.4277 213.982V219.586H51.8369V213.982H71.4277ZM57.0906 205.389H64.0723V239.317C64.0723 240.671 64.2747 241.691 64.6795 242.376C65.0842 243.045 65.6057 243.504 66.2439 243.753C66.8977 243.987 67.606 244.104 68.3688 244.104C68.9292 244.104 69.4195 244.065 69.8398 243.987C70.2601 243.909 70.5871 243.847 70.8206 243.8L72.0815 249.567C71.6767 249.723 71.1008 249.879 70.3535 250.034C69.6063 250.206 68.6723 250.299 67.5515 250.315C65.7146 250.346 64.0023 250.019 62.4145 249.334C60.8267 248.649 59.5424 247.59 58.5617 246.158C57.581 244.726 57.0906 242.928 57.0906 240.764V205.389ZM84.2728 228.552V249.848H77.2911V202.026H84.1794V219.819H84.6231C85.4637 217.889 86.7479 216.356 88.4759 215.219C90.2038 214.083 92.461 213.515 95.2474 213.515C97.707 213.515 99.8552 214.021 101.692 215.033C103.545 216.044 104.977 217.554 105.988 219.562C107.016 221.555 107.53 224.046 107.53 227.035V249.848H100.548V227.875C100.548 225.244 99.8708 223.205 98.5164 221.757C97.1621 220.294 95.2785 219.562 92.8657 219.562C91.2156 219.562 89.7368 219.913 88.4292 220.613C87.1371 221.314 86.1175 222.341 85.3703 223.695C84.6386 225.034 84.2728 226.653 84.2728 228.552ZM124.654 250.642C122.381 250.642 120.326 250.221 118.489 249.381C116.652 248.524 115.197 247.287 114.123 245.668C113.064 244.049 112.535 242.064 112.535 239.714C112.535 237.69 112.924 236.024 113.702 234.717C114.481 233.409 115.532 232.374 116.855 231.611C118.178 230.848 119.657 230.272 121.291 229.883C122.926 229.494 124.591 229.198 126.288 228.996C128.436 228.747 130.18 228.545 131.519 228.389C132.857 228.218 133.83 227.945 134.437 227.572C135.045 227.198 135.348 226.591 135.348 225.75V225.587C135.348 223.548 134.772 221.968 133.62 220.847C132.484 219.726 130.787 219.166 128.53 219.166C126.179 219.166 124.327 219.687 122.972 220.73C121.634 221.757 120.708 222.902 120.194 224.162L113.632 222.668C114.411 220.489 115.547 218.73 117.042 217.391C118.552 216.037 120.287 215.056 122.249 214.449C124.21 213.826 126.273 213.515 128.436 213.515C129.869 213.515 131.386 213.686 132.99 214.028C134.609 214.355 136.119 214.962 137.52 215.85C138.936 216.737 140.096 218.006 140.999 219.656C141.902 221.29 142.353 223.415 142.353 226.03V249.848H135.535V244.944H135.255C134.803 245.847 134.126 246.734 133.223 247.606C132.32 248.478 131.161 249.202 129.744 249.778C128.327 250.354 126.631 250.642 124.654 250.642ZM126.171 245.038C128.102 245.038 129.752 244.656 131.122 243.893C132.507 243.131 133.558 242.134 134.274 240.905C135.006 239.659 135.371 238.328 135.371 236.912V232.288C135.122 232.537 134.64 232.771 133.924 232.989C133.223 233.191 132.422 233.37 131.519 233.526C130.616 233.666 129.736 233.798 128.88 233.923C128.024 234.032 127.308 234.125 126.732 234.203C125.378 234.374 124.14 234.662 123.019 235.067C121.914 235.472 121.027 236.055 120.357 236.818C119.703 237.565 119.377 238.562 119.377 239.807C119.377 241.535 120.015 242.843 121.291 243.73C122.568 244.602 124.194 245.038 126.171 245.038ZM165.764 213.982V219.586H146.173V213.982H165.764ZM151.427 205.389H158.409V239.317C158.409 240.671 158.611 241.691 159.016 242.376C159.421 243.045 159.942 243.504 160.581 243.753C161.234 243.987 161.943 244.104 162.705 244.104C163.266 244.104 163.756 244.065 164.176 243.987C164.597 243.909 164.924 243.847 165.157 243.8L166.418 249.567C166.013 249.723 165.437 249.879 164.69 250.034C163.943 250.206 163.009 250.299 161.888 250.315C160.051 250.346 158.339 250.019 156.751 249.334C155.163 248.649 153.879 247.59 152.898 246.158C151.918 244.726 151.427 242.928 151.427 240.764V205.389ZM69.7931 321.572C66.3218 321.572 63.3329 320.785 60.8267 319.213C58.336 317.625 56.4213 315.438 55.0825 312.652C53.7438 309.865 53.0744 306.674 53.0744 303.078C53.0744 299.436 53.7594 296.221 55.1292 293.435C56.4991 290.633 58.4294 288.445 60.9201 286.873C63.4108 285.301 66.3451 284.515 69.7231 284.515C72.4473 284.515 74.8757 285.021 77.0084 286.033C79.141 287.029 80.8611 288.43 82.1687 290.236C83.4919 292.041 84.278 294.151 84.5271 296.563H77.7322C77.3586 294.882 76.5024 293.435 75.1637 292.22C73.8405 291.006 72.0659 290.399 69.8398 290.399C67.894 290.399 66.1894 290.913 64.7262 291.94C63.2784 292.952 62.1499 294.4 61.3404 296.283C60.5309 298.151 60.1262 300.362 60.1262 302.915C60.1262 305.53 60.5231 307.787 61.317 309.686C62.1109 311.585 63.2317 313.056 64.6795 314.099C66.1427 315.142 67.8629 315.664 69.8398 315.664C71.163 315.664 72.3617 315.423 73.4358 314.94C74.5254 314.442 75.4361 313.734 76.1677 312.815C76.915 311.897 77.4364 310.792 77.7322 309.499H84.5271C84.278 311.819 83.5231 313.889 82.2621 315.711C81.0012 317.532 79.3122 318.964 77.1952 320.007C75.0936 321.05 72.6263 321.572 69.7931 321.572ZM104.471 321.572C101.108 321.572 98.174 320.801 95.6677 319.26C93.1615 317.719 91.2156 315.563 89.8302 312.792C88.4447 310.021 87.752 306.783 87.752 303.078C87.752 299.358 88.4447 296.104 89.8302 293.318C91.2156 290.531 93.1615 288.368 95.6677 286.826C98.174 285.285 101.108 284.515 104.471 284.515C107.833 284.515 110.768 285.285 113.274 286.826C115.78 288.368 117.726 290.531 119.111 293.318C120.497 296.104 121.189 299.358 121.189 303.078C121.189 306.783 120.497 310.021 119.111 312.792C117.726 315.563 115.78 317.719 113.274 319.26C110.768 320.801 107.833 321.572 104.471 321.572ZM104.494 315.711C106.673 315.711 108.479 315.135 109.911 313.983C111.343 312.831 112.402 311.297 113.087 309.383C113.787 307.468 114.138 305.359 114.138 303.055C114.138 300.766 113.787 298.665 113.087 296.75C112.402 294.82 111.343 293.271 109.911 292.104C108.479 290.936 106.673 290.352 104.494 290.352C102.299 290.352 100.478 290.936 99.0301 292.104C97.598 293.271 96.5317 294.82 95.8312 296.75C95.1462 298.665 94.8038 300.766 94.8038 303.055C94.8038 305.359 95.1462 307.468 95.8312 309.383C96.5317 311.297 97.598 312.831 99.0301 313.983C100.478 315.135 102.299 315.711 104.494 315.711ZM133.334 299.552V320.848H126.352V284.982H133.054V290.819H133.498C134.323 288.92 135.615 287.395 137.374 286.243C139.148 285.091 141.382 284.515 144.075 284.515C146.519 284.515 148.66 285.028 150.497 286.056C152.333 287.068 153.758 288.578 154.77 290.586C155.781 292.594 156.287 295.077 156.287 298.035V320.848H149.306V298.875C149.306 296.275 148.629 294.244 147.274 292.781C145.92 291.302 144.06 290.562 141.694 290.562C140.075 290.562 138.635 290.913 137.374 291.613C136.128 292.314 135.14 293.341 134.408 294.695C133.692 296.034 133.334 297.653 133.334 299.552ZM170.002 299.552V320.848H163.021V284.982H169.722V290.819H170.166C170.991 288.92 172.283 287.395 174.042 286.243C175.817 285.091 178.05 284.515 180.743 284.515C183.187 284.515 185.328 285.028 187.165 286.056C189.002 287.068 190.426 288.578 191.438 290.586C192.45 292.594 192.956 295.077 192.956 298.035V320.848H185.974V298.875C185.974 296.275 185.297 294.244 183.942 292.781C182.588 291.302 180.728 290.562 178.362 290.562C176.743 290.562 175.303 290.913 174.042 291.613C172.797 292.314 171.808 293.341 171.076 294.695C170.36 296.034 170.002 297.653 170.002 299.552ZM215.147 321.572C211.613 321.572 208.57 320.817 206.017 319.307C203.479 317.781 201.518 315.641 200.132 312.885C198.763 310.114 198.078 306.869 198.078 303.148C198.078 299.474 198.763 296.237 200.132 293.435C201.518 290.633 203.448 288.445 205.923 286.873C208.414 285.301 211.325 284.515 214.656 284.515C216.68 284.515 218.641 284.849 220.541 285.519C222.44 286.188 224.144 287.239 225.654 288.671C227.164 290.103 228.355 291.963 229.227 294.252C230.099 296.525 230.534 299.288 230.534 302.541V305.016H202.024V299.786H223.693C223.693 297.949 223.319 296.322 222.572 294.906C221.825 293.473 220.774 292.345 219.42 291.52C218.081 290.695 216.509 290.282 214.703 290.282C212.742 290.282 211.029 290.765 209.566 291.73C208.118 292.68 206.997 293.925 206.204 295.466C205.425 296.992 205.036 298.649 205.036 300.44V304.526C205.036 306.923 205.456 308.962 206.297 310.644C207.153 312.325 208.344 313.609 209.87 314.496C211.395 315.368 213.177 315.804 215.217 315.804C216.54 315.804 217.746 315.617 218.836 315.244C219.926 314.854 220.867 314.278 221.661 313.516C222.455 312.753 223.062 311.811 223.483 310.69L230.091 311.881C229.561 313.827 228.612 315.532 227.242 316.995C225.888 318.443 224.183 319.571 222.128 320.381C220.089 321.175 217.762 321.572 215.147 321.572ZM250.758 321.572C247.287 321.572 244.298 320.785 241.792 319.213C239.301 317.625 237.386 315.438 236.048 312.652C234.709 309.865 234.04 306.674 234.04 303.078C234.04 299.436 234.724 296.221 236.094 293.435C237.464 290.633 239.394 288.445 241.885 286.873C244.376 285.301 247.31 284.515 250.688 284.515C253.412 284.515 255.841 285.021 257.973 286.033C260.106 287.029 261.826 288.43 263.134 290.236C264.457 292.041 265.243 294.151 265.492 296.563H258.697C258.324 294.882 257.468 293.435 256.129 292.22C254.806 291.006 253.031 290.399 250.805 290.399C248.859 290.399 247.155 290.913 245.691 291.94C244.244 292.952 243.115 294.4 242.305 296.283C241.496 298.151 241.091 300.362 241.091 302.915C241.091 305.53 241.488 307.787 242.282 309.686C243.076 311.585 244.197 313.056 245.645 314.099C247.108 315.142 248.828 315.664 250.805 315.664C252.128 315.664 253.327 315.423 254.401 314.94C255.491 314.442 256.401 313.734 257.133 312.815C257.88 311.897 258.402 310.792 258.697 309.499H265.492C265.243 311.819 264.488 313.889 263.227 315.711C261.966 317.532 260.277 318.964 258.16 320.007C256.059 321.05 253.591 321.572 250.758 321.572ZM287.07 284.982V290.586H267.48V284.982H287.07ZM272.733 276.389H279.715V310.317C279.715 311.671 279.917 312.691 280.322 313.376C280.727 314.045 281.248 314.504 281.887 314.753C282.54 314.987 283.249 315.104 284.011 315.104C284.572 315.104 285.062 315.065 285.483 314.987C285.903 314.909 286.23 314.847 286.463 314.8L287.724 320.567C287.319 320.723 286.743 320.879 285.996 321.034C285.249 321.206 284.315 321.299 283.194 321.315C281.357 321.346 279.645 321.019 278.057 320.334C276.469 319.649 275.185 318.59 274.204 317.158C273.224 315.726 272.733 313.928 272.733 311.764V276.389ZM296.763 321.291C295.487 321.291 294.389 320.84 293.471 319.937C292.552 319.019 292.093 317.913 292.093 316.621C292.093 315.345 292.552 314.255 293.471 313.352C294.389 312.434 295.487 311.975 296.763 311.975C298.04 311.975 299.137 312.434 300.056 313.352C300.974 314.255 301.433 315.345 301.433 316.621C301.433 317.477 301.215 318.264 300.779 318.98C300.359 319.68 299.799 320.241 299.098 320.661C298.398 321.081 297.619 321.291 296.763 321.291Z" fill="black"/>
</svg>
