<svg width="883" height="685" viewBox="0 0 883 685" fill="none" xmlns="http://www.w3.org/2000/svg">
<path d="M556.797 594.866C561.687 578.52 563.411 561.395 561.883 544.411L561.725 542.769C559.931 525.248 554.705 508.252 546.343 492.751C537.98 477.25 526.647 463.548 512.989 452.427C499.759 441.654 484.598 433.507 468.322 428.419L466.744 427.937C449.87 422.889 432.168 421.215 414.647 423.008L414.646 423.009C397.125 424.803 380.129 430.029 364.629 438.392C349.128 446.754 335.427 458.088 324.306 471.745L324.305 471.745C313.532 484.976 305.385 500.136 300.297 516.412L299.814 517.99L0.00154473 428.302C16.8273 372.056 44.5674 319.675 81.6366 274.15C118.706 228.625 164.379 190.846 216.048 162.972L218.474 161.674C269.488 134.557 325.284 117.581 382.775 111.695C441.178 105.716 500.187 111.298 556.433 128.124L559.066 128.921C614.313 145.819 665.77 173.269 710.584 209.759C755.398 246.249 792.704 291.076 820.447 341.753L821.761 344.17C849.635 395.84 867.06 452.494 873.039 510.897C879.018 569.3 873.435 628.309 856.609 684.555L556.797 594.866Z" fill="#FBFFED"/>
<path d="M442.917 184.171L418.995 237.214L410.992 233.604L434.914 180.561L442.917 184.171ZM486.867 231.637L479.288 229.715C479.399 228.685 479.318 227.62 479.046 226.52C478.79 225.428 478.244 224.382 477.407 223.381C476.57 222.381 475.349 221.518 473.743 220.794C471.55 219.805 469.498 219.472 467.586 219.794C465.682 220.099 464.384 221.02 463.691 222.557C463.091 223.886 463.101 225.179 463.719 226.434C464.337 227.689 465.626 229.071 467.585 230.577L473.251 234.878C476.53 237.375 478.67 239.909 479.671 242.48C480.673 245.051 480.539 247.744 479.269 250.558C478.195 252.941 476.546 254.753 474.324 255.995C472.127 257.227 469.565 257.817 466.638 257.765C463.728 257.72 460.668 256.973 457.456 255.525C453.001 253.516 449.795 250.927 447.837 247.759C445.887 244.573 445.387 241.075 446.336 237.264L454.335 239.5C453.922 241.662 454.214 243.57 455.213 245.226C456.22 246.864 457.888 248.209 460.219 249.26C462.757 250.405 465.024 250.793 467.018 250.425C469.021 250.04 470.368 249.079 471.061 247.542C471.622 246.299 471.627 245.044 471.076 243.777C470.542 242.519 469.423 241.245 467.719 239.957L461.65 235.444C458.32 232.923 456.182 230.338 455.236 227.689C454.308 225.047 454.483 222.31 455.76 219.479C456.819 217.13 458.402 215.371 460.508 214.202C462.615 213.033 465.047 212.478 467.805 212.537C470.57 212.579 473.446 213.273 476.433 214.621C480.733 216.56 483.696 219.018 485.325 221.997C486.96 224.958 487.475 228.171 486.867 231.637ZM496.464 273.117C492.545 271.35 489.547 268.99 487.47 266.038C485.419 263.076 484.314 259.721 484.156 255.972C484.022 252.213 484.886 248.27 486.747 244.144C488.585 240.069 490.964 236.82 493.885 234.397C496.824 231.982 500.059 230.522 503.591 230.016C507.14 229.518 510.762 230.102 514.457 231.769C516.702 232.781 518.71 234.134 520.482 235.826C522.253 237.518 523.618 239.537 524.577 241.88C525.535 244.224 525.926 246.883 525.748 249.858C525.578 252.815 524.679 256.097 523.052 259.706L521.814 262.452L490.19 248.19L492.806 242.388L516.841 253.228C517.76 251.19 518.16 249.199 518.039 247.254C517.927 245.292 517.326 243.514 516.237 241.922C515.164 240.337 513.627 239.093 511.624 238.189C509.448 237.208 507.308 236.887 505.202 237.226C503.121 237.555 501.255 238.375 499.603 239.688C497.977 240.99 496.716 242.635 495.82 244.62L493.776 249.153C492.577 251.812 492.023 254.284 492.115 256.569C492.223 258.862 492.902 260.882 494.15 262.63C495.406 264.36 497.165 265.735 499.427 266.755C500.895 267.417 502.326 267.813 503.722 267.944C505.125 268.057 506.458 267.889 507.72 267.441C508.982 266.992 510.127 266.251 511.153 265.218L517.887 269.844C516.327 271.738 514.421 273.153 512.17 274.091C509.943 275.02 507.488 275.419 504.804 275.289C502.145 275.149 499.365 274.425 496.464 273.117ZM536.353 291.106C532.433 289.339 529.435 286.979 527.359 284.027C525.308 281.066 524.203 277.71 524.044 273.961C523.911 270.202 524.775 266.26 526.636 262.133C528.474 258.058 530.853 254.809 533.774 252.386C536.712 249.972 539.948 248.511 543.479 248.005C547.029 247.507 550.651 248.092 554.346 249.758C556.59 250.77 558.599 252.123 560.37 253.815C562.142 255.508 563.507 257.526 564.465 259.87C565.424 262.214 565.814 264.873 565.637 267.847C565.467 270.804 564.568 274.087 562.94 277.695L561.702 280.441L530.078 266.179L532.695 260.377L556.73 271.217C557.649 269.179 558.048 267.188 557.928 265.243C557.816 263.281 557.215 261.503 556.125 259.911C555.053 258.326 553.515 257.082 551.512 256.179C549.337 255.197 547.196 254.876 545.09 255.215C543.01 255.544 541.143 256.364 539.492 257.677C537.865 258.979 536.604 260.624 535.709 262.609L533.665 267.142C532.466 269.801 531.912 272.273 532.003 274.558C532.112 276.851 532.79 278.872 534.039 280.619C535.295 282.349 537.054 283.724 539.316 284.744C540.783 285.406 542.215 285.802 543.61 285.933C545.014 286.046 546.346 285.879 547.609 285.43C548.871 284.981 550.015 284.24 551.042 283.207L557.776 287.833C556.216 289.727 554.31 291.143 552.058 292.08C549.832 293.009 547.377 293.408 544.693 293.278C542.033 293.138 539.254 292.415 536.353 291.106ZM607.508 258.399L583.586 311.442L575.842 307.949L599.764 254.906L607.508 258.399ZM591.087 314.825L609.028 275.042L616.772 278.535L598.831 318.317L591.087 314.825ZM615.708 270.668C614.361 270.061 613.406 269.09 612.844 267.756C612.307 266.413 612.323 265.111 612.892 263.85C613.468 262.572 614.433 261.699 615.788 261.229C617.167 260.75 618.531 260.814 619.877 261.422C621.224 262.029 622.166 263.004 622.703 264.348C623.265 265.682 623.258 266.988 622.682 268.265C622.113 269.526 621.139 270.396 619.76 270.875C618.405 271.344 617.054 271.275 615.708 270.668ZM643.206 290.456L640.403 296.672L617.922 286.533L620.725 280.317L643.206 290.456ZM608.948 322.88L628.968 278.487C630.09 276.001 631.564 274.183 633.392 273.033C635.227 271.866 637.226 271.282 639.387 271.28C641.557 271.261 643.695 271.727 645.801 272.677C647.355 273.377 648.626 274.106 649.615 274.864C650.611 275.604 651.33 276.198 651.771 276.647L647.132 282.097C646.816 281.83 646.404 281.499 645.897 281.104C645.397 280.691 644.741 280.302 643.93 279.936C642.048 279.087 640.491 278.946 639.259 279.513C638.044 280.087 637.039 281.254 636.245 283.016L616.692 326.372L608.948 322.88ZM645.554 340.355C641.635 338.587 638.637 336.227 636.561 333.275C634.509 330.314 633.404 326.959 633.246 323.209C633.112 319.451 633.976 315.508 635.837 311.381C637.675 307.306 640.055 304.058 642.976 301.635C645.914 299.22 649.149 297.76 652.681 297.254C656.23 296.756 659.852 297.34 663.547 299.006C665.792 300.019 667.8 301.371 669.572 303.063C671.344 304.756 672.709 306.774 673.667 309.118C674.625 311.462 675.016 314.121 674.838 317.095C674.668 320.052 673.769 323.335 672.142 326.944L670.904 329.689L639.28 315.427L641.896 309.626L665.932 320.465C666.85 318.428 667.25 316.436 667.13 314.491C667.017 312.529 666.416 310.752 665.327 309.159C664.255 307.574 662.717 306.33 660.714 305.427C658.538 304.446 656.398 304.124 654.292 304.463C652.211 304.792 650.345 305.613 648.693 306.925C647.067 308.228 645.806 309.872 644.911 311.858L642.866 316.39C641.667 319.049 641.113 321.521 641.205 323.807C641.313 326.1 641.992 328.12 643.24 329.867C644.496 331.597 646.255 332.972 648.517 333.992C649.985 334.654 651.416 335.051 652.812 335.181C654.215 335.295 655.548 335.127 656.81 334.678C658.072 334.229 659.217 333.488 660.244 332.455L666.978 337.082C665.417 338.975 663.511 340.391 661.26 341.329C659.033 342.257 656.578 342.656 653.894 342.526C651.235 342.387 648.455 341.663 645.554 340.355ZM383.706 315.64L401.647 275.858L409.391 279.35L391.45 319.132L383.706 315.64ZM408.326 271.483C406.979 270.876 406.025 269.905 405.463 268.571C404.926 267.228 404.942 265.926 405.51 264.665C406.086 263.388 407.052 262.514 408.406 262.044C409.786 261.565 411.149 261.629 412.496 262.237C413.843 262.844 414.785 263.82 415.322 265.163C415.884 266.497 415.876 267.803 415.3 269.08C414.732 270.341 413.758 271.211 412.378 271.69C411.023 272.159 409.673 272.09 408.326 271.483ZM417.347 302.387L406.695 326.007L398.951 322.515L416.892 282.733L424.325 286.085L421.405 292.56L421.897 292.782C423.762 291.088 425.958 290.042 428.486 289.645C431.03 289.255 433.796 289.733 436.783 291.08C439.494 292.303 441.611 293.943 443.135 296.002C444.666 298.043 445.491 300.43 445.609 303.164C445.726 305.897 445.046 308.904 443.566 312.185L432.154 337.489L424.41 333.997L435.401 309.625C436.702 306.742 436.967 304.15 436.197 301.849C435.434 299.531 433.741 297.781 431.116 296.597C429.321 295.787 427.548 295.455 425.799 295.602C424.068 295.756 422.457 296.401 420.968 297.537C419.504 298.664 418.297 300.28 417.347 302.387ZM487.673 298.696L463.751 351.739L456.007 348.247L479.929 295.204L487.673 298.696ZM469.419 372.248C468.262 371.726 467.252 371.156 466.388 370.538C465.516 369.937 464.894 369.428 464.521 369.01L469.248 363.506C470.492 364.524 471.679 365.257 472.807 365.703C473.936 366.15 475.098 366.175 476.294 365.78C477.508 365.392 478.84 364.466 480.291 363.001L482.44 360.791L486.059 313.926L494.347 317.664L490.499 353.08L490.914 353.267L514.912 326.938L523.226 330.688L486.495 368.386C484.801 370.115 483.044 371.432 481.224 372.335C479.395 373.256 477.506 373.713 475.556 373.706C473.606 373.7 471.56 373.213 469.419 372.248ZM509.645 372.437L527.586 332.654L535.071 336.03L532.221 342.35L532.636 342.536C534.326 340.722 536.363 339.615 538.747 339.215C541.155 338.805 543.524 339.125 545.855 340.177C546.339 340.395 546.901 340.669 547.541 340.999C548.199 341.338 548.706 341.618 549.063 341.841L545.722 349.249C545.45 349.022 544.941 348.678 544.193 348.216C543.453 347.737 542.686 347.319 541.892 346.96C540.062 346.135 538.255 345.788 536.471 345.918C534.713 346.039 533.112 346.595 531.668 347.585C530.231 348.558 529.124 349.908 528.345 351.635L517.389 375.929L509.645 372.437ZM534.719 383.744L552.66 343.962L560.404 347.455L542.463 387.237L534.719 383.744ZM559.339 339.588C557.992 338.98 557.038 338.01 556.476 336.676C555.939 335.332 555.955 334.03 556.523 332.77C557.1 331.492 558.065 330.619 559.42 330.149C560.799 329.67 562.162 329.734 563.509 330.342C564.856 330.949 565.798 331.924 566.335 333.268C566.897 334.602 566.89 335.908 566.313 337.185C565.745 338.446 564.771 339.315 563.391 339.795C562.037 340.264 560.686 340.195 559.339 339.588ZM566.359 398.98C562.509 397.243 559.587 394.876 557.593 391.879C555.625 388.872 554.595 385.488 554.504 381.727C554.413 377.967 555.267 374.093 557.066 370.104C558.888 366.064 561.255 362.841 564.169 360.435C567.09 358.013 570.325 356.552 573.874 356.054C577.423 355.556 581.071 356.152 584.818 357.842C587.84 359.204 590.28 360.98 592.14 363.17C594.007 365.341 595.214 367.756 595.761 370.413C596.325 373.078 596.142 375.811 595.212 378.612L587.675 375.212C588.101 373.161 587.876 371.127 586.998 369.11C586.138 367.102 584.473 365.54 582.004 364.427C579.846 363.454 577.698 363.171 575.561 363.578C573.449 363.976 571.473 365.018 569.633 366.702C567.801 368.369 566.246 370.618 564.969 373.45C563.661 376.351 562.972 379.053 562.903 381.557C562.833 384.061 563.341 386.253 564.425 388.134C565.526 390.023 567.173 391.462 569.366 392.451C570.834 393.112 572.284 393.444 573.717 393.446C575.174 393.439 576.539 393.109 577.81 392.456C579.098 391.811 580.229 390.846 581.204 389.561L588.741 392.96C587.304 395.408 585.431 397.327 583.121 398.716C580.812 400.106 578.222 400.849 575.352 400.947C572.499 401.053 569.501 400.397 566.359 398.98ZM631.8 391.341L624.22 389.419C624.332 388.389 624.251 387.324 623.978 386.224C623.722 385.132 623.176 384.086 622.339 383.085C621.502 382.084 620.281 381.222 618.675 380.497C616.482 379.509 614.43 379.175 612.519 379.498C610.615 379.803 609.316 380.723 608.623 382.26C608.024 383.59 608.033 384.882 608.651 386.138C609.27 387.393 610.558 388.774 612.518 390.281L618.183 394.581C621.462 397.078 623.602 399.612 624.604 402.183C625.605 404.754 625.471 407.447 624.202 410.262C623.127 412.644 621.479 414.457 619.256 415.699C617.059 416.931 614.497 417.521 611.57 417.468C608.661 417.424 605.6 416.677 602.389 415.229C597.934 413.22 594.727 410.631 592.77 407.462C590.819 404.276 590.319 400.778 591.269 396.968L599.268 399.204C598.854 401.365 599.147 403.274 600.145 404.929C601.152 406.567 602.821 407.912 605.152 408.963C607.69 410.108 609.956 410.496 611.951 410.128C613.953 409.743 615.301 408.782 615.994 407.245C616.554 406.002 616.559 404.747 616.008 403.481C615.475 402.222 614.356 400.949 612.651 399.66L606.583 395.147C603.252 392.627 601.114 390.042 600.169 387.392C599.241 384.751 599.415 382.014 600.692 379.182C601.751 376.834 603.334 375.075 605.441 373.906C607.547 372.736 609.979 372.181 612.737 372.24C615.502 372.282 618.379 372.977 621.366 374.324C625.665 376.263 628.629 378.722 630.257 381.7C631.893 384.661 632.407 387.875 631.8 391.341Z" fill="black"/>
</svg>
