<svg width="535" height="436" viewBox="0 0 535 436" fill="none" xmlns="http://www.w3.org/2000/svg">
<rect x="86.3359" width="467.543" height="333.586" rx="19.3097" transform="rotate(15 86.3359 0)" fill="#EDFF8E"/>
<path d="M130.405 110.686L115.522 159.972L108.086 157.727L122.969 108.441L130.405 110.686ZM161.184 119.98L146.301 169.267L138.865 167.021L153.748 117.735L161.184 119.98ZM164.922 190.855C161.986 189.969 159.576 188.821 157.691 187.411C155.821 186.007 154.412 184.469 153.463 182.8C152.515 181.13 151.939 179.442 151.736 177.735L158.692 177.052C158.912 177.889 159.264 178.809 159.748 179.813C160.244 180.838 161.033 181.821 162.115 182.76C163.213 183.704 164.756 184.477 166.746 185.078C169.473 185.901 171.928 185.916 174.111 185.122C176.29 184.344 177.815 182.511 178.687 179.624L180.881 172.356L180.424 172.218C179.753 172.873 178.864 173.558 177.755 174.274C176.662 174.994 175.303 175.494 173.678 175.774C172.053 176.054 170.109 175.852 167.847 175.169C164.927 174.287 162.502 172.811 160.571 170.74C158.662 168.657 157.43 166.071 156.875 162.98C156.341 159.877 156.668 156.361 157.855 152.43C159.042 148.499 160.725 145.331 162.904 142.926C165.1 140.525 167.594 138.932 170.387 138.148C173.185 137.347 176.068 137.395 179.036 138.291C181.33 138.984 183.067 139.928 184.246 141.125C185.43 142.305 186.263 143.519 186.744 144.767C187.24 146.02 187.589 147.097 187.79 147.998L188.319 148.158L190.129 142.166L197.18 144.295L185.771 182.078C184.812 185.255 183.286 187.639 181.195 189.231C179.104 190.822 176.651 191.727 173.837 191.945C171.038 192.168 168.067 191.805 164.922 190.855ZM171.238 169.68C173.307 170.305 175.202 170.352 176.92 169.82C178.66 169.278 180.172 168.211 181.457 166.621C182.764 165.02 183.802 162.944 184.572 160.393C185.323 157.906 185.616 155.605 185.449 153.489C185.283 151.373 184.646 149.57 183.538 148.08C182.434 146.574 180.832 145.503 178.73 144.869C176.564 144.215 174.59 144.231 172.807 144.918C171.028 145.589 169.482 146.768 168.167 148.454C166.869 150.145 165.864 152.17 165.152 154.529C164.42 156.951 164.147 159.188 164.333 161.24C164.519 163.292 165.178 165.049 166.312 166.512C167.462 167.98 169.104 169.036 171.238 169.68ZM206.781 163.58L200.153 185.528L192.958 183.355L204.12 146.39L211.026 148.476L209.21 154.492L209.667 154.631C211.108 152.93 212.915 151.76 215.086 151.12C217.274 150.485 219.755 150.587 222.531 151.425C225.049 152.185 227.096 153.381 228.669 155.012C230.247 156.626 231.245 158.626 231.663 161.01C232.081 163.395 231.83 166.111 230.909 169.159L223.81 192.671L216.614 190.499L223.452 167.853C224.261 165.174 224.196 162.869 223.255 160.94C222.32 158.994 220.632 157.653 218.194 156.917C216.525 156.413 214.932 156.326 213.415 156.655C211.913 156.989 210.575 157.741 209.399 158.909C208.244 160.066 207.372 161.623 206.781 163.58ZM230.749 194.767L241.911 157.802L249.107 159.975L237.945 196.94L230.749 194.767ZM247.267 153.196C246.016 152.818 245.067 152.076 244.42 150.971C243.795 149.854 243.659 148.71 244.012 147.539C244.371 146.352 245.117 145.474 246.252 144.906C247.407 144.327 248.61 144.227 249.862 144.605C251.113 144.982 252.051 145.73 252.677 146.847C253.324 147.952 253.468 149.099 253.109 150.286C252.755 151.457 252.001 152.332 250.846 152.911C249.712 153.479 248.519 153.574 247.267 153.196ZM273.331 167.29L271.587 173.066L251.396 166.969L253.14 161.193L273.331 167.29ZM261.229 153.972L268.425 156.145L257.866 191.112C257.445 192.508 257.336 193.622 257.54 194.453C257.749 195.269 258.143 195.905 258.723 196.36C259.325 196.804 260.018 197.145 260.804 197.383C261.382 197.557 261.899 197.669 262.357 197.72C262.814 197.771 263.171 197.808 263.426 197.833L262.93 204.169C262.465 204.204 261.823 204.185 261.004 204.113C260.181 204.057 259.189 203.862 258.029 203.53C256.126 202.99 254.463 202.12 253.04 200.92C251.617 199.72 250.622 198.229 250.057 196.448C249.492 194.667 249.546 192.661 250.22 190.431L261.229 153.972ZM282.727 211.276C279.085 210.177 276.184 208.451 274.022 206.101C271.882 203.739 270.527 200.922 269.956 197.651C269.407 194.369 269.711 190.811 270.869 186.977C272.012 183.19 273.726 180.066 276.01 177.605C278.31 175.148 280.98 173.495 284.02 172.645C287.076 171.799 290.321 171.895 293.754 172.932C295.84 173.562 297.757 174.517 299.506 175.798C301.255 177.079 302.685 178.692 303.796 180.638C304.906 182.584 305.555 184.872 305.741 187.502C305.932 190.115 305.521 193.099 304.509 196.452L303.739 199.003L274.355 190.13L275.982 184.739L298.315 191.483C298.887 189.59 299.008 187.797 298.679 186.104C298.354 184.396 297.623 182.906 296.484 181.634C295.361 180.367 293.869 179.453 292.008 178.891C289.986 178.28 288.071 178.245 286.263 178.784C284.475 179.312 282.932 180.247 281.635 181.588C280.358 182.918 279.441 184.506 278.883 186.351L277.612 190.562C276.866 193.033 276.664 195.265 277.007 197.26C277.366 199.259 278.194 200.953 279.49 202.342C280.791 203.715 282.493 204.719 284.594 205.354C285.958 205.766 287.26 205.949 288.499 205.903C289.743 205.841 290.893 205.54 291.949 205.001C293.004 204.462 293.923 203.681 294.705 202.656L301.145 205.94C299.994 207.781 298.485 209.242 296.617 210.324C294.771 211.394 292.663 212.027 290.293 212.222C287.945 212.405 285.423 212.09 282.727 211.276ZM319.309 221.509L330.471 184.544L337.378 186.63L335.561 192.646L336.018 192.784C337.403 190.979 339.142 189.771 341.235 189.16C343.333 188.533 345.601 188.588 348.04 189.324C350.51 190.07 352.405 191.273 353.725 192.932C355.061 194.595 355.825 196.559 356.016 198.823L356.402 198.939C357.88 197.232 359.758 196.084 362.037 195.494C364.321 194.888 366.795 194.987 369.458 195.792C372.811 196.804 375.229 198.681 376.712 201.422C378.211 204.168 378.321 207.659 377.042 211.895L369.558 236.682L362.362 234.509L369.643 210.396C370.399 207.893 370.265 205.874 369.24 204.339C368.216 202.804 366.757 201.751 364.864 201.179C362.521 200.472 360.482 200.644 358.747 201.696C357.016 202.731 355.811 204.372 355.133 206.618L348.019 230.178L340.847 228.013L348.267 203.442C348.872 201.436 348.734 199.635 347.85 198.038C346.967 196.44 345.523 195.339 343.517 194.734C342.154 194.322 340.785 194.302 339.412 194.676C338.06 195.038 336.839 195.746 335.751 196.8C334.678 197.859 333.89 199.223 333.386 200.891L326.504 223.681L319.309 221.509ZM375.53 253.611C374.455 253.287 373.503 252.903 372.674 252.46C371.84 252.033 371.236 251.658 370.861 251.335L374.374 245.962C375.583 246.712 376.708 247.218 377.749 247.48C378.79 247.742 379.813 247.631 380.817 247.146C381.838 246.666 382.9 245.7 384.003 244.248L385.635 242.062L383.417 200.532L391.118 202.857L391.818 234.37L392.203 234.487L410.226 208.627L417.952 210.96L390.066 248.258C388.779 249.97 387.389 251.327 385.896 252.33C384.398 253.348 382.793 253.966 381.082 254.185C379.37 254.403 377.519 254.212 375.53 253.611ZM85.5389 230.308L96.7009 193.343L103.896 195.516L92.7345 232.481L85.5389 230.308ZM102.057 188.737C100.806 188.359 99.8567 187.617 99.2101 186.512C98.5845 185.395 98.4485 184.251 98.8022 183.08C99.1607 181.893 99.9071 181.015 101.041 180.447C102.197 179.868 103.4 179.768 104.651 180.146C105.903 180.524 106.841 181.271 107.467 182.388C108.113 183.493 108.257 184.64 107.899 185.827C107.545 186.998 106.791 187.873 105.636 188.452C104.501 189.02 103.308 189.115 102.057 188.737ZM99.7041 234.585L110.866 197.621L117.773 199.706L115.956 205.723L116.413 205.861C117.799 204.056 119.538 202.848 121.631 202.237C123.728 201.61 125.996 201.664 128.435 202.401C130.906 203.147 132.801 204.349 134.121 206.008C135.456 207.672 136.22 209.636 136.412 211.9L136.797 212.016C138.275 210.309 140.154 209.16 142.433 208.571C144.716 207.965 147.19 208.064 149.853 208.868C153.206 209.881 155.624 211.758 157.108 214.499C158.607 217.245 158.717 220.736 157.438 224.971L149.953 249.759L142.757 247.586L150.039 223.472C150.795 220.969 150.66 218.95 149.636 217.416C148.611 215.881 147.152 214.828 145.259 214.256C142.917 213.549 140.878 213.721 139.142 214.772C137.411 215.808 136.207 217.448 135.529 219.695L128.414 243.255L121.243 241.089L128.662 216.518C129.268 214.513 129.129 212.711 128.246 211.114C127.363 209.517 125.918 208.416 123.913 207.81C122.549 207.398 121.181 207.379 119.807 207.752C118.455 208.114 117.235 208.822 116.146 209.877C115.074 210.936 114.285 212.299 113.781 213.968L106.9 236.758L99.7041 234.585ZM167.397 255.919C165.054 255.211 163.067 254.139 161.436 252.701C159.809 251.247 158.694 249.518 158.091 247.515C157.504 245.517 157.576 243.307 158.308 240.885C158.937 238.799 159.857 237.203 161.066 236.098C162.275 234.993 163.68 234.253 165.281 233.878C166.882 233.504 168.586 233.371 170.391 233.478C172.197 233.586 174.006 233.799 175.818 234.119C178.109 234.531 179.969 234.865 181.397 235.121C182.83 235.361 183.918 235.383 184.66 235.187C185.402 234.991 185.904 234.46 186.165 233.593L186.216 233.425C186.851 231.323 186.749 229.515 185.91 228.002C185.088 226.493 183.514 225.387 181.187 224.685C178.765 223.953 176.693 223.914 174.973 224.568C173.273 225.21 171.963 226.101 171.041 227.241L164.743 223.658C166.224 221.654 167.943 220.195 169.899 219.281C171.877 218.355 173.971 217.884 176.182 217.869C178.397 217.837 180.62 218.158 182.85 218.832C184.326 219.278 185.837 219.926 187.383 220.778C188.949 221.619 190.317 222.715 191.484 224.065C192.668 225.421 193.469 227.089 193.886 229.071C194.308 231.036 194.111 233.367 193.298 236.062L185.885 260.609L178.858 258.487L180.384 253.433L180.095 253.346C179.349 254.136 178.375 254.84 177.173 255.457C175.972 256.075 174.551 256.46 172.912 256.613C171.273 256.765 169.434 256.534 167.397 255.919ZM170.705 250.615C172.694 251.216 174.514 251.337 176.163 250.977C177.828 250.622 179.221 249.922 180.342 248.877C181.484 247.822 182.275 246.564 182.716 245.104L184.154 240.339C183.82 240.518 183.25 240.608 182.444 240.61C181.659 240.601 180.777 240.536 179.799 240.415C178.824 240.279 177.877 240.141 176.956 240.003C176.039 239.849 175.272 239.722 174.654 239.623C173.205 239.378 171.84 239.29 170.559 239.358C169.294 239.432 168.198 239.757 167.271 240.335C166.364 240.902 165.717 241.827 165.33 243.11C164.792 244.891 165.043 246.437 166.082 247.749C167.126 249.045 168.667 250 170.705 250.615ZM203.839 281.996C200.903 281.11 198.492 279.962 196.607 278.552C194.738 277.147 193.329 275.61 192.38 273.94C191.431 272.271 190.855 270.583 190.653 268.876L197.608 268.193C197.828 269.029 198.18 269.95 198.665 270.954C199.16 271.979 199.949 272.961 201.031 273.901C202.129 274.845 203.673 275.617 205.662 276.218C208.39 277.042 210.845 277.057 213.028 276.263C215.206 275.485 216.731 273.652 217.603 270.764L219.797 263.496L219.34 263.358C218.67 264.014 217.78 264.699 216.671 265.415C215.578 266.135 214.219 266.635 212.594 266.915C210.969 267.194 209.026 266.992 206.763 266.309C203.844 265.428 201.418 263.951 199.488 261.88C197.578 259.798 196.346 257.211 195.791 254.12C195.257 251.018 195.584 247.502 196.771 243.571C197.958 239.64 199.641 236.472 201.82 234.066C204.016 231.666 206.51 230.073 209.303 229.288C212.101 228.488 214.984 228.535 217.952 229.432C220.246 230.124 221.983 231.069 223.162 232.265C224.346 233.446 225.179 234.66 225.66 235.908C226.157 237.161 226.506 238.238 226.706 239.139L227.236 239.299L229.045 233.306L236.096 235.436L224.687 273.219C223.728 276.395 222.203 278.779 220.111 280.371C218.02 281.963 215.567 282.868 212.753 283.086C209.955 283.309 206.983 282.946 203.839 281.996ZM210.154 260.821C212.224 261.446 214.118 261.492 215.836 260.961C217.576 260.418 219.088 259.352 220.374 257.762C221.68 256.161 222.718 254.085 223.489 251.534C224.24 249.047 224.532 246.745 224.365 244.629C224.199 242.513 223.562 240.71 222.454 239.22C221.35 237.714 219.748 236.644 217.646 236.009C215.48 235.355 213.506 235.372 211.723 236.059C209.945 236.73 208.398 237.908 207.084 239.595C205.785 241.286 204.78 243.311 204.068 245.669C203.336 248.092 203.063 250.329 203.249 252.381C203.435 254.433 204.095 256.19 205.228 257.653C206.378 259.12 208.02 260.176 210.154 260.821ZM231.874 274.496L243.036 237.531L250.231 239.704L239.069 276.669L231.874 274.496ZM248.392 232.925C247.141 232.547 246.192 231.805 245.545 230.7C244.919 229.583 244.783 228.439 245.137 227.268C245.496 226.081 246.242 225.203 247.376 224.635C248.532 224.056 249.735 223.956 250.986 224.334C252.238 224.711 253.176 225.459 253.802 226.576C254.448 227.681 254.592 228.827 254.234 230.015C253.88 231.186 253.126 232.061 251.971 232.64C250.836 233.208 249.643 233.303 248.392 232.925ZM259.862 258.998L253.235 280.946L246.039 278.773L257.201 241.809L264.108 243.894L262.291 249.911L262.748 250.049C264.19 248.348 265.996 247.178 268.168 246.538C270.355 245.903 272.837 246.005 275.612 246.843C278.131 247.603 280.177 248.799 281.75 250.43C283.329 252.044 284.327 254.044 284.745 256.428C285.163 258.813 284.911 261.529 283.991 264.577L276.891 288.089L269.695 285.917L276.534 263.271C277.343 260.592 277.277 258.287 276.337 256.358C275.401 254.412 273.714 253.071 271.275 252.335C269.607 251.831 268.014 251.744 266.496 252.073C264.995 252.408 263.656 253.159 262.481 254.327C261.326 255.484 260.453 257.041 259.862 258.998ZM294.341 294.251C291.998 293.544 290.011 292.471 288.38 291.033C286.753 289.579 285.638 287.851 285.035 285.848C284.448 283.85 284.52 281.64 285.252 279.217C285.881 277.132 286.801 275.536 288.01 274.431C289.219 273.325 290.624 272.585 292.225 272.211C293.826 271.837 295.53 271.703 297.336 271.811C299.141 271.918 300.95 272.132 302.762 272.451C305.053 272.863 306.913 273.197 308.341 273.453C309.774 273.694 310.862 273.716 311.604 273.52C312.346 273.323 312.848 272.792 313.109 271.926L313.16 271.757C313.795 269.656 313.693 267.848 312.854 266.334C312.032 264.826 310.458 263.72 308.131 263.017C305.709 262.286 303.637 262.247 301.917 262.9C300.217 263.543 298.907 264.433 297.985 265.573L291.688 261.991C293.168 259.987 294.887 258.528 296.843 257.613C298.821 256.687 300.915 256.217 303.126 256.201C305.341 256.17 307.564 256.491 309.794 257.164C311.27 257.61 312.781 258.259 314.327 259.111C315.893 259.952 317.261 261.047 318.429 262.398C319.612 263.753 320.413 265.422 320.83 267.403C321.252 269.369 321.056 271.699 320.242 274.395L312.829 298.942L305.802 296.82L307.328 291.766L307.04 291.679C306.293 292.469 305.319 293.172 304.117 293.79C302.916 294.407 301.495 294.792 299.856 294.945C298.217 295.098 296.378 294.867 294.341 294.251ZM297.649 288.948C299.638 289.549 301.458 289.669 303.107 289.309C304.772 288.954 306.165 288.255 307.286 287.21C308.428 286.154 309.219 284.896 309.66 283.436L311.099 278.671C310.764 278.851 310.194 278.941 309.389 278.943C308.604 278.933 307.722 278.868 306.743 278.748C305.769 278.611 304.821 278.474 303.9 278.336C302.983 278.182 302.216 278.055 301.598 277.956C300.149 277.711 298.784 277.623 297.503 277.691C296.238 277.764 295.142 278.09 294.215 278.668C293.308 279.234 292.661 280.159 292.274 281.443C291.736 283.224 291.987 284.77 293.026 286.082C294.071 287.377 295.612 288.333 297.649 288.948ZM348.12 269.263L346.376 275.039L326.185 268.942L327.929 263.166L348.12 269.263ZM336.018 255.945L343.213 258.118L332.655 293.085C332.233 294.481 332.124 295.594 332.328 296.426C332.537 297.242 332.932 297.878 333.512 298.333C334.113 298.777 334.807 299.118 335.593 299.355C336.17 299.53 336.688 299.642 337.145 299.693C337.603 299.743 337.959 299.781 338.214 299.805L337.719 306.142C337.253 306.177 336.611 306.158 335.793 306.086C334.969 306.03 333.978 305.835 332.818 305.502C330.915 304.963 329.252 304.093 327.828 302.893C326.405 301.693 325.411 300.202 324.846 298.421C324.281 296.64 324.335 294.634 325.008 292.404L336.018 255.945ZM342.207 307.812L353.369 270.848L360.564 273.021L349.402 309.985L342.207 307.812ZM358.725 266.242C357.473 265.864 356.525 265.122 355.878 264.016C355.252 262.9 355.116 261.756 355.47 260.584C355.829 259.397 356.575 258.52 357.709 257.952C358.864 257.373 360.068 257.272 361.319 257.65C362.571 258.028 363.509 258.775 364.135 259.892C364.781 260.998 364.925 262.144 364.567 263.331C364.213 264.503 363.459 265.378 362.303 265.957C361.169 266.524 359.976 266.619 358.725 266.242ZM371.717 317.538C368.252 316.491 365.467 314.784 363.364 312.415C361.26 310.047 359.926 307.219 359.36 303.933C358.795 300.646 359.089 297.093 360.242 293.275C361.399 289.44 363.126 286.303 365.421 283.862C367.716 281.421 370.395 279.797 373.458 278.988C376.52 278.18 379.784 278.299 383.25 279.346C386.715 280.392 389.499 282.099 391.603 284.468C393.706 286.836 395.038 289.672 395.599 292.975C396.16 296.278 395.861 299.846 394.703 303.681C393.55 307.499 391.829 310.621 389.538 313.045C387.248 315.47 384.572 317.086 381.509 317.895C378.446 318.703 375.182 318.584 371.717 317.538ZM373.565 311.504C375.811 312.183 377.852 312.151 379.686 311.409C381.521 310.668 383.089 309.417 384.391 307.657C385.708 305.901 386.726 303.837 387.443 301.462C388.155 299.104 388.448 296.829 388.322 294.637C388.217 292.435 387.608 290.509 386.495 288.86C385.382 287.211 383.703 286.047 381.457 285.369C379.195 284.686 377.136 284.721 375.281 285.474C373.441 286.231 371.86 287.496 370.538 289.267C369.236 291.027 368.229 293.087 367.517 295.445C366.8 297.82 366.496 300.1 366.606 302.287C366.732 304.478 367.354 306.39 368.472 308.023C369.605 309.661 371.303 310.821 373.565 311.504ZM408.317 303.826L401.69 325.774L394.494 323.601L405.656 286.637L412.563 288.722L410.746 294.739L411.204 294.877C412.645 293.176 414.451 292.006 416.623 291.366C418.81 290.731 421.292 290.833 424.067 291.671C426.586 292.432 428.632 293.627 430.206 295.258C431.784 296.872 432.782 298.872 433.2 301.256C433.618 303.641 433.367 306.357 432.446 309.406L425.346 332.918L418.151 330.745L424.989 308.099C425.798 305.42 425.732 303.115 424.792 301.186C423.856 299.24 422.169 297.899 419.731 297.163C418.062 296.659 416.469 296.572 414.951 296.901C413.45 297.236 412.111 297.987 410.936 299.155C409.781 300.312 408.908 301.869 408.317 303.826Z" fill="black"/>
</svg>
