<svg width="653" height="653" viewBox="0 0 653 653" fill="none" xmlns="http://www.w3.org/2000/svg">
<path d="M253.063 85.3561C291.388 40.5292 360.691 40.5292 399.017 85.3561C416.515 105.822 441.803 118 468.714 118.92C527.656 120.935 570.866 175.118 559.715 233.032C554.623 259.473 560.869 286.836 576.928 308.45C612.103 355.789 596.682 423.355 544.45 450.745C520.604 463.25 503.104 485.194 496.219 511.225C481.138 568.241 418.698 598.311 364.719 574.552C340.074 563.705 312.006 563.705 287.361 574.552C233.381 598.311 170.942 568.241 155.861 511.225C148.976 485.194 131.476 463.25 107.629 450.745C55.3983 423.355 39.9769 355.789 75.1516 308.45C91.2108 286.836 97.4564 259.473 92.3652 233.032C81.2139 175.118 124.423 120.935 183.366 118.92C210.277 118 235.565 105.822 253.063 85.3561Z" fill="#86BE7F"/>
<path d="M139.074 245.371V303.559H130.295V245.371H139.074ZM166.633 303.559V245.371H203.114V252.929H175.412V270.658H201.21V278.187H175.412V296.001H203.455V303.559H166.633ZM217.664 259.918L227.295 276.908L237.012 259.918H246.303L232.694 281.738L246.417 303.559H237.126L227.295 287.25L217.493 303.559H208.174L221.755 281.738L208.345 259.918H217.664ZM251.825 319.924V259.918H260.121V266.992H260.832C261.324 266.083 262.035 265.032 262.963 263.839C263.891 262.645 265.179 261.604 266.827 260.713C268.475 259.804 270.653 259.35 273.361 259.35C276.884 259.35 280.029 260.24 282.794 262.02C285.56 263.801 287.728 266.367 289.3 269.72C290.892 273.073 291.687 277.107 291.687 281.823C291.687 286.54 290.901 290.584 289.329 293.955C287.757 297.308 285.597 299.893 282.851 301.712C280.104 303.511 276.97 304.411 273.447 304.411C270.795 304.411 268.626 303.966 266.94 303.076C265.273 302.185 263.967 301.144 263.019 299.95C262.072 298.757 261.343 297.696 260.832 296.768H260.32V319.924H251.825ZM260.15 281.738C260.15 284.807 260.595 287.496 261.485 289.807C262.375 292.118 263.663 293.927 265.349 295.234C267.035 296.522 269.1 297.166 271.543 297.166C274.081 297.166 276.203 296.494 277.907 295.149C279.612 293.785 280.9 291.938 281.771 289.608C282.662 287.279 283.107 284.655 283.107 281.738C283.107 278.859 282.671 276.274 281.8 273.982C280.947 271.69 279.659 269.881 277.936 268.555C276.231 267.229 274.1 266.566 271.543 266.566C269.081 266.566 266.997 267.201 265.292 268.47C263.607 269.739 262.328 271.51 261.457 273.783C260.586 276.056 260.15 278.708 260.15 281.738ZM310.705 304.525C307.939 304.525 305.439 304.013 303.204 302.99C300.969 301.949 299.198 300.443 297.891 298.473C296.603 296.503 295.959 294.088 295.959 291.228C295.959 288.765 296.433 286.739 297.38 285.148C298.327 283.557 299.605 282.297 301.215 281.369C302.825 280.441 304.625 279.74 306.614 279.266C308.602 278.793 310.629 278.433 312.694 278.187C315.308 277.884 317.429 277.637 319.058 277.448C320.687 277.24 321.871 276.908 322.609 276.454C323.348 275.999 323.717 275.26 323.717 274.238V274.039C323.717 271.557 323.017 269.635 321.615 268.271C320.232 266.907 318.168 266.225 315.421 266.225C312.561 266.225 310.307 266.86 308.659 268.129C307.03 269.379 305.903 270.771 305.278 272.306L297.294 270.487C298.242 267.835 299.624 265.695 301.443 264.066C303.28 262.418 305.392 261.225 307.778 260.486C310.165 259.729 312.675 259.35 315.308 259.35C317.05 259.35 318.897 259.558 320.848 259.975C322.818 260.373 324.655 261.111 326.36 262.191C328.083 263.271 329.495 264.814 330.593 266.822C331.692 268.811 332.241 271.396 332.241 274.578V303.559H323.945V297.592H323.604C323.055 298.691 322.231 299.77 321.132 300.831C320.033 301.892 318.622 302.773 316.899 303.473C315.175 304.174 313.11 304.525 310.705 304.525ZM312.552 297.706C314.9 297.706 316.908 297.242 318.575 296.314C320.261 295.385 321.539 294.173 322.411 292.677C323.301 291.162 323.746 289.542 323.746 287.818V282.193C323.443 282.496 322.856 282.78 321.984 283.045C321.132 283.291 320.157 283.509 319.058 283.699C317.959 283.869 316.889 284.03 315.847 284.182C314.806 284.314 313.934 284.428 313.234 284.523C311.586 284.731 310.08 285.081 308.716 285.574C307.371 286.066 306.292 286.777 305.477 287.705C304.682 288.614 304.284 289.826 304.284 291.341C304.284 293.444 305.06 295.035 306.614 296.115C308.167 297.175 310.146 297.706 312.552 297.706ZM348.851 277.647V303.559H340.356V259.918H348.51V267.021H349.05C350.054 264.71 351.626 262.854 353.766 261.452C355.925 260.051 358.644 259.35 361.92 259.35C364.894 259.35 367.499 259.975 369.734 261.225C371.969 262.456 373.702 264.293 374.933 266.737C376.164 269.18 376.78 272.201 376.78 275.8V303.559H368.285V276.823C368.285 273.66 367.461 271.188 365.813 269.407C364.165 267.608 361.901 266.708 359.022 266.708C357.053 266.708 355.3 267.135 353.766 267.987C352.251 268.839 351.048 270.089 350.158 271.737C349.287 273.366 348.851 275.336 348.851 277.647ZM401.31 304.411C397.786 304.411 394.642 303.511 391.877 301.712C389.13 299.893 386.971 297.308 385.399 293.955C383.846 290.584 383.069 286.54 383.069 281.823C383.069 277.107 383.855 273.073 385.427 269.72C387.018 266.367 389.197 263.801 391.962 262.02C394.727 260.24 397.862 259.35 401.366 259.35C404.075 259.35 406.253 259.804 407.901 260.713C409.568 261.604 410.856 262.645 411.765 263.839C412.693 265.032 413.413 266.083 413.924 266.992H414.436V245.371H422.931V303.559H414.635V296.768H413.924C413.413 297.696 412.674 298.757 411.708 299.95C410.761 301.144 409.454 302.185 407.787 303.076C406.121 303.966 403.961 304.411 401.31 304.411ZM403.185 297.166C405.628 297.166 407.693 296.522 409.379 295.234C411.083 293.927 412.371 292.118 413.243 289.807C414.133 287.496 414.578 284.807 414.578 281.738C414.578 278.708 414.142 276.056 413.271 273.783C412.4 271.51 411.121 269.739 409.435 268.47C407.75 267.201 405.666 266.566 403.185 266.566C400.628 266.566 398.497 267.229 396.792 268.555C395.087 269.881 393.799 271.69 392.928 273.982C392.076 276.274 391.649 278.859 391.649 281.738C391.649 284.655 392.085 287.279 392.956 289.608C393.828 291.938 395.116 293.785 396.82 295.149C398.544 296.494 400.666 297.166 403.185 297.166ZM450.664 304.439C446.364 304.439 442.661 303.521 439.555 301.683C436.468 299.827 434.081 297.223 432.395 293.87C430.728 290.499 429.895 286.549 429.895 282.022C429.895 277.552 430.728 273.612 432.395 270.203C434.081 266.794 436.43 264.132 439.441 262.219C442.472 260.306 446.014 259.35 450.067 259.35C452.53 259.35 454.916 259.757 457.227 260.571C459.538 261.386 461.612 262.664 463.449 264.407C465.287 266.15 466.736 268.413 467.796 271.197C468.857 273.963 469.388 277.325 469.388 281.284V284.295H434.697V277.931H461.063C461.063 275.696 460.608 273.717 459.699 271.993C458.79 270.25 457.511 268.877 455.863 267.873C454.235 266.869 452.321 266.367 450.124 266.367C447.738 266.367 445.654 266.955 443.874 268.129C442.112 269.284 440.748 270.8 439.782 272.675C438.835 274.531 438.362 276.548 438.362 278.727V283.699C438.362 286.616 438.873 289.097 439.896 291.143C440.938 293.188 442.387 294.751 444.243 295.831C446.099 296.891 448.268 297.422 450.749 297.422C452.359 297.422 453.827 297.194 455.153 296.74C456.479 296.266 457.625 295.565 458.591 294.637C459.557 293.709 460.296 292.563 460.807 291.199L468.848 292.648C468.204 295.016 467.048 297.09 465.381 298.871C463.734 300.632 461.66 302.005 459.159 302.99C456.678 303.956 453.846 304.439 450.664 304.439ZM491.95 304.411C488.427 304.411 485.282 303.511 482.517 301.712C479.77 299.893 477.611 297.308 476.039 293.955C474.486 290.584 473.709 286.54 473.709 281.823C473.709 277.107 474.495 273.073 476.067 269.72C477.659 266.367 479.837 263.801 482.602 262.02C485.368 260.24 488.502 259.35 492.007 259.35C494.715 259.35 496.893 259.804 498.541 260.713C500.208 261.604 501.496 262.645 502.405 263.839C503.333 265.032 504.053 266.083 504.565 266.992H505.076V245.371H513.571V303.559H505.275V296.768H504.565C504.053 297.696 503.314 298.757 502.348 299.95C501.401 301.144 500.094 302.185 498.428 303.076C496.761 303.966 494.602 304.411 491.95 304.411ZM493.825 297.166C496.268 297.166 498.333 296.522 500.019 295.234C501.723 293.927 503.011 292.118 503.883 289.807C504.773 287.496 505.218 284.807 505.218 281.738C505.218 278.708 504.782 276.056 503.911 273.783C503.04 271.51 501.761 269.739 500.076 268.47C498.39 267.201 496.306 266.566 493.825 266.566C491.268 266.566 489.137 267.229 487.432 268.555C485.728 269.881 484.44 271.69 483.568 273.982C482.716 276.274 482.29 278.859 482.29 281.738C482.29 284.655 482.725 287.279 483.597 289.608C484.468 291.938 485.756 293.785 487.461 295.149C489.184 296.494 491.306 297.166 493.825 297.166ZM129.613 389.559V345.918H137.767V353.021H138.307C139.216 350.615 140.703 348.74 142.768 347.395C144.832 346.032 147.304 345.35 150.183 345.35C153.1 345.35 155.544 346.032 157.514 347.395C159.502 348.759 160.97 350.634 161.917 353.021H162.372C163.414 350.691 165.071 348.835 167.344 347.452C169.617 346.051 172.326 345.35 175.47 345.35C179.429 345.35 182.658 346.59 185.158 349.072C187.678 351.553 188.937 355.294 188.937 360.294V389.559H180.442V361.09C180.442 358.135 179.637 355.995 178.027 354.669C176.417 353.343 174.494 352.68 172.259 352.68C169.494 352.68 167.344 353.532 165.81 355.237C164.276 356.923 163.509 359.092 163.509 361.743V389.559H155.042V360.55C155.042 358.182 154.303 356.279 152.826 354.839C151.348 353.4 149.426 352.68 147.058 352.68C145.448 352.68 143.961 353.106 142.597 353.958C141.253 354.792 140.163 355.957 139.33 357.453C138.516 358.95 138.108 360.683 138.108 362.653V389.559H129.613ZM200.93 405.924C199.661 405.924 198.506 405.82 197.464 405.611C196.422 405.422 195.645 405.214 195.134 404.986L197.18 398.025C198.733 398.442 200.116 398.622 201.328 398.565C202.54 398.508 203.61 398.054 204.538 397.201C205.485 396.349 206.319 394.957 207.039 393.025L208.09 390.127L192.122 345.918H201.214L212.266 379.785H212.721L223.773 345.918H232.893L214.909 395.383C214.075 397.656 213.015 399.579 211.727 401.151C210.439 402.742 208.904 403.935 207.124 404.731C205.343 405.526 203.279 405.924 200.93 405.924ZM288.353 356.572L280.653 357.936C280.331 356.951 279.82 356.014 279.119 355.123C278.437 354.233 277.509 353.504 276.334 352.936C275.16 352.367 273.692 352.083 271.931 352.083C269.525 352.083 267.517 352.623 265.907 353.703C264.297 354.763 263.492 356.137 263.492 357.823C263.492 359.281 264.032 360.455 265.112 361.346C266.191 362.236 267.934 362.965 270.34 363.533L277.272 365.124C281.288 366.052 284.28 367.483 286.25 369.415C288.22 371.347 289.205 373.856 289.205 376.944C289.205 379.558 288.447 381.887 286.932 383.933C285.436 385.96 283.343 387.551 280.653 388.706C277.982 389.862 274.885 390.439 271.362 390.439C266.475 390.439 262.488 389.398 259.401 387.314C256.314 385.212 254.419 382.228 253.719 378.364L261.93 377.114C262.441 379.255 263.492 380.874 265.083 381.973C266.674 383.052 268.748 383.592 271.306 383.592C274.09 383.592 276.315 383.014 277.982 381.859C279.649 380.685 280.483 379.255 280.483 377.569C280.483 376.205 279.971 375.059 278.948 374.131C277.944 373.203 276.401 372.502 274.317 372.028L266.93 370.409C262.858 369.481 259.846 368.003 257.895 365.977C255.963 363.95 254.997 361.383 254.997 358.277C254.997 355.701 255.717 353.447 257.156 351.515C258.596 349.583 260.585 348.077 263.123 346.998C265.661 345.899 268.569 345.35 271.845 345.35C276.562 345.35 280.274 346.373 282.983 348.418C285.691 350.445 287.481 353.163 288.353 356.572ZM303.158 374.756L303.102 364.386H304.579L321.967 345.918H332.138L312.307 366.943H310.972L303.158 374.756ZM295.345 389.559V331.371H303.84V389.559H295.345ZM322.905 389.559L307.278 368.818L313.131 362.88L333.332 389.559H322.905ZM336.68 389.559V345.918H345.176V389.559H336.68ZM340.971 339.184C339.493 339.184 338.224 338.692 337.163 337.707C336.122 336.703 335.601 335.51 335.601 334.127C335.601 332.725 336.122 331.532 337.163 330.547C338.224 329.543 339.493 329.041 340.971 329.041C342.448 329.041 343.708 329.543 344.749 330.547C345.81 331.532 346.34 332.725 346.34 334.127C346.34 335.51 345.81 336.703 344.749 337.707C343.708 338.692 342.448 339.184 340.971 339.184ZM361.899 331.371V389.559H353.404V331.371H361.899ZM378.623 331.371V389.559H370.127V331.371H378.623ZM419.553 356.572L411.853 357.936C411.531 356.951 411.02 356.014 410.319 355.123C409.637 354.233 408.709 353.504 407.535 352.936C406.36 352.367 404.893 352.083 403.131 352.083C400.725 352.083 398.718 352.623 397.108 353.703C395.498 354.763 394.693 356.137 394.693 357.823C394.693 359.281 395.232 360.455 396.312 361.346C397.392 362.236 399.134 362.965 401.54 363.533L408.472 365.124C412.488 366.052 415.481 367.483 417.451 369.415C419.42 371.347 420.405 373.856 420.405 376.944C420.405 379.558 419.648 381.887 418.132 383.933C416.636 385.96 414.543 387.551 411.853 388.706C409.183 389.862 406.086 390.439 402.563 390.439C397.676 390.439 393.689 389.398 390.601 387.314C387.514 385.212 385.62 382.228 384.919 378.364L393.13 377.114C393.641 379.255 394.693 380.874 396.284 381.973C397.875 383.052 399.949 383.592 402.506 383.592C405.29 383.592 407.516 383.014 409.183 381.859C410.85 380.685 411.683 379.255 411.683 377.569C411.683 376.205 411.172 375.059 410.149 374.131C409.145 373.203 407.601 372.502 405.518 372.028L398.131 370.409C394.058 369.481 391.046 368.003 389.096 365.977C387.164 363.95 386.198 361.383 386.198 358.277C386.198 355.701 386.917 353.447 388.357 351.515C389.796 349.583 391.785 348.077 394.323 346.998C396.861 345.899 399.769 345.35 403.046 345.35C407.762 345.35 411.475 346.373 414.183 348.418C416.892 350.445 418.682 353.163 419.553 356.572Z" fill="black"/>
</svg>
