<svg width="505" height="592" viewBox="0 0 505 592" fill="none" xmlns="http://www.w3.org/2000/svg">
<rect y="54.6445" width="436.923" height="569.42" rx="218.462" transform="rotate(-7.18429 0 54.6445)" fill="#ADCDC0"/>
<path d="M98.5823 230.76L104.954 281.313L97.3272 282.274L90.9551 231.722L98.5823 230.76ZM155.033 223.645L162.685 222.68L166.876 255.929C167.322 259.467 166.886 262.707 165.569 265.648C164.249 268.573 162.182 271.006 159.367 272.949C156.551 274.876 153.119 276.094 149.071 276.604C145.039 277.113 141.42 276.783 138.214 275.616C135.005 274.432 132.399 272.587 130.394 270.082C128.388 267.559 127.162 264.529 126.716 260.991L122.525 227.742L130.152 226.781L134.265 259.413C134.554 261.7 135.312 263.669 136.54 265.32C137.784 266.969 139.4 268.186 141.388 268.972C143.374 269.741 145.643 269.965 148.193 269.644C150.76 269.32 152.91 268.539 154.643 267.301C156.391 266.044 157.646 264.465 158.409 262.563C159.189 260.659 159.435 258.564 159.147 256.277L155.033 223.645ZM181.317 248.818L184.154 271.329L176.774 272.26L171.995 234.346L179.079 233.453L179.857 239.624L180.326 239.564C180.945 237.447 182.107 235.662 183.813 234.21C185.536 232.756 187.821 231.849 190.667 231.49C193.251 231.165 195.582 231.423 197.661 232.264C199.737 233.089 201.444 234.495 202.781 236.483C204.119 238.471 204.984 241.028 205.378 244.155L208.418 268.271L201.038 269.201L198.11 245.974C197.764 243.226 196.777 241.168 195.15 239.802C193.522 238.419 191.457 237.885 188.955 238.201C187.244 238.417 185.769 238.979 184.529 239.887C183.306 240.794 182.398 242.011 181.805 243.541C181.226 245.051 181.064 246.81 181.317 248.818ZM216.544 215.891L222.917 266.443L215.536 267.374L209.164 216.821L216.544 215.891ZM246.132 264.294C242.578 264.743 239.373 264.319 236.518 263.024C233.663 261.729 231.319 259.709 229.485 256.964C227.652 254.22 226.488 250.889 225.994 246.973C225.498 243.04 225.797 239.508 226.891 236.378C227.984 233.248 229.752 230.701 232.196 228.738C234.641 226.775 237.64 225.569 241.194 225.121C244.749 224.673 247.953 225.097 250.808 226.392C253.663 227.687 256.008 229.715 257.844 232.476C259.68 235.237 260.846 238.584 261.341 242.517C261.835 246.434 261.534 249.949 260.439 253.063C259.343 256.176 257.574 258.715 255.13 260.678C252.686 262.641 249.686 263.846 246.132 264.294ZM245.376 258.096C247.68 257.805 249.512 256.956 250.872 255.547C252.233 254.139 253.147 252.377 253.616 250.261C254.102 248.144 254.191 245.868 253.884 243.432C253.579 241.013 252.929 238.838 251.933 236.908C250.952 234.958 249.626 233.462 247.957 232.419C246.287 231.375 244.301 230.999 241.997 231.289C239.676 231.582 237.829 232.441 236.454 233.869C235.096 235.294 234.175 237.073 233.692 239.207C233.223 241.322 233.141 243.589 233.446 246.008C233.753 248.444 234.396 250.628 235.375 252.561C236.371 254.491 237.702 255.97 239.37 256.997C241.053 258.022 243.055 258.388 245.376 258.096ZM285.234 259.366C281.564 259.828 278.3 259.395 275.441 258.067C272.596 256.721 270.281 254.664 268.494 251.897C266.708 249.129 265.575 245.845 265.096 242.044C264.611 238.193 264.906 234.704 265.983 231.576C267.058 228.431 268.807 225.862 271.23 223.868C273.654 221.874 276.651 220.652 280.222 220.202C283.102 219.839 285.736 220.05 288.125 220.836C290.513 221.605 292.518 222.856 294.141 224.591C295.78 226.324 296.892 228.449 297.477 230.966L290.294 231.872C289.675 230.144 288.577 228.728 287 227.623C285.439 226.515 283.483 226.11 281.129 226.407C279.072 226.666 277.339 227.436 275.929 228.717C274.533 229.98 273.533 231.66 272.929 233.76C272.322 235.842 272.189 238.233 272.529 240.931C272.877 243.696 273.598 246.029 274.69 247.931C275.782 249.833 277.163 251.239 278.832 252.148C280.518 253.056 282.406 253.378 284.496 253.114C285.895 252.938 287.13 252.523 288.201 251.87C289.286 251.198 290.155 250.328 290.806 249.26C291.473 248.189 291.877 246.952 292.018 245.546L299.201 244.641C299.246 247.126 298.724 249.415 297.634 251.509C296.544 253.602 294.949 255.341 292.85 256.726C290.767 258.108 288.229 258.988 285.234 259.366ZM310.992 242.277L309.807 233.274L311.09 233.112L324.175 215.163L333.011 214.049L318.084 234.487L316.924 234.633L310.992 242.277ZM305.825 255.993L299.453 205.44L306.833 204.51L313.205 255.062L305.825 255.993ZM329.768 252.975L313.921 236.667L318.355 230.867L338.827 251.833L329.768 252.975ZM356.612 250.368C352.877 250.839 349.559 250.447 346.659 249.191C343.773 247.916 341.415 245.915 339.583 243.187C337.766 240.44 336.609 237.1 336.114 233.167C335.624 229.284 335.917 225.77 336.991 222.625C338.083 219.478 339.832 216.909 342.239 214.917C344.662 212.923 347.635 211.705 351.156 211.261C353.295 210.991 355.413 211.083 357.51 211.538C359.607 211.992 361.549 212.876 363.336 214.189C365.123 215.502 366.63 217.309 367.856 219.612C369.081 221.899 369.909 224.761 370.343 228.201L370.673 230.817L340.534 234.616L339.837 229.087L362.744 226.2C362.499 224.258 361.887 222.588 360.908 221.19C359.928 219.776 358.667 218.723 357.125 218.031C355.6 217.337 353.883 217.111 351.974 217.351C349.901 217.613 348.155 218.351 346.736 219.566C345.333 220.763 344.314 222.229 343.68 223.964C343.06 225.68 342.87 227.484 343.108 229.377L343.653 233.696C343.972 236.231 344.688 238.33 345.801 239.996C346.93 241.659 348.36 242.858 350.091 243.592C351.82 244.311 353.762 244.534 355.918 244.262C357.316 244.086 358.567 243.728 359.669 243.187C360.769 242.631 361.688 241.896 362.426 240.984C363.163 240.072 363.679 238.996 363.974 237.755L371.119 238.133C370.818 240.261 370.042 242.189 368.789 243.919C367.55 245.629 365.898 247.05 363.834 248.179C361.784 249.29 359.377 250.02 356.612 250.368ZM392.477 245.822C389.416 246.208 386.586 245.771 383.987 244.51C381.401 243.231 379.242 241.222 377.509 238.481C375.791 235.722 374.673 232.294 374.157 228.196C373.64 224.099 373.881 220.508 374.88 217.423C375.895 214.336 377.507 211.868 379.714 210.018C381.922 208.168 384.548 207.052 387.592 206.668C389.945 206.371 391.887 206.528 393.419 207.137C394.964 207.728 396.197 208.492 397.118 209.429C398.055 210.364 398.795 211.199 399.339 211.933L399.783 211.877L397.416 193.092L404.796 192.162L411.168 242.714L403.961 243.623L403.217 237.723L402.6 237.801C402.257 238.663 401.732 239.666 401.023 240.808C400.331 241.949 399.31 242.997 397.959 243.953C396.608 244.909 394.781 245.532 392.477 245.822ZM393.313 239.323C395.436 239.055 397.159 238.27 398.482 236.966C399.82 235.644 400.741 233.931 401.245 231.828C401.766 229.723 401.858 227.338 401.522 224.672C401.19 222.039 400.521 219.783 399.515 217.903C398.509 216.024 397.204 214.626 395.601 213.708C393.997 212.79 392.118 212.467 389.962 212.738C387.74 213.018 385.962 213.828 384.626 215.166C383.29 216.505 382.369 218.217 381.863 220.304C381.374 222.389 381.287 224.681 381.602 227.183C381.921 229.717 382.587 231.948 383.599 233.877C384.611 235.806 385.933 237.269 387.563 238.267C389.208 239.247 391.124 239.599 393.313 239.323ZM106.239 357.752L101.46 319.838L108.545 318.945L109.322 325.116L109.791 325.057C110.318 322.867 111.404 321.075 113.051 319.681C114.695 318.27 116.768 317.407 119.269 317.092C121.803 316.772 124.001 317.097 125.862 318.066C127.739 319.033 129.219 320.501 130.304 322.471L130.699 322.421C131.348 320.283 132.585 318.489 134.408 317.039C136.23 315.572 138.506 314.667 141.238 314.322C144.677 313.889 147.619 314.613 150.062 316.495C152.523 318.375 154.027 321.487 154.574 325.831L157.779 351.255L150.399 352.186L147.281 327.453C146.957 324.886 146.024 323.114 144.48 322.139C142.936 321.163 141.193 320.798 139.251 321.042C136.849 321.345 135.074 322.321 133.928 323.97C132.78 325.603 132.351 327.571 132.641 329.875L135.687 354.04L128.331 354.967L125.155 329.765C124.895 327.708 124.045 326.135 122.604 325.047C121.163 323.958 119.414 323.543 117.357 323.802C115.958 323.979 114.713 324.512 113.621 325.401C112.544 326.273 111.726 327.404 111.165 328.795C110.622 330.185 110.458 331.735 110.673 333.446L113.62 356.822L106.239 357.752ZM169.991 364.16C168.888 364.299 167.873 364.335 166.945 364.268C166.019 364.218 165.322 364.122 164.852 363.98L165.867 357.709C167.262 357.901 168.483 357.905 169.53 357.723C170.577 357.541 171.457 357.029 172.17 356.187C172.9 355.343 173.471 354.042 173.885 352.285L174.481 349.652L155.767 312.992L163.666 311.997L176.977 340.209L177.372 340.16L183.265 309.526L191.188 308.528L180.981 353.471C180.505 355.537 179.794 357.324 178.848 358.831C177.903 360.354 176.701 361.559 175.241 362.445C173.781 363.331 172.031 363.903 169.991 364.16ZM131.811 431.908C128.141 432.37 124.877 431.937 122.018 430.609C119.174 429.263 116.858 427.206 115.072 424.439C113.285 421.671 112.152 418.387 111.673 414.586C111.188 410.735 111.484 407.246 112.56 404.118C113.635 400.973 115.384 398.404 117.808 396.41C120.231 394.416 123.228 393.194 126.799 392.744C129.679 392.381 132.313 392.592 134.703 393.377C137.09 394.146 139.095 395.398 140.718 397.133C142.357 398.865 143.469 400.99 144.054 403.508L136.871 404.413C136.252 402.686 135.154 401.27 133.577 400.164C132.017 399.057 130.06 398.652 127.707 398.949C125.65 399.208 123.916 399.978 122.506 401.259C121.111 402.522 120.11 404.202 119.506 406.301C118.899 408.384 118.766 410.775 119.106 413.473C119.454 416.238 120.175 418.571 121.267 420.473C122.359 422.375 123.74 423.78 125.41 424.69C127.095 425.598 128.983 425.92 131.073 425.656C132.472 425.48 133.707 425.065 134.778 424.412C135.863 423.74 136.732 422.87 137.383 421.802C138.05 420.731 138.454 419.493 138.595 418.088L145.778 417.183C145.824 419.668 145.301 421.957 144.211 424.05C143.121 426.144 141.526 427.883 139.427 429.267C137.345 430.65 134.806 431.53 131.811 431.908ZM152.402 428.535L147.623 390.62L154.757 389.721L155.516 395.744L155.911 395.694C156.345 393.567 157.36 391.809 158.957 390.42C160.569 389.014 162.485 388.17 164.707 387.89C165.167 387.832 165.713 387.78 166.342 387.734C166.988 387.686 167.495 387.664 167.863 387.668L168.753 394.727C168.447 394.683 167.909 394.658 167.139 394.655C166.368 394.635 165.603 394.673 164.846 394.769C163.102 394.988 161.594 395.555 160.321 396.467C159.063 397.361 158.121 398.508 157.495 399.908C156.867 401.291 156.657 402.805 156.864 404.451L159.783 427.604L152.402 428.535ZM191.378 424.399C187.643 424.87 184.325 424.477 181.425 423.221C178.539 421.947 176.181 419.945 174.349 417.217C172.532 414.471 171.375 411.131 170.88 407.198C170.39 403.314 170.683 399.8 171.757 396.656C172.849 393.509 174.598 390.94 177.005 388.948C179.428 386.954 182.401 385.735 185.922 385.291C188.061 385.022 190.179 385.114 192.276 385.569C194.373 386.023 196.315 386.907 198.102 388.22C199.889 389.532 201.396 391.34 202.622 393.643C203.847 395.929 204.675 398.792 205.109 402.231L205.439 404.848L175.3 408.647L174.603 403.118L197.51 400.23C197.265 398.289 196.653 396.619 195.674 395.221C194.694 393.806 193.433 392.753 191.891 392.062C190.366 391.368 188.649 391.141 186.74 391.382C184.667 391.643 182.921 392.382 181.502 393.597C180.099 394.794 179.08 396.259 178.446 397.994C177.826 399.711 177.636 401.515 177.874 403.407L178.419 407.727C178.738 410.261 179.454 412.361 180.567 414.026C181.696 415.689 183.126 416.888 184.857 417.623C186.586 418.341 188.528 418.565 190.684 418.293C192.082 418.116 193.333 417.758 194.435 417.218C195.535 416.662 196.454 415.927 197.192 415.015C197.929 414.103 198.445 413.026 198.74 411.786L205.885 412.164C205.584 414.291 204.808 416.22 203.555 417.949C202.316 419.66 200.664 421.08 198.6 422.21C196.55 423.321 194.143 424.051 191.378 424.399ZM224.096 420.35C221.694 420.653 219.465 420.482 217.412 419.839C215.356 419.178 213.652 418.064 212.301 416.496C210.966 414.925 210.142 412.898 209.829 410.413C209.56 408.274 209.749 406.461 210.398 404.975C211.046 403.489 212.019 402.255 213.316 401.272C214.613 400.289 216.1 399.484 217.776 398.854C219.452 398.225 221.173 397.691 222.94 397.251C225.178 396.701 226.994 396.255 228.388 395.912C229.78 395.552 230.773 395.135 231.365 394.659C231.957 394.183 232.197 393.501 232.085 392.612L232.063 392.439C231.791 390.284 230.972 388.69 229.605 387.659C228.254 386.626 226.386 386.259 224 386.56C221.515 386.873 219.626 387.671 218.333 388.954C217.055 390.219 216.228 391.552 215.853 392.953L208.718 392.248C209.25 389.84 210.217 387.829 211.619 386.215C213.034 384.582 214.739 383.314 216.731 382.411C218.722 381.491 220.86 380.887 223.148 380.599C224.662 380.408 226.289 380.387 228.03 380.535C229.785 380.665 231.462 381.106 233.061 381.857C234.677 382.606 236.072 383.793 237.246 385.417C238.418 387.024 239.179 389.21 239.527 391.975L242.701 417.152L235.493 418.061L234.84 412.877L234.543 412.915C234.187 413.929 233.589 414.958 232.751 415.999C231.912 417.041 230.783 417.961 229.362 418.759C227.941 419.556 226.186 420.087 224.096 420.35ZM224.954 414.224C226.994 413.967 228.688 413.344 230.034 412.355C231.397 411.364 232.375 410.171 232.968 408.775C233.576 407.361 233.785 405.905 233.597 404.408L232.98 399.521C232.75 399.817 232.271 400.128 231.543 400.454C230.83 400.761 230.006 401.057 229.073 401.342C228.137 401.611 227.225 401.868 226.336 402.113C225.446 402.343 224.701 402.537 224.103 402.696C222.694 403.057 221.424 403.527 220.293 404.104C219.179 404.679 218.318 405.414 217.712 406.31C217.121 407.187 216.908 408.284 217.074 409.6C217.304 411.427 218.153 412.724 219.621 413.492C221.086 414.243 222.864 414.487 224.954 414.224ZM262.67 376.119L263.416 382.043L242.707 384.653L241.96 378.729L262.67 376.119ZM246.369 368.945L253.749 368.015L258.27 403.881C258.451 405.312 258.8 406.363 259.32 407.033C259.837 407.687 260.449 408.103 261.157 408.281C261.879 408.441 262.644 408.47 263.45 408.368C264.042 408.294 264.555 408.187 264.989 408.049C265.423 407.911 265.761 407.801 266.001 407.721L268.103 413.65C267.696 413.868 267.107 414.109 266.338 414.373C265.571 414.654 264.596 414.877 263.414 415.043C261.476 415.321 259.622 415.203 257.852 414.691C256.083 414.178 254.584 413.231 253.356 411.847C252.129 410.464 251.371 408.629 251.083 406.341L246.369 368.945ZM272.833 413.354L268.053 375.44L275.434 374.51L280.213 412.424L272.833 413.354ZM271.043 369.12C269.76 369.282 268.603 368.993 267.574 368.254C266.559 367.496 265.976 366.516 265.824 365.315C265.671 364.097 265.993 363.003 266.79 362.033C267.601 361.045 268.649 360.47 269.933 360.308C271.216 360.146 272.365 360.444 273.38 361.203C274.41 361.942 275.001 362.921 275.155 364.138C275.306 365.34 274.976 366.435 274.164 367.423C273.367 368.393 272.327 368.958 271.043 369.12ZM315.017 369.52L306.047 409.168L298.148 410.163L279.596 373.985L287.519 372.986L300.799 400.952L301.194 400.902L307.094 370.519L315.017 369.52ZM323.952 406.911L319.173 368.996L326.553 368.066L331.332 405.98L323.952 406.911ZM322.163 362.677C320.879 362.838 319.723 362.549 318.693 361.81C317.678 361.052 317.095 360.072 316.944 358.871C316.79 357.653 317.112 356.559 317.909 355.59C318.721 354.601 319.768 354.026 321.052 353.864C322.335 353.703 323.485 354.001 324.5 354.759C325.529 355.498 326.12 356.477 326.274 357.695C326.425 358.896 326.095 359.991 325.284 360.979C324.487 361.949 323.446 362.515 322.163 362.677ZM351.4 364.934L352.147 370.858L331.437 373.469L330.69 367.545L351.4 364.934ZM335.099 357.761L342.48 356.831L347.001 392.696C347.181 394.128 347.531 395.179 348.05 395.849C348.567 396.502 349.179 396.918 349.887 397.097C350.61 397.256 351.374 397.285 352.18 397.184C352.773 397.109 353.286 397.003 353.72 396.864C354.154 396.726 354.491 396.617 354.732 396.536L356.833 402.465C356.426 402.684 355.838 402.925 355.069 403.189C354.302 403.47 353.327 403.693 352.144 403.859C350.206 404.136 348.353 404.019 346.583 403.506C344.813 402.994 343.314 402.046 342.087 400.663C340.859 399.279 340.101 397.444 339.813 395.157L335.099 357.761ZM368.02 415.8C366.918 415.938 365.903 415.975 364.975 415.908C364.049 415.857 363.351 415.761 362.882 415.62L363.897 409.348C365.292 409.54 366.513 409.545 367.56 409.363C368.607 409.181 369.487 408.669 370.2 407.826C370.929 406.982 371.501 405.681 371.915 403.924L372.511 401.291L353.797 364.632L361.696 363.636L375.007 391.849L375.402 391.799L381.295 361.166L389.218 360.167L379.01 405.111C378.535 407.177 377.824 408.963 376.877 410.47C375.933 411.994 374.73 413.198 373.271 414.085C371.811 414.971 370.061 415.542 368.02 415.8Z" fill="black"/>
</svg>
