<svg width="644" height="338" viewBox="0 0 644 338" fill="none" xmlns="http://www.w3.org/2000/svg">
<rect x="-7.47656" y="60.0312" width="626.706" height="286.072" rx="19.3097" transform="rotate(-5.49647 -7.47656 60.0312)" fill="#B5B7AA"/>
<path d="M56.4143 182.339L51.7053 133.387L69.1541 131.709C72.9466 131.344 76.1566 131.694 78.7841 132.76C81.4275 133.825 83.4818 135.452 84.947 137.643C86.4106 139.819 87.2873 142.412 87.577 145.424C87.8652 148.419 87.4895 151.117 86.4498 153.517C85.4245 155.899 83.7136 157.841 81.317 159.342C78.9363 160.842 75.8497 161.774 72.0572 162.139L58.8392 163.41L58.2276 157.052L70.7763 155.845C73.1666 155.615 75.0777 155.085 76.5096 154.256C77.9575 153.425 78.9692 152.323 79.5446 150.949C80.1201 149.575 80.3197 147.971 80.1434 146.139C79.9656 144.29 79.453 142.723 78.6056 141.438C77.7742 140.151 76.5671 139.222 74.9843 138.65C73.4159 138.061 71.4127 137.884 68.9746 138.119L59.7005 139.011L63.8002 181.629L56.4143 182.339ZM78.4551 157.929L92.6742 178.851L84.2606 179.66L70.2805 158.715L78.4551 157.929ZM111.966 177.743C108.348 178.091 105.159 177.618 102.397 176.324C99.6492 175.012 97.4306 173.014 95.7411 170.33C94.0659 167.628 93.0452 164.373 92.6789 160.565C92.3171 156.804 92.6994 153.422 93.8257 150.419C94.968 147.414 96.7286 144.986 99.1074 143.132C101.502 141.278 104.405 140.186 107.815 139.858C109.886 139.659 111.927 139.809 113.937 140.307C115.947 140.805 117.795 141.713 119.482 143.03C121.169 144.347 122.571 146.134 123.689 148.391C124.805 150.631 125.523 153.417 125.843 156.747L126.087 159.281L96.9023 162.089L96.3873 156.734L118.569 154.601C118.388 152.72 117.845 151.092 116.941 149.715C116.035 148.323 114.848 147.271 113.381 146.56C111.929 145.847 110.279 145.58 108.43 145.758C106.423 145.951 104.717 146.613 103.314 147.745C101.926 148.86 100.901 150.245 100.24 151.901C99.5939 153.539 99.3588 155.275 99.535 157.107L99.9374 161.29C100.173 163.744 100.805 165.79 101.831 167.428C102.873 169.065 104.218 170.262 105.867 171.02C107.514 171.762 109.382 172.033 111.469 171.832C112.824 171.702 114.04 171.392 115.119 170.902C116.196 170.397 117.104 169.714 117.841 168.855C118.579 167.996 119.107 166.972 119.427 165.784L126.309 166.352C125.959 168.396 125.155 170.234 123.896 171.867C122.653 173.482 121.019 174.806 118.995 175.837C116.986 176.85 114.643 177.486 111.966 177.743ZM143.646 174.768C141.319 174.992 139.175 174.764 137.211 174.084C135.247 173.389 133.635 172.265 132.376 170.714C131.133 169.161 130.396 167.181 130.164 164.775C129.965 162.703 130.199 160.96 130.867 159.545C131.535 158.13 132.509 156.967 133.788 156.055C135.068 155.144 136.525 154.409 138.16 153.85C139.795 153.291 141.471 152.824 143.188 152.45C145.362 151.983 147.127 151.604 148.482 151.313C149.835 151.006 150.804 150.631 151.389 150.189C151.974 149.747 152.225 149.095 152.142 148.235L152.126 148.068C151.925 145.98 151.18 144.419 149.89 143.386C148.617 142.35 146.825 141.944 144.514 142.166C142.108 142.397 140.263 143.114 138.979 144.315C137.71 145.498 136.875 146.761 136.473 148.102L129.609 147.218C130.191 144.911 131.181 142.998 132.579 141.481C133.992 139.946 135.672 138.771 137.62 137.956C139.566 137.126 141.647 136.604 143.862 136.391C145.328 136.25 146.899 136.276 148.574 136.468C150.263 136.643 151.869 137.116 153.39 137.887C154.927 138.655 156.24 139.84 157.326 141.44C158.411 143.024 159.083 145.155 159.34 147.832L161.686 172.212L154.706 172.884L154.223 167.864L153.936 167.892C153.563 168.861 152.957 169.836 152.119 170.817C151.281 171.798 150.165 172.653 148.771 173.382C147.378 174.111 145.67 174.573 143.646 174.768ZM144.648 168.882C146.624 168.692 148.275 168.139 149.602 167.223C150.945 166.306 151.923 165.183 152.535 163.853C153.161 162.507 153.404 161.108 153.265 159.658L152.81 154.925C152.579 155.205 152.108 155.491 151.397 155.785C150.7 156.061 149.897 156.323 148.988 156.572C148.077 156.804 147.19 157.026 146.326 157.238C145.46 157.434 144.736 157.6 144.154 157.736C142.785 158.045 141.546 158.461 140.439 158.986C139.347 159.509 138.497 160.194 137.887 161.041C137.291 161.87 137.054 162.922 137.177 164.197C137.347 165.966 138.129 167.241 139.523 168.024C140.916 168.791 142.624 169.077 144.648 168.882ZM184.048 170.809C180.495 171.151 177.358 170.64 174.638 169.278C171.932 167.898 169.756 165.847 168.112 163.127C166.467 160.406 165.467 157.206 165.113 153.525C164.755 149.796 165.139 146.438 166.267 143.451C167.393 140.447 169.154 138.019 171.549 136.164C173.944 134.309 176.87 133.215 180.328 132.883C183.116 132.615 185.652 132.893 187.935 133.719C190.216 134.529 192.115 135.794 193.631 137.513C195.163 139.232 196.176 141.313 196.668 143.759L189.713 144.428C189.165 142.744 188.146 141.346 186.656 140.235C185.182 139.122 183.305 138.676 181.027 138.895C179.035 139.086 177.341 139.78 175.944 140.976C174.562 142.154 173.549 143.747 172.906 145.755C172.261 147.747 172.064 150.05 172.316 152.663C172.573 155.34 173.202 157.611 174.202 159.477C175.201 161.343 176.493 162.739 178.078 163.664C179.679 164.587 181.491 164.952 183.515 164.757C184.869 164.627 186.072 164.262 187.124 163.662C188.191 163.045 189.053 162.23 189.712 161.218C190.386 160.204 190.811 159.021 190.987 157.67L197.942 157.001C197.916 159.399 197.347 161.593 196.235 163.582C195.124 165.57 193.536 167.203 191.471 168.479C189.423 169.753 186.949 170.53 184.048 170.809ZM209.06 145.655L211.157 167.453L204.01 168.141L199.301 119.189L206.352 118.511L208.104 136.724L208.558 136.681C209.229 134.622 210.392 132.926 212.049 131.592C213.706 130.259 215.961 129.455 218.813 129.181C221.331 128.939 223.58 129.245 225.56 130.1C227.556 130.953 229.17 132.358 230.404 134.314C231.652 136.252 232.423 138.751 232.717 141.811L234.964 165.163L227.817 165.851L225.653 143.359C225.394 140.666 224.5 138.645 222.971 137.296C221.441 135.932 219.441 135.368 216.971 135.606C215.282 135.768 213.802 136.273 212.533 137.118C211.279 137.963 210.337 139.115 209.705 140.575C209.088 142.017 208.873 143.71 209.06 145.655ZM267.692 162.835C265.365 163.059 263.22 162.831 261.257 162.152C259.293 161.456 257.681 160.332 256.422 158.781C255.179 157.228 254.442 155.248 254.21 152.842C254.011 150.771 254.245 149.027 254.913 147.612C255.581 146.197 256.555 145.034 257.834 144.123C259.114 143.212 260.571 142.476 262.206 141.917C263.84 141.358 265.516 140.891 267.233 140.517C269.408 140.05 271.173 139.671 272.528 139.38C273.881 139.073 274.85 138.698 275.435 138.256C276.02 137.814 276.271 137.163 276.188 136.302L276.172 136.135C275.971 134.047 275.226 132.487 273.936 131.453C272.663 130.417 270.871 130.011 268.56 130.233C266.154 130.465 264.309 131.181 263.025 132.382C261.756 133.565 260.921 134.828 260.519 136.169L253.655 135.285C254.237 132.978 255.227 131.065 256.625 129.548C258.038 128.013 259.718 126.838 261.666 126.023C263.612 125.193 265.693 124.671 267.908 124.458C269.374 124.317 270.944 124.343 272.62 124.535C274.309 124.711 275.914 125.183 277.436 125.954C278.973 126.723 280.285 127.907 281.372 129.507C282.457 131.092 283.129 133.222 283.386 135.899L285.731 160.28L278.752 160.951L278.269 155.932L277.982 155.959C277.609 156.928 277.003 157.903 276.165 158.884C275.327 159.865 274.211 160.721 272.817 161.45C271.424 162.179 269.715 162.641 267.692 162.835ZM268.693 156.949C270.669 156.759 272.321 156.206 273.648 155.291C274.991 154.373 275.969 153.25 276.581 151.921C277.207 150.574 277.45 149.175 277.311 147.725L276.856 142.993C276.625 143.272 276.154 143.559 275.443 143.852C274.745 144.128 273.942 144.391 273.034 144.639C272.123 144.871 271.236 145.093 270.372 145.305C269.506 145.501 268.782 145.667 268.2 145.803C266.831 146.112 265.592 146.529 264.485 147.053C263.393 147.576 262.543 148.261 261.932 149.108C261.337 149.937 261.1 150.989 261.223 152.264C261.393 154.033 262.175 155.309 263.569 156.091C264.962 156.858 266.67 157.144 268.693 156.949ZM321.492 157.563C318.528 157.848 315.81 157.346 313.338 156.056C310.88 154.749 308.854 152.748 307.26 150.055C305.681 147.344 304.7 144.005 304.319 140.037C303.937 136.069 304.272 132.612 305.323 129.664C306.39 126.715 308.015 124.379 310.198 122.658C312.38 120.936 314.945 119.933 317.893 119.65C320.172 119.43 322.041 119.637 323.501 120.268C324.975 120.882 326.143 121.654 327.005 122.585C327.882 123.513 328.573 124.34 329.076 125.063L329.507 125.022L327.757 106.832L334.904 106.144L339.613 155.097L332.633 155.768L332.084 150.055L331.486 150.113C331.131 150.935 330.595 151.887 329.879 152.969C329.179 154.05 328.164 155.032 326.834 155.916C325.503 156.8 323.723 157.349 321.492 157.563ZM322.483 151.317C324.539 151.119 326.224 150.41 327.538 149.19C328.866 147.952 329.803 146.326 330.349 144.312C330.911 142.296 331.068 139.997 330.82 137.415C330.574 134.866 329.993 132.67 329.076 130.829C328.159 128.987 326.94 127.6 325.419 126.669C323.899 125.738 322.094 125.373 320.007 125.574C317.856 125.781 316.117 126.511 314.79 127.764C313.463 129.018 312.526 130.644 311.978 132.642C311.447 134.639 311.297 136.849 311.53 139.271C311.766 141.725 312.345 143.897 313.267 145.786C314.188 147.676 315.421 149.125 316.966 150.134C318.525 151.126 320.364 151.52 322.483 151.317ZM363.015 153.593C359.398 153.941 356.208 153.468 353.446 152.174C350.699 150.862 348.48 148.864 346.791 146.18C345.116 143.478 344.095 140.223 343.729 136.415C343.367 132.654 343.749 129.272 344.875 126.269C346.018 123.264 347.778 120.836 350.157 118.982C352.552 117.128 355.454 116.036 358.864 115.708C360.936 115.509 362.977 115.659 364.987 116.157C366.997 116.655 368.845 117.563 370.532 118.88C372.218 120.197 373.621 121.984 374.738 124.241C375.854 126.482 376.573 129.267 376.893 132.597L377.137 135.131L347.952 137.939L347.437 132.584L369.618 130.451C369.437 128.57 368.895 126.942 367.99 125.565C367.085 124.173 365.898 123.121 364.43 122.41C362.979 121.697 361.329 121.43 359.48 121.608C357.472 121.801 355.767 122.463 354.364 123.595C352.976 124.71 351.951 126.095 351.29 127.751C350.644 129.389 350.408 131.125 350.585 132.957L350.987 137.14C351.223 139.594 351.854 141.64 352.88 143.278C353.922 144.915 355.268 146.112 356.917 146.87C358.564 147.612 360.432 147.883 362.519 147.682C363.874 147.552 365.09 147.242 366.169 146.752C367.246 146.247 368.153 145.564 368.891 144.705C369.628 143.846 370.157 142.822 370.477 141.634L377.359 142.202C377.008 144.246 376.204 146.084 374.946 147.717C373.702 149.332 372.069 150.656 370.045 151.687C368.036 152.7 365.692 153.336 363.015 153.593ZM399.828 150.052C396.21 150.4 393.021 149.927 390.259 148.632C387.511 147.321 385.293 145.323 383.603 142.639C381.928 139.937 380.907 136.682 380.541 132.874C380.179 129.113 380.561 125.731 381.688 122.728C382.83 119.723 384.591 117.294 386.969 115.441C389.364 113.587 392.267 112.495 395.677 112.167C397.748 111.968 399.789 112.117 401.799 112.616C403.809 113.114 405.657 114.021 407.344 115.339C409.031 116.656 410.433 118.443 411.551 120.7C412.667 122.94 413.385 125.726 413.705 129.056L413.949 131.59L384.764 134.397L384.249 129.043L406.431 126.909C406.25 125.029 405.707 123.401 404.803 122.024C403.897 120.632 402.71 119.58 401.242 118.869C399.791 118.156 398.141 117.889 396.292 118.066C394.285 118.26 392.579 118.922 391.176 120.054C389.788 121.169 388.763 122.554 388.102 124.21C387.456 125.848 387.221 127.583 387.397 129.416L387.799 133.599C388.035 136.053 388.666 138.099 389.692 139.737C390.734 141.374 392.08 142.571 393.729 143.329C395.376 144.071 397.244 144.342 399.331 144.141C400.686 144.011 401.902 143.701 402.981 143.211C404.058 142.705 404.966 142.023 405.703 141.164C406.441 140.305 406.969 139.281 407.289 138.093L414.171 138.661C413.821 140.705 413.017 142.543 411.758 144.176C410.515 145.791 408.881 147.114 406.857 148.145C404.848 149.159 402.505 149.794 399.828 150.052ZM422.07 161.06L417.213 110.578L424.193 109.906L424.765 115.858L425.363 115.801C425.704 114.996 426.216 114.054 426.9 112.975C427.585 111.896 428.584 110.915 429.898 110.033C431.211 109.135 433.007 108.576 435.285 108.357C438.249 108.072 440.967 108.566 443.437 109.84C445.908 111.114 447.94 113.098 449.534 115.791C451.144 118.483 452.14 121.813 452.521 125.781C452.903 129.748 452.569 133.214 451.519 136.178C450.468 139.125 448.861 141.475 446.697 143.227C444.532 144.963 441.968 145.974 439.004 146.259C436.773 146.474 434.912 146.275 433.422 145.662C431.948 145.048 430.764 144.278 429.871 143.35C428.977 142.423 428.278 141.59 427.773 140.85L427.342 140.892L429.216 160.372L422.07 161.06ZM425.983 128.261C426.231 130.843 426.823 133.069 427.759 134.941C428.695 136.813 429.925 138.231 431.449 139.194C432.971 140.141 434.76 140.516 436.816 140.318C438.951 140.113 440.682 139.375 442.007 138.106C443.331 136.821 444.265 135.163 444.809 133.132C445.37 131.1 445.532 128.857 445.296 126.403C445.063 123.981 444.487 121.841 443.569 119.984C442.666 118.125 441.436 116.707 439.879 115.731C438.337 114.754 436.491 114.368 434.34 114.575C432.268 114.775 430.567 115.477 429.235 116.683C427.92 117.887 426.987 119.48 426.438 121.463C425.889 123.445 425.737 125.712 425.983 128.261ZM475.49 142.773C471.873 143.121 468.683 142.648 465.921 141.354C463.173 140.042 460.955 138.044 459.265 135.36C457.59 132.659 456.569 129.404 456.203 125.595C455.841 121.835 456.224 118.453 457.35 115.45C458.492 112.445 460.253 110.016 462.632 108.163C465.026 106.308 467.929 105.217 471.339 104.889C473.41 104.689 475.451 104.839 477.461 105.337C479.471 105.835 481.319 106.743 483.006 108.06C484.693 109.378 486.095 111.165 487.213 113.421C488.329 115.662 489.047 118.447 489.367 121.778L489.611 124.311L460.426 127.119L459.911 121.765L482.093 119.631C481.912 117.751 481.369 116.122 480.465 114.746C479.559 113.353 478.372 112.302 476.905 111.59C475.453 110.878 473.803 110.61 471.955 110.788C469.947 110.981 468.241 111.644 466.839 112.776C465.45 113.89 464.425 115.276 463.765 116.931C463.118 118.57 462.883 120.305 463.059 122.137L463.462 126.32C463.698 128.774 464.329 130.82 465.355 132.459C466.397 134.095 467.742 135.293 469.391 136.051C471.039 136.793 472.906 137.064 474.994 136.863C476.348 136.732 477.565 136.422 478.643 135.933C479.72 135.427 480.628 134.745 481.365 133.886C482.103 133.027 482.632 132.003 482.951 130.814L489.833 131.382C489.483 133.426 488.679 135.265 487.421 136.898C486.177 138.513 484.543 139.836 482.519 140.867C480.51 141.88 478.167 142.516 475.49 142.773ZM496.407 140.013L492.876 103.299L499.783 102.635L500.344 108.467L500.727 108.43C501.206 106.39 502.236 104.723 503.816 103.429C505.411 102.118 507.284 101.359 509.435 101.152C509.881 101.109 510.408 101.074 511.017 101.048C511.642 101.02 512.131 101.013 512.487 101.027L513.144 107.863C512.85 107.811 512.331 107.772 511.589 107.747C510.845 107.706 510.107 107.721 509.374 107.791C507.685 107.954 506.214 108.457 504.96 109.302C503.721 110.128 502.779 111.208 502.135 112.541C501.49 113.857 501.244 115.312 501.397 116.906L503.554 139.326L496.407 140.013ZM65.2685 205.419L69.9775 254.371L62.8307 255.059L58.1217 206.107L65.2685 205.419ZM92.7945 252.924C89.1773 253.272 85.9877 252.799 83.2257 251.505C80.4781 250.193 78.2595 248.195 76.57 245.511C74.8949 242.81 73.8741 239.555 73.5078 235.746C73.146 231.985 73.5283 228.604 74.6547 225.6C75.7969 222.596 77.5575 220.167 79.9363 218.314C82.3311 216.459 85.2335 215.368 88.6436 215.039C90.7151 214.84 92.7559 214.99 94.7659 215.488C96.7758 215.986 98.6242 216.894 100.311 218.211C101.998 219.528 103.4 221.315 104.517 223.572C105.634 225.813 106.352 228.598 106.672 231.929L106.916 234.462L77.7312 237.27L77.2162 231.916L99.3976 229.782C99.2167 227.901 98.6741 226.273 97.7697 224.897C96.8638 223.504 95.677 222.452 94.2095 221.741C92.7578 221.028 91.1078 220.761 89.2593 220.939C87.2515 221.132 85.5462 221.795 84.1434 222.927C82.7549 224.041 81.7302 225.426 81.0693 227.082C80.4228 228.72 80.1877 230.456 80.3639 232.288L80.7663 236.471C81.0024 238.925 81.6334 240.971 82.6595 242.609C83.7014 244.246 85.0469 245.443 86.6959 246.201C88.3434 246.944 90.2109 247.214 92.2983 247.013C93.6528 246.883 94.8694 246.573 95.948 246.083C97.0251 245.578 97.9325 244.895 98.67 244.036C99.4076 243.177 99.9363 242.154 100.256 240.965L107.138 241.533C106.788 243.577 105.983 245.416 104.725 247.048C103.482 248.664 101.848 249.987 99.8241 251.018C97.8148 252.031 95.4716 252.667 92.7945 252.924ZM140.536 210.53L130.755 248.525L123.106 249.261L106.237 213.83L113.909 213.092L125.925 240.45L126.307 240.413L132.864 211.268L140.536 210.53ZM162.738 246.196C159.121 246.544 155.931 246.071 153.169 244.776C150.422 243.465 148.203 241.467 146.514 238.783C144.838 236.081 143.818 232.826 143.451 229.018C143.09 225.257 143.472 221.875 144.598 218.872C145.741 215.867 147.501 213.438 149.88 211.585C152.275 209.731 155.177 208.639 158.587 208.311C160.659 208.112 162.699 208.261 164.709 208.76C166.719 209.258 168.568 210.166 170.254 211.483C171.941 212.8 173.343 214.587 174.461 216.844C175.577 219.084 176.295 221.87 176.616 225.2L176.86 227.734L147.675 230.541L147.16 225.187L169.341 223.054C169.16 221.173 168.618 219.545 167.713 218.168C166.807 216.776 165.621 215.724 164.153 215.013C162.701 214.3 161.051 214.033 159.203 214.21C157.195 214.404 155.49 215.066 154.087 216.198C152.698 217.313 151.674 218.698 151.013 220.354C150.366 221.992 150.131 223.727 150.308 225.56L150.71 229.743C150.946 232.197 151.577 234.243 152.603 235.881C153.645 237.518 154.991 238.715 156.639 239.473C158.287 240.215 160.154 240.486 162.242 240.285C163.596 240.155 164.813 239.845 165.892 239.355C166.969 238.849 167.876 238.167 168.614 237.308C169.351 236.449 169.88 235.425 170.2 234.237L177.081 234.805C176.731 236.849 175.927 238.687 174.669 240.32C173.425 241.935 171.791 243.258 169.768 244.289C167.758 245.303 165.415 245.938 162.738 246.196ZM186.094 193.796L190.803 242.748L183.656 243.436L178.947 194.484L186.094 193.796ZM228.382 239.881C224.94 240.212 221.86 239.713 219.143 238.382C216.426 237.051 214.222 235.036 212.531 232.336C210.84 229.636 209.812 226.389 209.447 222.597C209.08 218.788 209.469 215.39 210.613 212.401C211.757 209.412 213.536 207.006 215.949 205.181C218.363 203.357 221.291 202.279 224.733 201.948C228.175 201.617 231.254 202.117 233.972 203.448C236.689 204.778 238.894 206.802 240.587 209.518C242.279 212.234 243.309 215.496 243.675 219.304C244.04 223.097 243.65 226.479 242.504 229.452C241.359 232.425 239.579 234.824 237.165 236.648C234.752 238.472 231.824 239.55 228.382 239.881ZM227.829 233.879C230.06 233.665 231.851 232.897 233.204 231.577C234.556 230.257 235.489 228.583 236.002 226.556C236.53 224.527 236.681 222.333 236.454 219.975C236.229 217.632 235.663 215.516 234.758 213.625C233.866 211.716 232.63 210.235 231.049 209.181C229.468 208.127 227.563 207.707 225.332 207.922C223.085 208.138 221.278 208.915 219.911 210.252C218.56 211.588 217.621 213.279 217.094 215.324C216.581 217.351 216.438 219.536 216.663 221.879C216.89 224.237 217.448 226.362 218.338 228.255C219.243 230.146 220.486 231.611 222.065 232.649C223.661 233.685 225.582 234.096 227.829 233.879ZM264.651 198.591L265.203 204.327L244.455 206.323L243.903 200.587L264.651 198.591ZM253.124 236.753L249.183 195.785C248.962 193.49 249.281 191.538 250.139 189.927C250.996 188.301 252.217 187.034 253.802 186.125C255.386 185.201 257.15 184.645 259.094 184.458C260.528 184.32 261.766 184.322 262.809 184.463C263.85 184.588 264.627 184.722 265.14 184.866L264.023 190.811C263.679 190.748 263.238 190.677 262.7 190.601C262.16 190.508 261.516 190.497 260.767 190.569C259.03 190.736 257.829 191.286 257.162 192.219C256.512 193.15 256.265 194.428 256.422 196.053L260.271 236.066L253.124 236.753ZM303.879 232.619C300.262 232.967 297.073 232.494 294.311 231.199C291.563 229.887 289.344 227.89 287.655 225.205C285.98 222.504 284.959 219.249 284.593 215.441C284.231 211.68 284.613 208.298 285.74 205.295C286.882 202.29 288.642 199.861 291.021 198.008C293.416 196.153 296.318 195.062 299.728 194.734C301.8 194.535 303.841 194.684 305.851 195.182C307.861 195.681 309.709 196.588 311.396 197.906C313.082 199.223 314.485 201.01 315.602 203.266C316.719 205.507 317.437 208.293 317.757 211.623L318.001 214.157L288.816 216.964L288.301 211.61L310.482 209.476C310.302 207.596 309.759 205.968 308.855 204.591C307.949 203.199 306.762 202.147 305.294 201.436C303.843 200.723 302.193 200.455 300.344 200.633C298.336 200.826 296.631 201.489 295.228 202.621C293.84 203.736 292.815 205.121 292.154 206.777C291.508 208.415 291.273 210.15 291.449 211.983L291.851 216.166C292.087 218.62 292.718 220.666 293.744 222.304C294.786 223.941 296.132 225.138 297.781 225.896C299.428 226.638 301.296 226.909 303.383 226.708C304.738 226.578 305.954 226.268 307.033 225.778C308.11 225.272 309.017 224.59 309.755 223.731C310.493 222.872 311.021 221.848 311.341 220.659L318.223 221.228C317.873 223.272 317.068 225.11 315.81 226.743C314.566 228.358 312.933 229.681 310.909 230.712C308.9 231.726 306.557 232.361 303.879 232.619ZM326.052 192.684L335.53 206.198L342.329 191.118L350.145 190.367L340.462 209.825L353.773 227.071L345.957 227.823L336.367 214.899L329.44 229.412L321.6 230.166L331.26 210.71L318.212 193.438L326.052 192.684ZM359.647 240.401L354.791 189.92L361.771 189.248L362.343 195.2L362.941 195.142C363.281 194.338 363.794 193.396 364.478 192.317C365.162 191.238 366.162 190.257 367.476 189.375C368.789 188.477 370.584 187.918 372.863 187.699C375.827 187.414 378.544 187.908 381.015 189.182C383.485 190.456 385.518 192.44 387.112 195.133C388.721 197.825 389.717 201.155 390.099 205.122C390.48 209.09 390.146 212.556 389.097 215.52C388.045 218.467 386.438 220.817 384.275 222.569C382.11 224.305 379.545 225.316 376.581 225.601C374.351 225.816 372.49 225.617 371 225.004C369.525 224.39 368.342 223.619 367.448 222.692C366.555 221.765 365.856 220.932 365.35 220.192L364.92 220.233L366.794 239.714L359.647 240.401ZM363.56 207.603C363.809 210.184 364.401 212.411 365.337 214.283C366.273 216.155 367.503 217.573 369.027 218.536C370.549 219.483 372.338 219.858 374.394 219.66C376.529 219.454 378.259 218.717 379.585 217.448C380.908 216.163 381.842 214.505 382.387 212.474C382.947 210.442 383.109 208.199 382.873 205.745C382.64 203.323 382.065 201.183 381.146 199.326C380.244 197.466 379.014 196.049 377.456 195.073C375.915 194.095 374.069 193.71 371.917 193.917C369.846 194.116 368.144 194.819 366.813 196.024C365.497 197.228 364.565 198.822 364.016 200.805C363.467 202.787 363.315 205.053 363.56 207.603ZM413.067 222.115C409.45 222.463 406.261 221.99 403.499 220.696C400.751 219.384 398.532 217.386 396.843 214.702C395.168 212.001 394.147 208.746 393.781 204.937C393.419 201.176 393.801 197.795 394.927 194.791C396.07 191.787 397.83 189.358 400.209 187.505C402.604 185.65 405.506 184.559 408.916 184.231C410.988 184.031 413.029 184.181 415.039 184.679C417.049 185.177 418.897 186.085 420.584 187.402C422.27 188.719 423.673 190.506 424.79 192.763C425.906 195.004 426.625 197.789 426.945 201.12L427.189 203.653L398.004 206.461L397.489 201.107L419.67 198.973C419.489 197.092 418.947 195.464 418.043 194.088C417.137 192.695 415.95 191.643 414.482 190.932C413.031 190.219 411.381 189.952 409.532 190.13C407.524 190.323 405.819 190.986 404.416 192.118C403.028 193.232 402.003 194.617 401.342 196.273C400.696 197.911 400.46 199.647 400.637 201.479L401.039 205.662C401.275 208.116 401.906 210.162 402.932 211.8C403.974 213.437 405.32 214.634 406.969 215.392C408.616 216.135 410.484 216.405 412.571 216.204C413.926 216.074 415.142 215.764 416.221 215.274C417.298 214.769 418.205 214.086 418.943 213.227C419.68 212.368 420.209 211.345 420.529 210.156L427.411 210.724C427.06 212.768 426.256 214.607 424.998 216.239C423.754 217.855 422.121 219.178 420.097 220.209C418.088 221.222 415.744 221.858 413.067 222.115ZM433.985 219.355L430.453 182.641L437.361 181.977L437.922 187.809L438.305 187.772C438.784 185.732 439.813 184.065 441.394 182.771C442.988 181.46 444.861 180.7 447.013 180.493C447.459 180.451 447.986 180.416 448.595 180.389C449.219 180.362 449.709 180.355 450.064 180.369L450.722 187.205C450.427 187.153 449.909 187.114 449.167 187.089C448.423 187.048 447.685 187.063 446.952 187.133C445.263 187.296 443.791 187.799 442.538 188.643C441.298 189.47 440.357 190.55 439.713 191.882C439.068 193.199 438.822 194.654 438.975 196.247L441.132 218.668L433.985 219.355ZM472.901 178.558L473.452 184.295L453.398 186.224L452.846 180.487L472.901 178.558ZM457.378 171.174L464.525 170.486L467.866 205.216C467.999 206.603 468.307 207.626 468.789 208.288C469.269 208.933 469.848 209.352 470.526 209.544C471.218 209.719 471.955 209.768 472.735 209.693C473.309 209.638 473.807 209.55 474.23 209.429C474.652 209.308 474.981 209.212 475.215 209.141L477.074 214.921C476.675 215.12 476.101 215.336 475.351 215.569C474.603 215.818 473.656 216.005 472.51 216.132C470.633 216.344 468.848 216.178 467.155 215.634C465.463 215.089 464.044 214.132 462.899 212.762C461.754 211.393 461.075 209.601 460.862 207.386L457.378 171.174ZM481.646 214.77L478.114 178.056L485.261 177.369L488.792 214.083L481.646 214.77ZM481.178 172.044C479.935 172.164 478.828 171.852 477.856 171.11C476.898 170.349 476.363 169.388 476.251 168.224C476.138 167.045 476.48 165.999 477.276 165.086C478.087 164.156 479.114 163.631 480.357 163.511C481.6 163.392 482.701 163.712 483.658 164.472C484.63 165.215 485.173 166.176 485.286 167.355C485.398 168.518 485.049 169.565 484.238 170.496C483.441 171.409 482.421 171.925 481.178 172.044ZM520.557 183.02L514.19 184.79C513.839 183.988 513.333 183.24 512.671 182.548C512.026 181.854 511.186 181.316 510.152 180.933C509.118 180.55 507.86 180.43 506.378 180.572C504.354 180.767 502.709 181.384 501.442 182.422C500.173 183.445 499.607 184.665 499.743 186.084C499.862 187.311 500.411 188.255 501.391 188.916C502.371 189.578 503.896 190.05 505.966 190.334L511.927 191.111C515.38 191.567 518.014 192.528 519.827 193.994C521.641 195.46 522.673 197.492 522.923 200.089C523.134 202.288 522.685 204.309 521.576 206.153C520.481 207.979 518.849 209.487 516.68 210.677C514.527 211.865 511.968 212.601 509.004 212.887C504.893 213.282 501.454 212.728 498.688 211.225C495.921 209.706 494.086 207.35 493.183 204.156L499.99 202.44C500.594 204.199 501.609 205.476 503.036 206.272C504.462 207.051 506.251 207.338 508.402 207.131C510.745 206.905 512.57 206.239 513.879 205.132C515.186 204.009 515.772 202.739 515.635 201.321C515.525 200.173 515.002 199.251 514.066 198.553C513.147 197.853 511.791 197.388 510 197.159L503.654 196.394C500.153 195.943 497.5 194.944 495.695 193.396C493.905 191.848 492.885 189.767 492.633 187.153C492.425 184.986 492.848 183.032 493.903 181.29C494.958 179.548 496.509 178.12 498.557 177.007C500.603 175.877 503.005 175.18 505.761 174.914C509.729 174.533 512.935 175.093 515.379 176.595C517.822 178.08 519.548 180.222 520.557 183.02ZM545.004 209.424C541.386 209.771 538.197 209.298 535.435 208.004C532.687 206.692 530.469 204.694 528.779 202.01C527.104 199.309 526.083 196.054 525.717 192.245C525.355 188.485 525.737 185.103 526.864 182.1C528.006 179.095 529.767 176.666 532.145 174.813C534.54 172.958 537.443 171.867 540.853 171.539C542.924 171.339 544.965 171.489 546.975 171.987C548.985 172.485 550.833 173.393 552.52 174.71C554.207 176.028 555.609 177.815 556.727 180.071C557.843 182.312 558.561 185.097 558.881 188.428L559.125 190.961L529.94 193.769L529.425 188.415L551.607 186.281C551.426 184.401 550.883 182.772 549.979 181.396C549.073 180.003 547.886 178.952 546.419 178.24C544.967 177.528 543.317 177.26 541.468 177.438C539.461 177.631 537.755 178.294 536.352 179.426C534.964 180.54 533.939 181.926 533.278 183.581C532.632 185.22 532.397 186.955 532.573 188.787L532.975 192.97C533.211 195.424 533.843 197.47 534.869 199.109C535.911 200.745 537.256 201.943 538.905 202.701C540.552 203.443 542.42 203.714 544.507 203.513C545.862 203.382 547.078 203.072 548.157 202.583C549.234 202.077 550.142 201.395 550.879 200.536C551.617 199.677 552.145 198.653 552.465 197.464L559.347 198.032C558.997 200.076 558.193 201.915 556.934 203.548C555.691 205.163 554.057 206.486 552.033 207.517C550.024 208.53 547.681 209.166 545.004 209.424Z" fill="black"/>
</svg>
