<svg width="580" height="477" viewBox="0 0 580 477" fill="none" xmlns="http://www.w3.org/2000/svg">
<rect x="20.7031" width="560.549" height="429.59" rx="214.795" transform="rotate(4.99905 20.7031 0)" fill="#A2B0DF"/>
<path d="M120.987 114.49L116.154 169.736L107.819 169.007L112.651 113.761L120.987 114.49ZM141.672 171.968L145.297 130.533L153.039 131.211L152.449 137.955L152.961 137.999C154.024 135.791 155.592 134.134 157.664 133.029C159.737 131.905 162.141 131.463 164.874 131.702C167.644 131.945 169.907 132.795 171.664 134.253C173.439 135.713 174.677 137.616 175.378 139.96L175.809 139.998C176.992 137.873 178.72 136.248 180.993 135.124C183.267 133.982 185.897 133.541 188.882 133.802C192.641 134.131 195.604 135.577 197.772 138.141C199.958 140.706 200.843 144.362 200.428 149.11L197.997 176.895L189.932 176.189L192.296 149.16C192.541 146.354 191.955 144.255 190.536 142.863C189.118 141.47 187.347 140.681 185.225 140.495C182.6 140.266 180.488 140.896 178.889 142.388C177.293 143.861 176.384 145.856 176.164 148.374L173.854 174.783L165.815 174.08L168.224 146.538C168.421 144.29 167.878 142.421 166.595 140.932C165.311 139.442 163.546 138.599 161.298 138.402C159.769 138.269 158.322 138.55 156.957 139.246C155.611 139.925 154.48 140.941 153.564 142.293C152.667 143.646 152.136 145.257 151.972 147.128L149.738 172.673L141.672 171.968ZM217.747 179.547C215.121 179.317 212.79 178.624 210.753 177.467C208.717 176.292 207.161 174.715 206.084 172.737C205.024 170.759 204.613 168.413 204.851 165.697C205.055 163.359 205.673 161.475 206.705 160.043C207.736 158.611 209.055 157.521 210.66 156.773C212.266 156.026 214.033 155.51 215.96 155.225C217.888 154.941 219.842 154.768 221.823 154.705C224.33 154.635 226.364 154.577 227.927 154.533C229.49 154.47 230.642 154.254 231.381 153.883C232.12 153.513 232.532 152.842 232.617 151.871L232.634 151.682C232.84 149.327 232.334 147.443 231.116 146.032C229.917 144.622 228.013 143.803 225.406 143.575C222.69 143.338 220.497 143.753 218.827 144.821C217.177 145.873 215.991 147.101 215.27 148.506L207.841 146.116C208.961 143.677 210.451 141.76 212.313 140.364C214.194 138.952 216.299 137.995 218.626 137.491C220.955 136.97 223.369 136.819 225.869 137.038C227.523 137.182 229.259 137.534 231.077 138.091C232.914 138.632 234.597 139.486 236.126 140.653C237.673 141.821 238.885 143.404 239.761 145.402C240.639 147.381 240.946 149.882 240.682 152.903L238.275 180.418L230.398 179.729L230.893 174.064L230.57 174.036C229.957 175.033 229.085 175.99 227.954 176.906C226.823 177.822 225.41 178.541 223.715 179.063C222.02 179.585 220.031 179.746 217.747 179.547ZM220.067 173.226C222.297 173.421 224.242 173.147 225.901 172.404C227.579 171.663 228.893 170.618 229.845 169.27C230.816 167.905 231.373 166.404 231.516 164.768L231.983 159.427C231.671 159.689 231.089 159.91 230.24 160.09C229.41 160.253 228.466 160.379 227.407 160.467C226.35 160.538 225.321 160.602 224.319 160.659C223.319 160.698 222.482 160.734 221.809 160.766C220.227 160.827 218.768 161.034 217.433 161.389C216.115 161.745 215.031 162.329 214.18 163.143C213.35 163.94 212.871 165.058 212.745 166.497C212.571 168.493 213.176 170.068 214.561 171.222C215.948 172.358 217.783 173.026 220.067 173.226ZM279.768 152.489L272.344 153.145C272.12 152.183 271.712 151.25 271.121 150.347C270.547 149.445 269.727 148.675 268.659 148.038C267.591 147.401 266.221 147.009 264.549 146.863C262.265 146.663 260.314 147.009 258.695 147.901C257.079 148.774 256.2 150.011 256.06 151.611C255.939 152.996 256.354 154.156 257.305 155.091C258.256 156.026 259.85 156.863 262.087 157.602L268.537 159.689C272.272 160.903 274.995 162.51 276.705 164.508C278.415 166.505 279.141 168.97 278.885 171.901C278.668 174.383 277.755 176.532 276.147 178.349C274.558 180.149 272.438 181.485 269.789 182.359C267.157 183.234 264.169 183.526 260.824 183.233C256.184 182.827 252.485 181.507 249.726 179.272C246.97 177.02 245.419 174.03 245.075 170.303L252.974 169.798C253.282 171.873 254.146 173.498 255.565 174.673C256.986 175.83 258.91 176.515 261.338 176.727C263.982 176.958 266.143 176.595 267.821 175.636C269.502 174.66 270.412 173.371 270.552 171.77C270.665 170.476 270.275 169.345 269.38 168.379C268.504 167.414 267.097 166.621 265.158 165.998L258.279 163.847C254.489 162.628 251.753 160.975 250.069 158.889C248.403 156.804 247.699 154.287 247.957 151.338C248.171 148.892 249.041 146.811 250.568 145.097C252.096 143.382 254.109 142.117 256.608 141.303C259.11 140.471 261.916 140.191 265.027 140.463C269.505 140.855 272.945 142.134 275.346 144.301C277.75 146.45 279.224 149.18 279.768 152.489ZM306.633 144.646L306.067 151.12L283.434 149.14L284 142.666L306.633 144.646ZM290.938 133.27L299.004 133.976L295.575 173.171C295.439 174.736 295.569 175.934 295.968 176.766C296.368 177.58 296.924 178.164 297.636 178.516C298.368 178.852 299.174 179.058 300.055 179.135C300.703 179.192 301.273 179.196 301.766 179.149C302.26 179.102 302.644 179.063 302.918 179.032L303.792 185.823C303.309 185.962 302.628 186.083 301.749 186.188C300.868 186.31 299.78 186.323 298.483 186.228C296.358 186.079 294.413 185.528 292.648 184.576C290.883 183.624 289.506 182.272 288.518 180.518C287.53 178.764 287.145 176.638 287.363 174.138L290.938 133.27ZM326.232 188.954C322.15 188.597 318.71 187.418 315.913 185.415C313.136 183.396 311.086 180.725 309.764 177.402C308.462 174.063 307.998 170.244 308.374 165.946C308.746 161.702 309.864 158.03 311.73 154.932C313.614 151.835 316.065 149.503 319.083 147.937C322.119 146.372 325.562 145.758 329.41 146.095C331.748 146.299 333.98 146.884 336.106 147.849C338.233 148.814 340.096 150.201 341.696 152.008C343.295 153.815 344.483 156.084 345.259 158.816C346.036 161.53 346.261 164.766 345.932 168.524L345.682 171.384L312.744 168.503L313.273 162.46L338.306 164.65C338.492 162.528 338.225 160.611 337.505 158.899C336.786 157.169 335.686 155.759 334.205 154.669C332.742 153.58 330.967 152.945 328.881 152.762C326.615 152.564 324.588 152.949 322.8 153.916C321.032 154.866 319.611 156.192 318.538 157.892C317.485 159.576 316.868 161.452 316.687 163.52L316.274 168.241C316.032 171.01 316.311 173.408 317.112 175.436C317.932 177.464 319.178 179.068 320.85 180.248C322.525 181.409 324.54 182.092 326.896 182.299C328.424 182.432 329.837 182.338 331.133 182.017C332.432 181.677 333.578 181.107 334.572 180.306C335.566 179.505 336.363 178.479 336.962 177.226L344.475 179.27C343.667 181.464 342.398 183.337 340.668 184.889C338.957 186.425 336.874 187.557 334.418 188.284C331.982 188.995 329.253 189.219 326.232 188.954ZM349.992 190.19L353.617 148.756L361.413 149.438L360.837 156.02L361.269 156.057C362.219 153.893 363.703 152.256 365.721 151.146C367.759 150.02 369.991 149.563 372.419 149.775C372.923 149.819 373.515 149.889 374.195 149.985C374.893 150.082 375.438 150.175 375.829 150.264L375.154 157.979C374.838 157.86 374.271 157.711 373.453 157.531C372.637 157.333 371.815 157.197 370.988 157.125C369.082 156.958 367.347 157.214 365.783 157.893C364.24 158.555 362.974 159.559 361.986 160.904C361 162.231 360.429 163.794 360.272 165.593L358.058 190.896L349.992 190.19ZM112.924 196.098L108.091 251.344L100.026 250.638L104.858 195.392L112.924 196.098ZM119.643 268.011C118.438 267.906 117.35 267.711 116.378 267.426C115.405 267.16 114.685 266.898 114.218 266.639L116.738 260.2C118.178 260.725 119.476 261.011 120.632 261.057C121.788 261.104 122.841 260.761 123.793 260.029C124.763 259.299 125.67 258.046 126.514 256.271L127.753 253.607L116.264 210.307L124.896 211.062L132.577 244.135L133.009 244.173L146.315 212.936L154.974 213.693L133.791 259.164C132.81 261.253 131.644 262.99 130.29 264.376C128.935 265.779 127.379 266.785 125.623 267.392C123.866 268 121.873 268.206 119.643 268.011ZM155.891 255.525L159.516 214.09L167.312 214.772L166.736 221.354L167.168 221.392C168.118 219.228 169.602 217.591 171.62 216.481C173.658 215.355 175.89 214.897 178.318 215.11C178.822 215.154 179.414 215.224 180.094 215.32C180.792 215.417 181.337 215.51 181.727 215.598L181.053 223.313C180.737 223.195 180.17 223.046 179.352 222.866C178.536 222.667 177.714 222.532 176.887 222.46C174.981 222.293 173.246 222.549 171.682 223.228C170.138 223.89 168.873 224.894 167.885 226.239C166.899 227.566 166.328 229.129 166.17 230.927L163.957 256.23L155.891 255.525ZM182.007 257.809L185.631 216.375L193.697 217.08L190.072 258.515L182.007 257.809ZM190.264 210.338C188.861 210.215 187.697 209.642 186.772 208.619C185.866 207.579 185.47 206.403 185.585 205.09C185.702 203.759 186.295 202.67 187.366 201.821C188.457 200.956 189.703 200.585 191.106 200.708C192.509 200.83 193.663 201.411 194.569 202.451C195.494 203.474 195.898 204.651 195.782 205.982C195.667 207.295 195.065 208.384 193.974 209.249C192.903 210.098 191.666 210.46 190.264 210.338ZM215.265 261.561C211.255 261.21 207.881 260 205.145 257.93C202.428 255.844 200.437 253.124 199.172 249.77C197.907 246.415 197.456 242.661 197.819 238.507C198.187 234.299 199.303 230.654 201.168 227.574C203.033 224.475 205.484 222.143 208.521 220.579C211.557 219.014 215.026 218.402 218.929 218.744C222.076 219.019 224.83 219.849 227.192 221.233C229.555 222.6 231.4 224.392 232.729 226.61C234.075 228.83 234.77 231.346 234.814 234.159L226.964 233.472C226.702 231.492 225.859 229.733 224.435 228.195C223.029 226.659 221.041 225.778 218.469 225.553C216.221 225.357 214.2 225.778 212.406 226.817C210.631 227.84 209.181 229.398 208.055 231.492C206.931 233.569 206.24 236.081 205.982 239.031C205.718 242.052 205.949 244.7 206.674 246.974C207.399 249.248 208.545 251.061 210.112 252.412C211.697 253.765 213.632 254.541 215.916 254.741C217.444 254.875 218.854 254.717 220.143 254.268C221.452 253.803 222.576 253.076 223.514 252.089C224.47 251.104 225.184 249.88 225.657 248.417L233.506 249.104C232.984 251.758 231.903 254.073 230.262 256.05C228.621 258.027 226.525 259.511 223.974 260.502C221.441 261.494 218.538 261.847 215.265 261.561ZM271.735 234.1L264.311 234.755C264.087 233.793 263.68 232.86 263.088 231.957C262.515 231.055 261.694 230.286 260.626 229.649C259.559 229.012 258.188 228.62 256.516 228.474C254.232 228.274 252.281 228.62 250.663 229.511C249.046 230.384 248.168 231.621 248.028 233.222C247.906 234.607 248.321 235.766 249.273 236.701C250.224 237.636 251.818 238.473 254.054 239.213L260.504 241.299C264.24 242.514 266.962 244.12 268.672 246.118C270.382 248.116 271.109 250.581 270.852 253.512C270.635 255.994 269.722 258.143 268.114 259.959C266.525 261.759 264.406 263.096 261.756 263.97C259.124 264.845 256.136 265.136 252.791 264.843C248.151 264.438 244.452 263.117 241.694 260.883C238.937 258.63 237.386 255.64 237.042 251.914L244.942 251.409C245.249 253.483 246.113 255.108 247.532 256.283C248.953 257.44 250.878 258.125 253.306 258.338C255.949 258.569 258.11 258.205 259.789 257.247C261.469 256.27 262.379 254.982 262.519 253.381C262.632 252.086 262.242 250.956 261.348 249.99C260.472 249.025 259.064 248.231 257.125 247.609L250.246 245.458C246.457 244.238 243.72 242.585 242.036 240.499C240.37 238.414 239.666 235.897 239.924 232.948C240.138 230.502 241.009 228.422 242.536 226.707C244.063 224.992 246.076 223.728 248.576 222.914C251.077 222.081 253.883 221.801 256.994 222.073C261.472 222.465 264.912 223.744 267.314 225.912C269.717 228.061 271.191 230.79 271.735 234.1ZM304.677 269.464C302.052 269.234 299.72 268.541 297.683 267.384C295.648 266.209 294.091 264.632 293.014 262.654C291.955 260.676 291.544 258.33 291.781 255.614C291.986 253.277 292.604 251.392 293.635 249.96C294.666 248.528 295.985 247.438 297.591 246.69C299.196 245.943 300.963 245.427 302.891 245.143C304.818 244.858 306.772 244.685 308.753 244.622C311.26 244.552 313.295 244.494 314.857 244.45C316.421 244.387 317.572 244.171 318.311 243.8C319.05 243.43 319.463 242.759 319.547 241.788L319.564 241.6C319.77 239.244 319.264 237.36 318.047 235.949C316.847 234.539 314.944 233.72 312.336 233.492C309.62 233.255 307.428 233.67 305.758 234.738C304.107 235.79 302.922 237.018 302.201 238.423L294.772 236.033C295.891 233.594 297.382 231.677 299.243 230.281C301.125 228.869 303.229 227.912 305.556 227.408C307.885 226.887 310.299 226.736 312.799 226.955C314.454 227.099 316.19 227.451 318.007 228.008C319.845 228.55 321.528 229.404 323.057 230.57C324.604 231.738 325.815 233.321 326.691 235.319C327.569 237.298 327.876 239.799 327.612 242.82L325.205 270.335L317.328 269.646L317.824 263.981L317.5 263.953C316.887 264.95 316.015 265.907 314.884 266.823C313.753 267.739 312.34 268.458 310.645 268.98C308.951 269.502 306.961 269.663 304.677 269.464ZM306.997 263.143C309.227 263.338 311.172 263.064 312.831 262.321C314.509 261.58 315.824 260.535 316.775 259.187C317.746 257.822 318.303 256.322 318.447 254.685L318.914 249.344C318.601 249.606 318.02 249.827 317.17 250.007C316.341 250.17 315.397 250.296 314.338 250.384C313.281 250.455 312.251 250.519 311.249 250.576C310.249 250.616 309.413 250.651 308.739 250.683C307.157 250.744 305.699 250.951 304.363 251.306C303.045 251.662 301.961 252.246 301.111 253.06C300.28 253.857 299.802 254.975 299.676 256.414C299.501 258.41 300.106 259.985 301.491 261.139C302.878 262.275 304.713 262.943 306.997 263.143ZM343.127 247.113L340.975 271.714L332.91 271.009L336.534 229.574L344.276 230.252L343.686 236.996L344.199 237.04C345.344 234.93 346.99 233.298 349.139 232.145C351.306 230.993 353.944 230.554 357.056 230.826C359.879 231.073 362.3 231.883 364.318 233.255C366.338 234.61 367.831 236.498 368.797 238.92C369.763 241.342 370.096 244.262 369.798 247.679L367.492 274.034L359.427 273.328L361.647 247.944C361.91 244.941 361.333 242.526 359.916 240.699C358.501 238.853 356.426 237.811 353.693 237.572C351.823 237.408 350.124 237.667 348.596 238.349C347.087 239.033 345.841 240.12 344.859 241.61C343.896 243.085 343.319 244.919 343.127 247.113ZM390.711 276.88C387.366 276.588 384.456 275.472 381.979 273.534C379.523 271.58 377.687 268.946 376.473 265.632C375.278 262.302 374.877 258.398 375.269 253.92C375.66 249.442 376.742 245.677 378.513 242.624C380.302 239.573 382.583 237.317 385.357 235.857C388.13 234.396 391.18 233.811 394.507 234.102C397.079 234.327 399.109 234.939 400.599 235.939C402.107 236.923 403.244 238.019 404.008 239.228C404.79 240.438 405.386 241.496 405.796 242.401L406.281 242.444L408.077 221.915L416.143 222.621L411.31 277.867L403.433 277.178L403.997 270.731L403.323 270.672C402.76 271.51 401.971 272.456 400.955 273.509C399.956 274.563 398.629 275.444 396.972 276.151C395.316 276.857 393.229 277.101 390.711 276.88ZM393.093 270.157C395.413 270.36 397.427 269.92 399.134 268.837C400.861 267.738 402.235 266.128 403.254 264.006C404.291 261.886 404.937 259.369 405.192 256.456C405.443 253.578 405.25 251.025 404.611 248.794C403.973 246.564 402.906 244.776 401.411 243.431C399.916 242.086 397.99 241.311 395.634 241.105C393.207 240.892 391.128 241.345 389.4 242.462C387.671 243.579 386.298 245.19 385.28 247.294C384.281 249.399 383.661 251.818 383.422 254.552C383.18 257.321 383.376 259.848 384.01 262.132C384.643 264.417 385.713 266.277 387.218 267.714C388.743 269.134 390.701 269.948 393.093 270.157ZM131.951 293.992L113.301 334.112L104.669 333.357L93.2407 290.606L101.9 291.364L109.604 324.167L110.036 324.204L123.291 293.235L131.951 293.992ZM149.243 338.099C145.161 337.742 141.721 336.562 138.925 334.56C136.147 332.541 134.098 329.87 132.776 326.547C131.473 323.207 131.01 319.389 131.386 315.09C131.757 310.846 132.875 307.175 134.741 304.076C136.625 300.979 139.076 298.648 142.094 297.081C145.13 295.517 148.573 294.903 152.421 295.239C154.759 295.444 156.991 296.029 159.118 296.994C161.244 297.959 163.107 299.345 164.707 301.152C166.307 302.959 167.494 305.229 168.27 307.96C169.048 310.674 169.272 313.91 168.943 317.669L168.693 320.528L135.756 317.647L136.284 311.605L161.318 313.794C161.503 311.672 161.236 309.755 160.516 308.043C159.798 306.313 158.698 304.903 157.216 303.813C155.753 302.725 153.979 302.089 151.892 301.907C149.627 301.709 147.6 302.093 145.812 303.06C144.043 304.011 142.622 305.336 141.55 307.037C140.496 308.72 139.879 310.596 139.698 312.664L139.285 317.385C139.043 320.155 139.322 322.553 140.124 324.58C140.943 326.609 142.189 328.213 143.862 329.392C145.536 330.553 147.551 331.237 149.907 331.443C151.435 331.577 152.848 331.483 154.145 331.161C155.443 330.822 156.589 330.252 157.583 329.451C158.578 328.65 159.374 327.623 159.973 326.371L167.487 328.414C166.679 330.609 165.409 332.482 163.679 334.034C161.968 335.57 159.885 336.701 157.429 337.429C154.993 338.14 152.264 338.363 149.243 338.099ZM173.004 339.335L176.628 297.9L184.424 298.582L183.848 305.164L184.28 305.202C185.23 303.038 186.715 301.401 188.732 300.291C190.77 299.165 193.003 298.707 195.43 298.92C195.934 298.964 196.526 299.034 197.206 299.129C197.904 299.227 198.449 299.32 198.84 299.408L198.165 307.123C197.849 307.005 197.282 306.856 196.465 306.676C195.648 306.477 194.827 306.342 193.999 306.27C192.093 306.103 190.358 306.359 188.795 307.038C187.251 307.7 185.985 308.704 184.998 310.049C184.012 311.376 183.44 312.939 183.283 314.737L181.07 340.04L173.004 339.335ZM232.908 313.016L225.484 313.672C225.26 312.71 224.852 311.777 224.261 310.874C223.687 309.972 222.867 309.202 221.799 308.565C220.731 307.928 219.361 307.537 217.688 307.39C215.405 307.191 213.453 307.536 211.835 308.428C210.218 309.301 209.34 310.538 209.2 312.139C209.079 313.523 209.494 314.683 210.445 315.618C211.396 316.553 212.99 317.39 215.227 318.129L221.677 320.216C225.412 321.431 228.135 323.037 229.845 325.035C231.555 327.033 232.281 329.497 232.025 332.429C231.808 334.91 230.895 337.06 229.286 338.876C227.697 340.676 225.578 342.013 222.928 342.886C220.297 343.762 217.308 344.053 213.963 343.76C209.324 343.354 205.625 342.034 202.866 339.8C200.11 337.547 198.559 334.557 198.214 330.83L206.114 330.325C206.422 332.4 207.286 334.025 208.705 335.2C210.126 336.357 212.05 337.042 214.478 337.254C217.122 337.486 219.283 337.122 220.961 336.163C222.642 335.187 223.552 333.898 223.692 332.298C223.805 331.003 223.414 329.872 222.52 328.906C221.644 327.942 220.237 327.148 218.298 326.525L211.419 324.374C207.629 323.155 204.893 321.502 203.209 319.416C201.543 317.331 200.839 314.814 201.097 311.865C201.311 309.419 202.181 307.339 203.708 305.624C205.236 303.909 207.249 302.645 209.748 301.83C212.249 300.998 215.056 300.718 218.167 300.99C222.645 301.382 226.085 302.661 228.486 304.828C230.89 306.978 232.363 309.707 232.908 313.016ZM254.592 347.314C250.509 346.957 247.07 345.777 244.273 343.775C241.496 341.756 239.446 339.085 238.124 335.762C236.822 332.422 236.358 328.604 236.734 324.305C237.106 320.061 238.224 316.39 240.09 313.291C241.973 310.194 244.424 307.863 247.443 306.296C250.479 304.732 253.921 304.118 257.77 304.454C260.108 304.659 262.34 305.244 264.466 306.209C266.593 307.174 268.456 308.56 270.055 310.367C271.655 312.174 272.843 314.444 273.619 317.176C274.396 319.889 274.62 323.125 274.292 326.884L274.042 329.743L241.104 326.862L241.633 320.82L266.666 323.01C266.852 320.887 266.585 318.97 265.865 317.258C265.146 315.528 264.046 314.118 262.565 313.028C261.102 311.94 259.327 311.304 257.241 311.122C254.975 310.924 252.948 311.308 251.16 312.275C249.392 313.226 247.971 314.552 246.898 316.252C245.845 317.935 245.228 319.811 245.047 321.879L244.634 326.6C244.392 329.37 244.671 331.768 245.472 333.795C246.291 335.824 247.537 337.428 249.21 338.607C250.884 339.768 252.9 340.452 255.255 340.658C256.784 340.792 258.197 340.698 259.493 340.377C260.791 340.037 261.938 339.467 262.932 338.666C263.926 337.865 264.723 336.838 265.322 335.586L272.835 337.629C272.027 339.824 270.758 341.697 269.028 343.249C267.317 344.785 265.233 345.916 262.778 346.644C260.342 347.355 257.613 347.578 254.592 347.314ZM312.141 319.947L304.717 320.602C304.493 319.641 304.086 318.708 303.494 317.804C302.921 316.903 302.1 316.133 301.032 315.496C299.964 314.859 298.594 314.467 296.922 314.321C294.638 314.121 292.687 314.467 291.068 315.358C289.452 316.232 288.573 317.469 288.433 319.069C288.312 320.454 288.727 321.614 289.678 322.549C290.629 323.484 292.223 324.321 294.46 325.06L300.91 327.147C304.646 328.361 307.368 329.968 309.078 331.965C310.788 333.963 311.515 336.428 311.258 339.359C311.041 341.841 310.128 343.99 308.52 345.807C306.931 347.607 304.811 348.943 302.162 349.817C299.53 350.692 296.542 350.984 293.197 350.691C288.557 350.285 284.858 348.965 282.1 346.73C279.343 344.478 277.792 341.488 277.448 337.761L285.347 337.256C285.655 339.331 286.519 340.956 287.938 342.131C289.359 343.288 291.284 343.973 293.711 344.185C296.355 344.416 298.516 344.053 300.195 343.094C301.875 342.118 302.785 340.829 302.925 339.228C303.038 337.934 302.648 336.803 301.754 335.837C300.878 334.872 299.47 334.079 297.531 333.456L290.652 331.305C286.863 330.086 284.126 328.433 282.442 326.347C280.776 324.262 280.072 321.745 280.33 318.795C280.544 316.35 281.414 314.269 282.942 312.555C284.469 310.84 286.482 309.575 288.982 308.761C291.483 307.929 294.289 307.649 297.4 307.921C301.878 308.313 305.318 309.592 307.72 311.759C310.123 313.908 311.597 316.638 312.141 319.947Z" fill="black"/>
</svg>
