<svg width="36" height="36" viewBox="0 0 36 36" fill="none" xmlns="http://www.w3.org/2000/svg">
<path d="M29.7667 2.70959C29.6655 2.63067 29.5477 2.57585 29.4222 2.54929C29.2968 2.52272 29.1669 2.52513 29.0424 2.55631L11.0424 7.05631C10.86 7.10207 10.6981 7.20746 10.5825 7.35574C10.4668 7.50402 10.404 7.68669 10.404 7.87475V23.9215C9.57323 23.2164 8.52657 22.8163 7.43734 22.7873C6.34811 22.7584 5.28167 23.1023 4.41461 23.7622C3.54755 24.4221 2.93189 25.3584 2.6696 26.4159C2.4073 27.4735 2.5141 28.5889 2.97231 29.5775C3.43052 30.5661 4.21264 31.3685 5.18917 31.8519C6.16569 32.3353 7.27803 32.4706 8.34197 32.2355C9.40591 32.0004 10.3576 31.4089 11.0395 30.559C11.7214 29.7091 12.0926 28.6519 12.0915 27.5622V15.2829L28.404 11.2047V19.4215C27.5732 18.7164 26.5266 18.3163 25.4373 18.2873C24.3481 18.2584 23.2817 18.6023 22.4146 19.2622C21.5475 19.9221 20.9319 20.8584 20.6696 21.9159C20.4073 22.9735 20.5141 24.0889 20.9723 25.0775C21.4305 26.0661 22.2126 26.8685 23.1892 27.3519C24.1657 27.8353 25.278 27.9706 26.342 27.7355C27.4059 27.5004 28.3576 26.9089 29.0395 26.059C29.7214 25.2091 30.0926 24.1519 30.0915 23.0622V3.37475C30.0915 3.24648 30.0622 3.1199 30.0059 3.00464C29.9496 2.88938 29.8678 2.78848 29.7667 2.70959ZM7.31024 30.656C6.69836 30.656 6.10021 30.4745 5.59145 30.1346C5.08268 29.7947 4.68615 29.3115 4.45199 28.7462C4.21783 28.1809 4.15657 27.5588 4.27594 26.9587C4.39531 26.3586 4.68996 25.8073 5.12263 25.3746C5.5553 24.942 6.10655 24.6473 6.70668 24.5279C7.30681 24.4086 7.92886 24.4698 8.49417 24.704C9.05948 24.9382 9.54266 25.3347 9.8826 25.8434C10.2225 26.3522 10.404 26.9504 10.404 27.5622C10.404 28.3828 10.078 29.1697 9.49786 29.7499C8.91766 30.33 8.13076 30.656 7.31024 30.656ZM12.0915 13.5447V8.53287L28.404 4.45475V9.46662L12.0915 13.5447ZM25.3102 26.156C24.6984 26.156 24.1002 25.9745 23.5914 25.6346C23.0827 25.2947 22.6862 24.8115 22.452 24.2462C22.2178 23.6809 22.1566 23.0588 22.2759 22.4587C22.3953 21.8586 22.69 21.3073 23.1226 20.8746C23.5553 20.442 24.1066 20.1473 24.7067 20.0279C25.3068 19.9086 25.9289 19.9698 26.4942 20.204C27.0595 20.4382 27.5427 20.8347 27.8826 21.3434C28.2225 21.8522 28.404 22.4504 28.404 23.0622C28.404 23.8828 28.078 24.6697 27.4979 25.2499C26.9177 25.83 26.1308 26.156 25.3102 26.156Z" fill="#4B4B4B"/>
</svg>
