<svg xmlns="http://www.w3.org/2000/svg" width="676" height="219" viewBox="0 0 676 219" version="1.1">
	<path d="M 95.500 52.642 C 71.198 54.276, 23.467 62.918, 15.250 67.173 C 12.268 68.717, 12.391 70.836, 15.500 71.481 C 16.875 71.766, 19.125 72.234, 20.500 72.519 C 21.875 72.805, 23 72.580, 23 72.019 C 23 71.459, 22.010 71, 20.800 71 C 16.763 71, 20.292 69.184, 29.500 66.521 C 51.394 60.192, 96.479 54.330, 115 55.405 C 135.426 56.590, 146 59.732, 146 64.616 C 146 70.243, 131.991 80.544, 108 92.558 C 94.630 99.254, 74.247 108, 72.014 108 C 71.493 108, 72.872 104.737, 75.078 100.750 C 77.284 96.763, 81.976 87.803, 85.506 80.841 C 90.797 70.403, 91.683 67.981, 90.551 67.042 C 88.892 65.666, 89.568 64.659, 81.281 80.858 C 77.725 87.811, 72.592 97.404, 69.875 102.175 L 64.936 110.849 57.218 113.774 C 52.973 115.383, 48.375 116.972, 47 117.306 C 43.324 118.199, 40.568 120.492, 41.451 121.921 C 41.964 122.751, 43.871 122.976, 47.354 122.618 C 50.184 122.327, 53.089 122.070, 53.809 122.045 C 54.529 122.020, 54.835 121.542, 54.488 120.981 C 53.956 120.120, 60.012 116.683, 60.756 117.424 C 60.897 117.564, 58.459 121.914, 55.338 127.090 C 45.964 142.634, 43.261 150, 46.930 150 C 48.420 150, 51.930 145.973, 54.087 141.790 C 56.095 137.895, 56.795 134.222, 55 137 C 52.530 140.823, 54.385 136.524, 57.656 130.846 C 59.667 127.356, 62.533 122.324, 64.025 119.664 C 66.599 115.074, 67.239 114.628, 76.618 110.886 C 109.330 97.835, 133.517 84.928, 143.985 74.936 C 150.459 68.756, 151.996 65.230, 149.913 61.338 C 148.170 58.080, 144.387 56.187, 136.164 54.458 C 129.198 52.993, 105.812 51.949, 95.500 52.642 M 387.246 58.521 C 381.665 63.299, 371.328 76.392, 353.076 101.804 C 344.660 113.521, 337.668 122.971, 337.538 122.804 C 337.408 122.637, 337.879 118.225, 338.584 113 C 339.953 102.865, 340.256 83.136, 339.106 79.005 C 337.995 75.010, 335.224 75.371, 330.278 80.155 L 325.785 84.500 328.892 78.919 C 330.602 75.850, 332 72.779, 332 72.096 C 332 70.422, 328.900 71.120, 327.982 73 C 320.660 88, 316.419 93.991, 301.436 110.500 C 291.823 121.092, 279.996 135.883, 277.290 140.698 C 273.521 147.403, 278.489 149.521, 282.411 142.881 C 287.116 134.916, 313.561 102.372, 323.350 92.500 C 333.790 81.972, 334.291 81.607, 335.029 84 C 336.974 90.301, 335.236 111.361, 331.441 127.500 C 329.447 135.977, 329.550 137.204, 332.225 136.820 C 333.449 136.644, 334.912 135.600, 335.476 134.500 C 337.456 130.642, 346.356 117.402, 357.306 102.023 C 375.110 77.018, 378.795 72.255, 386.543 64.226 C 393.076 57.455, 394.561 55, 392.121 55 C 391.702 55, 389.509 56.585, 387.246 58.521 M 527.400 77.982 C 522.945 82.374, 519.487 86.153, 519.715 86.381 C 520.148 86.815, 510.179 101.066, 505.387 106.862 C 499.562 113.907, 474.663 128.612, 467.500 129.238 C 464.875 129.467, 464.460 129.147, 464.176 126.672 C 463.582 121.484, 470.172 109.745, 479.217 99.882 C 489.873 88.263, 494.746 81.346, 493.296 79.896 C 492.528 79.128, 491.638 79.123, 490.225 79.880 C 487.449 81.365, 479.626 90.213, 473.921 98.321 C 471.281 102.072, 467.059 106.956, 464.539 109.175 C 460.720 112.537, 459.705 113, 458.446 111.955 C 456.274 110.153, 450.973 111.964, 442.439 117.424 C 437.005 120.901, 432.781 122.589, 423.474 125.005 C 416.888 126.715, 410.712 128.343, 409.750 128.624 C 406.894 129.457, 407.671 126.373, 411.356 122.253 C 419.945 112.647, 418.559 110.593, 406.071 114.424 C 396.225 117.444, 386.318 118.659, 384.057 117.123 C 382.863 116.312, 382.828 115.673, 383.855 113.419 C 386.366 107.908, 381.305 107.527, 378.213 112.996 C 376.823 115.455, 376.024 115.923, 373.969 115.482 C 369.298 114.477, 355.899 125.571, 354.355 131.721 C 351.588 142.746, 367.949 134.510, 378.078 119.780 C 378.395 119.318, 379.970 119.626, 381.578 120.464 C 385.435 122.475, 388.245 122.396, 399.145 119.968 C 404.163 118.850, 408.431 118.098, 408.629 118.296 C 408.828 118.495, 407.655 120.422, 406.023 122.578 C 402.327 127.463, 402.144 130.653, 405.472 132.169 C 407.491 133.089, 409.738 132.778, 417.722 130.473 C 423.100 128.920, 428.259 127.278, 429.187 126.823 C 430.645 126.109, 430.801 126.454, 430.331 129.350 C 429.673 133.403, 431.236 134.326, 436.360 132.911 C 439.980 131.911, 455.799 121.896, 459.708 118.128 C 462.778 115.170, 463.326 115.469, 461.457 119.084 C 460.580 120.780, 459.781 123.979, 459.681 126.192 C 459.532 129.512, 459.976 130.578, 462.215 132.278 C 464.603 134.090, 465.384 134.200, 468.715 133.194 C 473.710 131.685, 482.970 126.130, 492.569 118.885 C 496.847 115.656, 500.518 113.185, 500.727 113.394 C 501.106 113.772, 498.400 117.787, 492.250 125.974 C 488.850 130.500, 488.034 134, 490.378 134 C 491.135 134, 492.278 133.370, 492.917 132.600 C 493.703 131.653, 495.321 131.368, 497.928 131.717 C 500.523 132.065, 504.339 131.400, 509.639 129.675 C 513.962 128.267, 521.209 126.585, 525.742 125.937 C 533.869 124.774, 534.010 124.791, 535.908 127.129 C 537.591 129.203, 538.625 129.484, 544.166 129.371 C 551.674 129.218, 557.002 127.519, 570.679 120.915 C 576.278 118.212, 581.153 116, 581.513 116 C 581.873 116, 580.777 117.756, 579.078 119.902 C 573.193 127.332, 576.984 128.648, 592.500 124.560 C 601.241 122.257, 601.521 122.243, 602.214 124.085 C 602.859 125.797, 603.657 125.919, 610.464 125.344 C 614.869 124.971, 618 125.091, 618 125.631 C 618 126.832, 615.591 130.351, 610.737 136.240 C 608.233 139.278, 604.376 142.270, 599.995 144.572 C 591.915 148.818, 581 158.324, 581 161.115 C 581 166.273, 586.987 163.406, 599.806 152.110 C 608.948 144.054, 610.246 143.334, 626.166 137.479 C 636.540 133.664, 667.131 124.819, 673.489 123.797 C 674.582 123.621, 675.636 122.650, 675.831 121.639 C 676.138 120.046, 675.739 119.893, 672.843 120.496 C 658.989 123.381, 642.582 127.803, 630.390 131.937 C 622.476 134.620, 616 136.477, 616 136.063 C 616 135.649, 616.962 134.453, 618.138 133.405 C 619.923 131.815, 623 126.244, 623 124.604 C 623 123.074, 619.391 121, 616.729 121 C 612.084 121, 614.511 119.520, 622.500 117.481 C 630.613 115.410, 632.942 113.840, 631.135 111.663 C 629.658 109.884, 625.710 110.648, 611.500 115.464 C 601.975 118.693, 583 123.281, 583 122.356 C 583 122.115, 583.977 120.598, 585.171 118.983 C 587.015 116.488, 587.167 115.662, 586.180 113.495 C 584.382 109.550, 582.563 109.531, 576.296 113.388 C 561.291 122.622, 540 128.944, 540 124.165 C 540 123.672, 542.641 122.305, 545.870 121.128 C 552.597 118.675, 557.232 114.619, 556.796 111.568 C 556.088 106.621, 546.895 109.263, 539.668 116.490 C 536.714 119.444, 534.287 120.894, 531.484 121.379 C 529.293 121.758, 526.166 122.335, 524.535 122.661 L 521.570 123.253 524.785 119.592 C 528.426 115.445, 528.724 113.866, 526.318 111.460 C 523.874 109.017, 517.071 110.228, 509.324 114.486 C 505.846 116.398, 503 117.714, 503 117.410 C 503 115.915, 512.776 103.598, 519.596 96.500 C 528.487 87.247, 539.245 73.235, 538.705 71.613 C 537.809 68.921, 534.970 70.520, 527.400 77.982 M 181.096 88.826 L 174.030 96.651 162.765 97.890 C 149.415 99.357, 148 99.704, 148 101.508 C 148 103.847, 149.445 103.999, 158.619 102.631 C 163.503 101.902, 167.852 101.498, 168.281 101.732 C 169.157 102.208, 158.944 110.798, 149.438 117.581 C 136.824 126.583, 115.926 134.844, 112.650 132.124 C 110.324 130.194, 111.869 127.196, 115.855 125.905 C 122.630 123.710, 132.780 118.096, 134.941 115.348 C 137.671 111.878, 137.298 108.613, 134.121 108.164 C 129.602 107.524, 122.871 111.128, 115.492 118.138 C 110.069 123.289, 107.420 125.099, 104.882 125.390 C 103.022 125.602, 101.162 125.827, 100.750 125.888 C 100.338 125.950, 100 126.724, 100 127.609 C 100 128.860, 100.781 129.128, 103.500 128.810 C 106.539 128.455, 107 128.684, 107 130.546 C 107 135.782, 115.101 137.634, 124.124 134.461 C 133.990 130.992, 150.619 120.520, 165.881 108.166 C 168.147 106.332, 170 105.056, 170 105.331 C 170 105.605, 165.050 113.026, 159 121.822 C 152.950 130.617, 148 138.563, 148 139.480 C 148 141.697, 150.961 141.071, 152.393 138.552 C 154.592 134.684, 170.467 111.371, 174.629 105.898 C 179.424 99.592, 178.678 99.806, 200.608 98.447 C 211.981 97.742, 213.762 97.362, 212.344 95.944 C 210.655 94.255, 207.476 94.093, 194.849 95.051 C 188.136 95.561, 182.489 95.822, 182.298 95.632 C 182.108 95.441, 183.988 92.520, 186.476 89.140 C 188.964 85.760, 191 82.546, 191 81.997 C 191 79.318, 187.506 81.727, 181.096 88.826 M 194.309 111.891 C 192.050 113.528, 188.728 116.700, 186.927 118.942 C 184.741 121.661, 182.379 123.359, 179.826 124.047 C 177.450 124.687, 176 125.673, 176 126.650 C 176 127.906, 176.705 128.090, 179.500 127.566 C 182.494 127.004, 183 127.182, 183 128.794 C 183 130.853, 186.791 133.020, 190.297 132.966 C 193.948 132.909, 206.103 127.665, 212.611 123.340 L 218.723 119.278 218.250 123.478 C 217.835 127.154, 218.119 127.949, 220.523 129.839 C 225.274 133.576, 231.664 132.466, 251 124.546 C 257.325 121.955, 265.425 118.930, 269 117.824 C 277.124 115.310, 279.189 113.639, 273 114.586 C 267.313 115.456, 256.709 118.638, 242 123.887 C 224.498 130.133, 222.022 129.614, 223.607 120.030 C 224.378 115.365, 224.323 113.683, 223.372 112.894 C 222.041 111.789, 218 113.313, 218 114.920 C 218 117.046, 197.726 127.618, 192.871 128.023 C 185.131 128.670, 185.186 127.084, 193.050 122.893 C 199.693 119.352, 203.313 115.223, 202.819 111.748 C 202.347 108.420, 199.023 108.476, 194.309 111.891 M 124.946 114.849 C 122.501 116.415, 119.609 118.703, 118.519 119.932 L 116.539 122.167 119.519 120.856 C 124.902 118.487, 131.343 114.471, 131.759 113.224 C 132.441 111.176, 129.631 111.846, 124.946 114.849 M 193.766 117.097 L 190.500 120.193 193.720 118.050 C 195.491 116.871, 197.205 115.478, 197.529 114.953 C 198.688 113.077, 196.976 114.052, 193.766 117.097 M 517 114.654 C 512.591 116.113, 506.289 119.873, 502.635 123.225 L 498.500 127.017 501.500 126.421 C 510.437 124.646, 515.380 122.652, 519.041 119.344 C 521.219 117.377, 523 115.370, 523 114.884 C 523 113.950, 519.528 113.818, 517 114.654 M 547 115.500 C 545.550 116.329, 545.130 116.931, 546 116.933 C 546.825 116.935, 548.374 116.276, 549.441 115.468 C 551.911 113.600, 550.287 113.621, 547 115.500 M 449.183 118.058 C 446.809 119.112, 445.121 120.387, 445.432 120.890 C 445.743 121.393, 444.761 122.241, 443.249 122.774 C 439.962 123.933, 435.271 127.598, 436.060 128.391 C 436.663 128.996, 449.878 121.387, 454 118.062 C 457.198 115.481, 454.990 115.480, 449.183 118.058 M 366.892 123.250 C 361.355 127.790, 357.976 132, 359.869 132 C 361.412 132, 374.788 119.074, 373.287 119.033 C 372.621 119.015, 369.743 120.912, 366.892 123.250 M 474 217.500 C 472.555 218.326, 472.133 218.929, 473 218.929 C 473.825 218.929, 475.625 218.286, 477 217.500 C 478.445 216.674, 478.867 216.071, 478 216.071 C 477.175 216.071, 475.375 216.714, 474 217.500" stroke="none" fill="currentColor" fill-rule="evenodd"/>
</svg>