<svg width="1032" height="630" viewBox="0 0 1032 630" fill="none" xmlns="http://www.w3.org/2000/svg">
<rect width="339.388" height="442.307" rx="169.694" transform="matrix(-0.574112 0.818777 0.818777 0.574112 908.562 146.738)" fill="#ADCDC0"/>
<path d="M902.009 391.201C900.867 404.406 897.217 417.267 891.259 429.096L890.675 430.237C884.37 442.379 875.737 453.16 865.266 461.965C854.795 470.77 842.692 477.426 829.649 481.554C817.013 485.553 803.734 487.103 790.525 486.125L789.247 486.022C775.617 484.844 762.353 480.993 750.211 474.688L750.211 474.688C738.069 468.383 727.288 459.75 718.483 449.279C709.678 438.808 703.023 426.705 698.895 413.662L698.894 413.662C694.896 401.026 693.346 387.747 694.324 374.538L694.426 373.26L452.247 352.329C448.321 397.762 453.381 443.524 467.14 487.002C480.899 530.479 503.086 570.822 532.436 605.725L533.817 607.356C562.91 641.525 598.355 669.736 638.195 690.422C678.667 711.437 722.882 724.274 768.316 728.201L770.445 728.378C815.178 731.967 860.19 726.852 902.989 713.308C945.787 699.765 985.547 678.053 1020.07 649.383L1021.71 648.013C1056.61 618.663 1085.39 582.726 1106.41 542.254C1127.42 501.781 1140.26 457.566 1144.19 412.133L902.009 391.201Z" fill="#FBFFED"/>
</svg>
