<svg width="590" height="141" viewBox="0 0 590 141" fill="none" xmlns="http://www.w3.org/2000/svg">
<path d="M99.0951 36.1456C102.151 31.4435 103.444 27.7407 102.974 25.037C102.622 22.3334 101.035 20.335 98.2135 19.0419C95.3922 17.7489 91.6894 16.926 87.1049 16.5734L87.9866 13.0469C89.1621 13.1644 91.278 13.282 94.3343 13.3995C97.5081 13.3995 100.858 13.4583 104.385 13.5758C108.029 13.5758 110.909 13.5758 113.025 13.5758C115.493 13.5758 117.844 13.5171 120.078 13.3995C122.311 13.282 124.368 13.1644 126.249 13.0469L125.368 16.5734C122.546 17.3962 119.96 18.513 117.609 19.9236C115.376 21.2166 113.025 23.2738 110.556 26.095C108.088 28.7986 105.266 32.619 102.093 37.5562L36.3231 138.767C34.0896 138.532 31.8562 138.415 29.6227 138.415C27.5068 138.415 25.3321 138.532 23.0987 138.767L9.16894 27.8582C8.69874 23.6264 7.46446 20.7464 5.4661 19.2183C3.46774 17.5726 1.64571 16.6909 0 16.5734L0.88163 13.0469C4.29059 13.1644 8.69874 13.282 14.1061 13.3995C19.6309 13.5171 25.097 13.5758 30.5044 13.5758C36.8521 13.5758 42.6708 13.5171 47.9606 13.3995C53.3679 13.282 57.7761 13.1644 61.185 13.0469L60.3034 16.5734C56.5418 16.6909 53.5443 17.1611 51.3108 17.984C49.0773 18.8068 47.5492 20.2175 46.7263 22.2158C46.021 24.2142 45.8447 27.2705 46.1974 31.3848L54.661 109.144L46.7263 116.55L99.0951 36.1456Z" fill="#424260"/>
<path d="M495.333 100.326C499.683 98.4452 503.856 96.3293 507.853 93.9783C511.849 91.5098 515.376 88.8649 518.432 86.0437C523.017 81.6943 526.778 76.6984 529.717 71.056C532.656 65.296 534.125 59.1246 534.125 52.5418C534.125 50.5434 533.89 49.1916 533.42 48.4863C532.95 47.781 532.244 47.4283 531.304 47.4283C528.835 47.4283 526.132 48.7801 523.193 51.4838C520.254 54.0699 517.374 57.5964 514.553 62.0634C511.732 66.4127 509.146 71.4086 506.795 77.051C504.561 82.5759 502.739 88.3359 501.328 94.331C499.918 100.208 499.213 105.968 499.213 111.611C499.213 118.311 500.506 122.837 503.092 125.188C505.795 127.539 509.263 128.715 513.495 128.715C516.199 128.715 519.901 127.774 524.603 125.893C529.306 123.895 533.949 120.368 538.533 115.314L541.354 116.724C538.886 120.604 535.594 124.365 531.48 128.009C527.366 131.653 522.546 134.651 517.022 137.002C511.497 139.235 505.384 140.352 498.684 140.352C493.276 140.352 488.339 139.412 483.872 137.531C479.523 135.65 476.055 132.888 473.469 129.243C470.883 125.482 469.59 120.897 469.59 115.49C469.59 108.907 470.648 102.266 472.764 95.5653C474.88 88.8649 477.877 82.4584 481.756 76.3457C485.635 70.1156 490.279 64.5907 495.686 59.7711C501.211 54.9515 507.265 51.1312 513.848 48.3099C520.43 45.4887 527.542 44.0781 535.183 44.0781C540.825 44.0781 545.586 45.3124 549.465 47.781C553.345 50.132 555.284 53.8348 555.284 58.8895C555.284 63.3564 554.05 67.5882 551.581 71.5849C549.113 75.4641 545.763 79.0494 541.531 82.3408C537.417 85.6322 532.714 88.571 527.425 91.1571C522.252 93.7432 516.904 95.9767 511.379 97.8575C505.854 99.7383 500.447 101.208 495.157 102.266L495.333 100.326Z" fill="#424260"/>
<path d="M483.1 46.5492L482.571 50.0757H419.27L420.151 46.5492H483.1ZM442.192 122.898C441.369 125.602 441.369 127.659 442.192 129.07C443.015 130.363 444.308 131.009 446.071 131.009C448.422 131.009 450.773 129.775 453.124 127.306C455.593 124.72 457.65 121.194 459.296 116.727L462.117 109.321H465.467L462.117 119.372C459.766 126.19 456.239 131.421 451.537 135.065C446.953 138.591 441.369 140.354 434.786 140.354C429.144 140.354 424.795 139.061 421.738 136.475C418.682 133.772 416.86 130.245 416.272 125.896C415.684 121.429 416.155 116.492 417.683 111.084L443.779 20.4529C449.539 20.3354 454.711 20.1003 459.296 19.7476C463.88 19.395 468.347 18.8072 472.696 17.9844L442.192 122.898Z" fill="#424260"/>
<path d="M379.251 47.6046C376.9 47.6046 374.255 49.2503 371.316 52.5418C368.495 55.8332 365.673 60.2413 362.852 65.7662C360.031 71.2911 357.445 77.4625 355.094 84.2804C352.743 91.0983 350.862 98.0926 349.451 105.263C348.041 112.434 347.336 119.31 347.336 125.893C347.336 129.89 347.688 132.711 348.394 134.357C349.216 136.003 350.451 136.825 352.096 136.825C354.33 136.825 356.857 135.297 359.678 132.241C362.5 129.067 365.262 124.835 367.966 119.546C370.787 114.138 373.373 108.084 375.724 101.384C378.075 94.5661 379.956 87.513 381.366 80.2249C382.895 72.9368 383.659 65.825 383.659 58.8895C383.659 54.1875 383.247 51.1312 382.424 49.7206C381.602 48.3099 380.544 47.6046 379.251 47.6046ZM320.887 110.906C320.887 105.381 321.651 99.562 323.179 93.4493C324.707 87.3367 326.999 81.4004 330.056 75.6404C333.112 69.7629 336.991 64.4731 341.693 59.7711C346.513 54.9515 352.096 51.1312 358.444 48.3099C364.792 45.4887 372.021 44.0781 380.132 44.0781C389.771 44.0781 397.177 46.6055 402.349 51.6601C407.521 56.7148 410.108 64.0029 410.108 73.5245C410.108 79.0494 409.343 84.8682 407.815 90.9808C406.287 97.0934 403.995 103.088 400.939 108.966C397.882 114.726 393.944 120.016 389.125 124.835C384.423 129.537 378.898 133.299 372.55 136.12C366.202 138.941 358.973 140.352 350.862 140.352C341.223 140.352 333.817 137.825 328.645 132.77C323.473 127.715 320.887 120.427 320.887 110.906Z" fill="#424260"/>
<path d="M245.54 137.883H217.504L239.016 61.5344C239.603 59.7711 239.956 58.3017 240.074 57.1262C240.191 55.9507 240.015 55.0691 239.545 54.4813C239.192 53.776 238.428 53.4234 237.252 53.4234C235.254 53.4234 233.432 54.305 231.786 56.0683C230.258 57.8315 228.554 61.1229 226.673 65.9425L222.97 75.8168H219.62L224.557 62.2397C226.79 55.7744 229.847 51.1312 233.726 48.3099C237.605 45.4887 242.366 44.0781 248.008 44.0781C252.358 44.0781 255.767 44.8422 258.235 46.3704C260.821 47.781 262.585 49.7205 263.525 52.1891C264.465 54.6577 264.877 57.3613 264.759 60.3001C264.642 63.1213 264.23 65.9425 263.525 68.7637L245.54 137.883ZM250.477 110.377C255.179 96.7408 259.528 85.6322 263.525 77.051C267.522 68.4699 271.401 61.7695 275.162 56.9499C279.042 52.0128 282.98 48.6626 286.976 46.8993C291.091 45.0185 295.44 44.0781 300.024 44.0781C305.784 44.0781 309.957 45.3124 312.544 47.781C315.13 50.132 316.481 53.3646 316.599 57.4789C316.717 61.4756 315.952 65.8837 314.307 70.7033L296.851 122.896C295.793 126.187 295.616 128.362 296.322 129.42C297.027 130.478 297.967 131.007 299.143 131.007C300.436 131.007 301.964 130.301 303.727 128.891C305.49 127.363 307.371 123.895 309.37 118.488L312.72 109.319H316.07L311.662 122.19C310.016 127.128 307.841 130.889 305.138 133.475C302.552 136.061 299.672 137.825 296.498 138.765C293.442 139.823 290.385 140.352 287.329 140.352C283.802 140.352 280.746 139.823 278.16 138.765C275.691 137.707 273.752 136.179 272.341 134.181C270.696 131.83 269.814 128.832 269.696 125.188C269.696 121.544 270.637 116.842 272.518 111.082L288.034 64.5319C288.74 62.5336 289.21 60.7703 289.445 59.2421C289.68 57.5964 289.621 56.3034 289.268 55.363C288.916 54.4226 288.152 53.9524 286.976 53.9524C284.86 53.9524 282.451 55.4805 279.747 58.5368C277.043 61.5932 274.222 65.7662 271.283 71.056C268.345 76.3457 265.347 82.4584 262.291 89.3938C259.234 96.3293 256.296 103.735 253.474 111.611C250.771 119.369 248.42 127.186 246.421 135.062L250.477 110.377Z" fill="#424260"/>
<path d="M190.889 18.6905C190.889 12.3428 192.946 7.64079 197.06 4.58447C201.174 1.52816 206.288 0 212.4 0C217.573 0 221.452 0.999179 224.038 2.99754C226.742 4.9959 228.093 7.99344 228.093 11.9902C228.093 17.515 225.977 21.982 221.746 25.3909C217.631 28.6823 212.518 30.328 206.405 30.328C201.351 30.328 197.471 29.3289 194.768 27.3305C192.182 25.3321 190.889 22.4522 190.889 18.6905ZM183.483 61.3614C185.129 56.4243 184.6 53.9557 181.896 53.9557C180.133 53.9557 178.487 54.7786 176.959 56.4243C175.431 57.9524 173.844 60.8324 172.198 65.0642L168.143 75.8201H164.792L169.73 62.0667C171.375 57.5998 173.432 54.0732 175.901 51.4871C178.487 48.7835 181.485 46.8439 184.894 45.6684C188.303 44.4929 192.005 43.9051 196.002 43.9051C200.469 43.9051 204.054 44.6692 206.758 46.1974C209.462 47.7255 211.401 49.7239 212.577 52.1924C213.752 54.5434 214.34 57.1883 214.34 60.1271C214.34 62.9483 213.87 65.7695 212.929 68.5907L194.591 122.899C193.651 125.838 193.475 127.836 194.063 128.894C194.65 129.835 195.532 130.305 196.707 130.305C197.765 130.305 199.117 129.717 200.763 128.542C202.409 127.248 204.172 124.133 206.053 119.196L209.756 109.322H213.106L208.698 122.194C206.934 127.131 204.701 130.893 201.997 133.479C199.294 136.065 196.296 137.828 193.005 138.768C189.831 139.826 186.657 140.355 183.483 140.355C178.311 140.355 174.079 139.297 170.788 137.181C167.614 134.948 165.674 131.598 164.969 127.131C164.263 122.546 165.028 116.845 167.261 110.027L183.483 61.3614Z" fill="#424260"/>
<path d="M106.586 100.859C110.348 99.0962 114.05 96.9803 117.694 94.5118C121.339 92.0432 124.689 89.3395 127.745 86.4008C132.447 81.8163 136.267 76.5853 139.206 70.7078C142.263 64.8302 143.791 58.4825 143.791 51.6646C143.791 50.0189 143.556 48.9022 143.085 48.3144C142.615 47.6091 141.91 47.2564 140.969 47.2564C138.618 47.2564 136.032 48.6083 133.211 51.3119C130.507 53.8981 127.804 57.4246 125.1 61.8915C122.396 66.2409 119.928 71.178 117.694 76.7029C115.579 82.2277 113.815 87.9289 112.405 93.8065C111.112 99.5664 110.465 105.15 110.465 110.557C110.465 117.375 111.817 121.96 114.521 124.311C117.224 126.544 120.751 127.661 125.1 127.661C127.451 127.661 130.978 126.779 135.68 125.016C140.382 123.253 145.084 120.02 149.786 115.318L152.607 116.729C150.021 120.608 146.612 124.37 142.38 128.014C138.148 131.658 133.152 134.655 127.392 137.006C121.632 139.24 115.167 140.356 107.997 140.356C102.472 140.356 97.3582 139.416 92.6562 137.535C88.0717 135.654 84.3689 132.892 81.5477 129.248C78.844 125.486 77.4922 120.902 77.4922 115.495C77.4922 108.559 78.5501 101.682 80.6661 94.8644C82.8995 88.0465 86.0146 81.5812 90.0113 75.4686C94.008 69.3559 98.7688 63.9486 104.294 59.2466C109.936 54.427 116.166 50.6654 122.984 47.9617C129.802 45.2581 137.09 43.9062 144.849 43.9062C151.079 43.9062 156.251 45.1993 160.365 47.7854C164.597 50.254 166.713 54.1332 166.713 59.4229C166.713 63.8898 165.538 68.1217 163.187 72.1184C160.836 75.9975 157.603 79.5828 153.489 82.8743C149.374 86.0481 144.731 88.9281 139.559 91.5142C134.387 94.1003 128.921 96.3338 123.161 98.2146C117.518 100.095 111.934 101.565 106.41 102.623L106.586 100.859Z" fill="#424260"/>
<path d="M553.988 15.5837V13.7457H566.82V15.5837H561.44V30.8555H559.368V15.5837H553.988ZM570.018 13.7457H572.491L578.305 27.9482H578.506L584.32 13.7457H586.793V30.8555H584.855V17.8561H584.688L579.341 30.8555H577.47L572.123 17.8561H571.956V30.8555H570.018V13.7457Z" fill="black"/>
</svg>
